%TF.GenerationSoftware,KiCad,Pcbnew,7.0.10*%
%TF.CreationDate,2024-04-17T23:56:12-04:00*%
%TF.ProjectId,BoardDesign,426f6172-6444-4657-9369-676e2e6b6963,rev?*%
%TF.SameCoordinates,Original*%
%TF.FileFunction,Soldermask,Top*%
%TF.FilePolarity,Negative*%
%FSLAX46Y46*%
G04 Gerber Fmt 4.6, Leading zero omitted, Abs format (unit mm)*
G04 Created by KiCad (PCBNEW 7.0.10) date 2024-04-17 23:56:12*
%MOMM*%
%LPD*%
G01*
G04 APERTURE LIST*
G04 Aperture macros list*
%AMRoundRect*
0 Rectangle with rounded corners*
0 $1 Rounding radius*
0 $2 $3 $4 $5 $6 $7 $8 $9 X,Y pos of 4 corners*
0 Add a 4 corners polygon primitive as box body*
4,1,4,$2,$3,$4,$5,$6,$7,$8,$9,$2,$3,0*
0 Add four circle primitives for the rounded corners*
1,1,$1+$1,$2,$3*
1,1,$1+$1,$4,$5*
1,1,$1+$1,$6,$7*
1,1,$1+$1,$8,$9*
0 Add four rect primitives between the rounded corners*
20,1,$1+$1,$2,$3,$4,$5,0*
20,1,$1+$1,$4,$5,$6,$7,0*
20,1,$1+$1,$6,$7,$8,$9,0*
20,1,$1+$1,$8,$9,$2,$3,0*%
G04 Aperture macros list end*
%ADD10RoundRect,0.250000X0.325000X0.650000X-0.325000X0.650000X-0.325000X-0.650000X0.325000X-0.650000X0*%
%ADD11R,1.700000X5.700000*%
%ADD12R,3.500000X2.350000*%
%ADD13R,1.000000X1.000000*%
%ADD14O,1.000000X1.000000*%
%ADD15C,0.900000*%
%ADD16C,8.600000*%
%ADD17RoundRect,0.200000X-0.275000X0.200000X-0.275000X-0.200000X0.275000X-0.200000X0.275000X0.200000X0*%
%ADD18RoundRect,0.200000X-0.200000X-0.275000X0.200000X-0.275000X0.200000X0.275000X-0.200000X0.275000X0*%
%ADD19RoundRect,0.225000X0.225000X0.250000X-0.225000X0.250000X-0.225000X-0.250000X0.225000X-0.250000X0*%
%ADD20R,1.700000X1.700000*%
%ADD21O,1.700000X1.700000*%
%ADD22RoundRect,0.135000X0.135000X0.185000X-0.135000X0.185000X-0.135000X-0.185000X0.135000X-0.185000X0*%
%ADD23RoundRect,0.150000X-0.150000X0.512500X-0.150000X-0.512500X0.150000X-0.512500X0.150000X0.512500X0*%
%ADD24RoundRect,0.150000X0.150000X-0.820000X0.150000X0.820000X-0.150000X0.820000X-0.150000X-0.820000X0*%
%ADD25R,3.510000X2.620000*%
%ADD26RoundRect,0.225000X-0.225000X-0.250000X0.225000X-0.250000X0.225000X0.250000X-0.225000X0.250000X0*%
%ADD27RoundRect,0.200000X0.200000X0.275000X-0.200000X0.275000X-0.200000X-0.275000X0.200000X-0.275000X0*%
%ADD28RoundRect,0.250000X-0.325000X-0.650000X0.325000X-0.650000X0.325000X0.650000X-0.325000X0.650000X0*%
%ADD29RoundRect,0.140000X-0.140000X-0.170000X0.140000X-0.170000X0.140000X0.170000X-0.140000X0.170000X0*%
%ADD30RoundRect,0.140000X0.140000X0.170000X-0.140000X0.170000X-0.140000X-0.170000X0.140000X-0.170000X0*%
%ADD31RoundRect,1.500000X1.500000X1.500000X-1.500000X1.500000X-1.500000X-1.500000X1.500000X-1.500000X0*%
%ADD32C,6.000000*%
%ADD33RoundRect,0.200000X0.275000X-0.200000X0.275000X0.200000X-0.275000X0.200000X-0.275000X-0.200000X0*%
%ADD34R,0.203200X0.762000*%
%ADD35R,0.762000X0.203200*%
%ADD36R,5.689600X3.708400*%
%ADD37RoundRect,0.140000X0.170000X-0.140000X0.170000X0.140000X-0.170000X0.140000X-0.170000X-0.140000X0*%
%ADD38RoundRect,1.500000X-1.500000X1.500000X-1.500000X-1.500000X1.500000X-1.500000X1.500000X1.500000X0*%
%ADD39RoundRect,0.140000X-0.170000X0.140000X-0.170000X-0.140000X0.170000X-0.140000X0.170000X0.140000X0*%
%ADD40RoundRect,0.147500X-0.147500X-0.172500X0.147500X-0.172500X0.147500X0.172500X-0.147500X0.172500X0*%
%ADD41RoundRect,0.250000X0.650000X-0.325000X0.650000X0.325000X-0.650000X0.325000X-0.650000X-0.325000X0*%
%ADD42RoundRect,0.225000X0.250000X-0.225000X0.250000X0.225000X-0.250000X0.225000X-0.250000X-0.225000X0*%
%ADD43RoundRect,0.075000X-0.700000X-0.075000X0.700000X-0.075000X0.700000X0.075000X-0.700000X0.075000X0*%
%ADD44RoundRect,0.075000X-0.075000X-0.700000X0.075000X-0.700000X0.075000X0.700000X-0.075000X0.700000X0*%
%ADD45R,1.200000X1.400000*%
%ADD46C,1.200000*%
%ADD47RoundRect,0.250000X0.600000X0.725000X-0.600000X0.725000X-0.600000X-0.725000X0.600000X-0.725000X0*%
%ADD48O,1.700000X1.950000*%
%ADD49R,0.800000X1.000000*%
%ADD50R,1.500000X0.700000*%
%ADD51RoundRect,0.250000X-0.650000X1.000000X-0.650000X-1.000000X0.650000X-1.000000X0.650000X1.000000X0*%
%ADD52RoundRect,0.218750X0.256250X-0.218750X0.256250X0.218750X-0.256250X0.218750X-0.256250X-0.218750X0*%
%ADD53R,1.100000X0.250000*%
%ADD54R,1.600000X1.600000*%
%ADD55O,1.600000X1.600000*%
G04 APERTURE END LIST*
D10*
%TO.C,C16*%
X152950000Y-157097000D03*
X150000000Y-157097000D03*
%TD*%
%TO.C,C17*%
X152950000Y-154097000D03*
X150000000Y-154097000D03*
%TD*%
D11*
%TO.C,L3*%
X149750000Y-124000000D03*
X154250000Y-124000000D03*
%TD*%
D12*
%TO.C,L2*%
X155000000Y-145000000D03*
X155000000Y-151050000D03*
%TD*%
D13*
%TO.C,J7*%
X96850000Y-124990000D03*
D14*
X98120000Y-124990000D03*
X96850000Y-126260000D03*
X98120000Y-126260000D03*
X96850000Y-127530000D03*
X98120000Y-127530000D03*
X96850000Y-128800000D03*
X98120000Y-128800000D03*
X96850000Y-130070000D03*
X98120000Y-130070000D03*
%TD*%
D15*
%TO.C,H2*%
X151775000Y-103000000D03*
X152719581Y-100719581D03*
X152719581Y-105280419D03*
X155000000Y-99775000D03*
D16*
X155000000Y-103000000D03*
D15*
X155000000Y-106225000D03*
X157280419Y-100719581D03*
X157280419Y-105280419D03*
X158225000Y-103000000D03*
%TD*%
D17*
%TO.C,R11*%
X135653581Y-116350000D03*
X135653581Y-118000000D03*
%TD*%
%TO.C,R19*%
X114421582Y-109738000D03*
X114421582Y-111388000D03*
%TD*%
D18*
%TO.C,R17*%
X117675000Y-113000000D03*
X119325000Y-113000000D03*
%TD*%
D19*
%TO.C,C3*%
X118000000Y-129250000D03*
X116450000Y-129250000D03*
%TD*%
D20*
%TO.C,J6*%
X97359581Y-156491000D03*
D21*
X97359581Y-153951000D03*
%TD*%
D22*
%TO.C,R2*%
X116000000Y-134763000D03*
X114980000Y-134763000D03*
%TD*%
D23*
%TO.C,U4*%
X144900000Y-143925000D03*
X143950000Y-143925000D03*
X143000000Y-143925000D03*
X143000000Y-146200000D03*
X143950000Y-146200000D03*
X144900000Y-146200000D03*
%TD*%
D24*
%TO.C,U2*%
X140708581Y-127140000D03*
X141978581Y-127140000D03*
X143248581Y-127140000D03*
X144518581Y-127140000D03*
X144518581Y-122180000D03*
X143248581Y-122180000D03*
X141978581Y-122180000D03*
X140708581Y-122180000D03*
D25*
X142613581Y-124660000D03*
%TD*%
D26*
%TO.C,C1*%
X127450000Y-143250000D03*
X129000000Y-143250000D03*
%TD*%
D27*
%TO.C,R13*%
X107519581Y-144045000D03*
X105869581Y-144045000D03*
%TD*%
D28*
%TO.C,C18*%
X142178581Y-131000000D03*
X145128581Y-131000000D03*
%TD*%
D29*
%TO.C,C8*%
X119330000Y-128263000D03*
X120290000Y-128263000D03*
%TD*%
D17*
%TO.C,R20*%
X117723582Y-109738000D03*
X117723582Y-111388000D03*
%TD*%
D29*
%TO.C,C6*%
X128386581Y-141750000D03*
X129346581Y-141750000D03*
%TD*%
D30*
%TO.C,C4*%
X117500000Y-130750000D03*
X116540000Y-130750000D03*
%TD*%
D31*
%TO.C,J8*%
X140600000Y-104000000D03*
D32*
X133400000Y-104000000D03*
%TD*%
D33*
%TO.C,R5*%
X115853581Y-121874000D03*
X115853581Y-120224000D03*
%TD*%
D34*
%TO.C,U5*%
X142250000Y-163023500D03*
X141750001Y-163023500D03*
X141249999Y-163023500D03*
X140750000Y-163023500D03*
X140250001Y-163023500D03*
X139750000Y-163023500D03*
X139250000Y-163023500D03*
X138749999Y-163023500D03*
X138250000Y-163023500D03*
X137750001Y-163023500D03*
X137249999Y-163023500D03*
X136750000Y-163023500D03*
D35*
X136020200Y-164000000D03*
X136020200Y-164499999D03*
X136020200Y-165000001D03*
X136020200Y-165500000D03*
X136020200Y-165999999D03*
X136020200Y-166500001D03*
X136020200Y-167000000D03*
D34*
X136750000Y-167976500D03*
X137249999Y-167976500D03*
X137750001Y-167976500D03*
X138250000Y-167976500D03*
X138749999Y-167976500D03*
X139250000Y-167976500D03*
X139750000Y-167976500D03*
X140250001Y-167976500D03*
X140750000Y-167976500D03*
X141249999Y-167976500D03*
X141750001Y-167976500D03*
X142250000Y-167976500D03*
D35*
X142979800Y-167000000D03*
X142979800Y-166500001D03*
X142979800Y-165999999D03*
X142979800Y-165500000D03*
X142979800Y-165000001D03*
X142979800Y-164499999D03*
X142979800Y-164000000D03*
D36*
X139500000Y-165500000D03*
%TD*%
D17*
%TO.C,R7*%
X110900000Y-109775000D03*
X110900000Y-111425000D03*
%TD*%
D37*
%TO.C,C12*%
X115000000Y-132473000D03*
X115000000Y-131513000D03*
%TD*%
D34*
%TO.C,U6*%
X119250000Y-163023500D03*
X118750001Y-163023500D03*
X118249999Y-163023500D03*
X117750000Y-163023500D03*
X117250001Y-163023500D03*
X116750000Y-163023500D03*
X116250000Y-163023500D03*
X115749999Y-163023500D03*
X115250000Y-163023500D03*
X114750001Y-163023500D03*
X114249999Y-163023500D03*
X113750000Y-163023500D03*
D35*
X113020200Y-164000000D03*
X113020200Y-164499999D03*
X113020200Y-165000001D03*
X113020200Y-165500000D03*
X113020200Y-165999999D03*
X113020200Y-166500001D03*
X113020200Y-167000000D03*
D34*
X113750000Y-167976500D03*
X114249999Y-167976500D03*
X114750001Y-167976500D03*
X115250000Y-167976500D03*
X115749999Y-167976500D03*
X116250000Y-167976500D03*
X116750000Y-167976500D03*
X117250001Y-167976500D03*
X117750000Y-167976500D03*
X118249999Y-167976500D03*
X118750001Y-167976500D03*
X119250000Y-167976500D03*
D35*
X119979800Y-167000000D03*
X119979800Y-166500001D03*
X119979800Y-165999999D03*
X119979800Y-165500000D03*
X119979800Y-165000001D03*
X119979800Y-164499999D03*
X119979800Y-164000000D03*
D36*
X116500000Y-165500000D03*
%TD*%
D17*
%TO.C,R23*%
X112700000Y-109775000D03*
X112700000Y-111425000D03*
%TD*%
D38*
%TO.C,J11*%
X145000000Y-175200000D03*
D32*
X145000000Y-182400000D03*
%TD*%
D15*
%TO.C,H3*%
X96775000Y-183000000D03*
X97719581Y-180719581D03*
X97719581Y-185280419D03*
X100000000Y-179775000D03*
D16*
X100000000Y-183000000D03*
D15*
X100000000Y-186225000D03*
X102280419Y-180719581D03*
X102280419Y-185280419D03*
X103225000Y-183000000D03*
%TD*%
D39*
%TO.C,C15*%
X146800000Y-143920000D03*
X146800000Y-144880000D03*
%TD*%
D33*
%TO.C,R3*%
X115346581Y-142913000D03*
X115346581Y-141263000D03*
%TD*%
D37*
%TO.C,C19*%
X141550000Y-117300000D03*
X141550000Y-116340000D03*
%TD*%
D40*
%TO.C,L1*%
X112979000Y-137899000D03*
X113949000Y-137899000D03*
%TD*%
D27*
%TO.C,R10*%
X138478581Y-120000000D03*
X136828581Y-120000000D03*
%TD*%
D18*
%TO.C,R22*%
X111100000Y-113000000D03*
X112750000Y-113000000D03*
%TD*%
D41*
%TO.C,C14*%
X140000000Y-147200000D03*
X140000000Y-144250000D03*
%TD*%
D42*
%TO.C,C2*%
X131250000Y-131800000D03*
X131250000Y-130250000D03*
%TD*%
D38*
%TO.C,J14*%
X121800000Y-175200000D03*
D32*
X121800000Y-182400000D03*
%TD*%
D33*
%TO.C,R12*%
X139653581Y-118000000D03*
X139653581Y-116350000D03*
%TD*%
D37*
%TO.C,C13*%
X119501582Y-121874000D03*
X119501582Y-120914000D03*
%TD*%
D20*
%TO.C,J1*%
X153613581Y-115460000D03*
D21*
X153613581Y-118000000D03*
%TD*%
D15*
%TO.C,H1*%
X96775000Y-103000000D03*
X97719581Y-100719581D03*
X97719581Y-105280419D03*
X100000000Y-99775000D03*
D16*
X100000000Y-103000000D03*
D15*
X100000000Y-106225000D03*
X102280419Y-100719581D03*
X102280419Y-105280419D03*
X103225000Y-103000000D03*
%TD*%
D20*
%TO.C,J2*%
X97359581Y-141505000D03*
D21*
X97359581Y-144045000D03*
X97359581Y-146585000D03*
X97359581Y-149125000D03*
%TD*%
D43*
%TO.C,U1*%
X117846581Y-131913000D03*
X117846581Y-132413000D03*
X117846581Y-132913000D03*
X117846581Y-133413000D03*
X117846581Y-133913000D03*
X117846581Y-134413000D03*
X117846581Y-134913000D03*
X117846581Y-135413000D03*
X117846581Y-135913000D03*
X117846581Y-136413000D03*
X117846581Y-136913000D03*
X117846581Y-137413000D03*
X117846581Y-137913000D03*
X117846581Y-138413000D03*
X117846581Y-138913000D03*
X117846581Y-139413000D03*
D44*
X119771581Y-141338000D03*
X120271581Y-141338000D03*
X120771581Y-141338000D03*
X121271581Y-141338000D03*
X121771581Y-141338000D03*
X122271581Y-141338000D03*
X122771581Y-141338000D03*
X123271581Y-141338000D03*
X123771581Y-141338000D03*
X124271581Y-141338000D03*
X124771581Y-141338000D03*
X125271581Y-141338000D03*
X125771581Y-141338000D03*
X126271581Y-141338000D03*
X126771581Y-141338000D03*
X127271581Y-141338000D03*
D43*
X129196581Y-139413000D03*
X129196581Y-138913000D03*
X129196581Y-138413000D03*
X129196581Y-137913000D03*
X129196581Y-137413000D03*
X129196581Y-136913000D03*
X129196581Y-136413000D03*
X129196581Y-135913000D03*
X129196581Y-135413000D03*
X129196581Y-134913000D03*
X129196581Y-134413000D03*
X129196581Y-133913000D03*
X129196581Y-133413000D03*
X129196581Y-132913000D03*
X129196581Y-132413000D03*
X129196581Y-131913000D03*
D44*
X127271581Y-129988000D03*
X126771581Y-129988000D03*
X126271581Y-129988000D03*
X125771581Y-129988000D03*
X125271581Y-129988000D03*
X124771581Y-129988000D03*
X124271581Y-129988000D03*
X123771581Y-129988000D03*
X123271581Y-129988000D03*
X122771581Y-129988000D03*
X122271581Y-129988000D03*
X121771581Y-129988000D03*
X121271581Y-129988000D03*
X120771581Y-129988000D03*
X120271581Y-129988000D03*
X119771581Y-129988000D03*
%TD*%
D17*
%TO.C,R21*%
X121250000Y-109738000D03*
X121250000Y-111388000D03*
%TD*%
D20*
%TO.C,J5*%
X97359581Y-134139000D03*
D21*
X97359581Y-136679000D03*
%TD*%
D18*
%TO.C,R18*%
X121000000Y-113000000D03*
X122650000Y-113000000D03*
%TD*%
D45*
%TO.C,Y1*%
X111700000Y-132163000D03*
X111700000Y-134363000D03*
X113400000Y-134363000D03*
X113400000Y-132163000D03*
%TD*%
D46*
%TO.C,J9*%
X122200000Y-102200000D03*
D47*
X120600000Y-104200000D03*
D48*
X118100000Y-104200000D03*
X115600000Y-104200000D03*
X113100000Y-104200000D03*
X110600000Y-104200000D03*
%TD*%
D17*
%TO.C,R9*%
X144000000Y-139550000D03*
X144000000Y-141200000D03*
%TD*%
D20*
%TO.C,J4*%
X102185581Y-141505000D03*
D21*
X102185581Y-144045000D03*
X102185581Y-146585000D03*
X102185581Y-149125000D03*
%TD*%
D39*
%TO.C,C20*%
X146653581Y-124175000D03*
X146653581Y-125135000D03*
%TD*%
D10*
%TO.C,C22*%
X153653581Y-133000000D03*
X150703581Y-133000000D03*
%TD*%
D18*
%TO.C,R16*%
X114375000Y-113000000D03*
X116025000Y-113000000D03*
%TD*%
D49*
%TO.C,SW1*%
X99350000Y-114717000D03*
X97140000Y-114717000D03*
D15*
X98240000Y-116867000D03*
X98240000Y-119867000D03*
D49*
X99350000Y-122017000D03*
X97140000Y-122017000D03*
D50*
X100000000Y-116117000D03*
X100000000Y-119117000D03*
X100000000Y-120617000D03*
%TD*%
D30*
%TO.C,C5*%
X120980000Y-143000000D03*
X120020000Y-143000000D03*
%TD*%
D37*
%TO.C,C9*%
X115000000Y-137900000D03*
X115000000Y-136940000D03*
%TD*%
D33*
%TO.C,R8*%
X146000000Y-141200000D03*
X146000000Y-139550000D03*
%TD*%
D27*
%TO.C,R1*%
X104653000Y-119153000D03*
X103003000Y-119153000D03*
%TD*%
D10*
%TO.C,C21*%
X153653581Y-130000000D03*
X150703581Y-130000000D03*
%TD*%
D51*
%TO.C,D4*%
X149020000Y-147000000D03*
X149020000Y-151000000D03*
%TD*%
D37*
%TO.C,C7*%
X129500000Y-130710000D03*
X129500000Y-129750000D03*
%TD*%
D52*
%TO.C,D1*%
X117346581Y-142838000D03*
X117346581Y-141263000D03*
%TD*%
D27*
%TO.C,R15*%
X102565581Y-134139000D03*
X100915581Y-134139000D03*
%TD*%
D38*
%TO.C,J13*%
X110800000Y-175200000D03*
D32*
X110800000Y-182400000D03*
%TD*%
D33*
%TO.C,R4*%
X117853581Y-121874000D03*
X117853581Y-120224000D03*
%TD*%
D53*
%TO.C,U3*%
X118900000Y-118250000D03*
X118900000Y-117750000D03*
X118900000Y-117250000D03*
X118900000Y-116750000D03*
X118900000Y-116250000D03*
X114600000Y-116250000D03*
X114600000Y-116750000D03*
X114600000Y-117250000D03*
X114600000Y-117750000D03*
X114600000Y-118250000D03*
%TD*%
D27*
%TO.C,R14*%
X107519581Y-146585000D03*
X105869581Y-146585000D03*
%TD*%
D38*
%TO.C,J10*%
X133800000Y-175000000D03*
D32*
X133800000Y-182200000D03*
%TD*%
D33*
%TO.C,R6*%
X113853581Y-121874000D03*
X113853581Y-120224000D03*
%TD*%
D15*
%TO.C,H4*%
X151775000Y-183000000D03*
X152719581Y-180719581D03*
X152719581Y-185280419D03*
X155000000Y-179775000D03*
D16*
X155000000Y-183000000D03*
D15*
X155000000Y-186225000D03*
X157280419Y-180719581D03*
X157280419Y-185280419D03*
X158225000Y-183000000D03*
%TD*%
D37*
%TO.C,C10*%
X116050000Y-137900000D03*
X116050000Y-136940000D03*
%TD*%
D54*
%TO.C,D2*%
X148690000Y-141500000D03*
D55*
X156310000Y-141500000D03*
%TD*%
D29*
%TO.C,C11*%
X111990000Y-130500000D03*
X112950000Y-130500000D03*
%TD*%
M02*
