M48
; DRILL file {KiCad 7.0.10} date Wed Apr 17 23:56:09 2024
; FORMAT={-:-/ absolute / inch / decimal}
; #@! TF.CreationDate,2024-04-17T23:56:09-04:00
; #@! TF.GenerationSoftware,Kicad,Pcbnew,7.0.10
; #@! TF.FileFunction,Plated,1,4,PTH
FMAT,2
INCH
; #@! TA.AperFunction,Plated,PTH,ViaDrill
T1C0.0157
; #@! TA.AperFunction,Plated,PTH,ComponentDrill
T2C0.0236
; #@! TA.AperFunction,Plated,PTH,ComponentDrill
T3C0.0256
; #@! TA.AperFunction,Plated,PTH,ComponentDrill
T4C0.0315
; #@! TA.AperFunction,Plated,PTH,ComponentDrill
T5C0.0374
; #@! TA.AperFunction,Plated,PTH,ComponentDrill
T6C0.0394
; #@! TA.AperFunction,Plated,PTH,ComponentDrill
T7C0.1693
; #@! TA.AperFunction,Plated,PTH,ComponentDrill
T8C0.1772
%
G90
G05
T1
X3.7738Y-5.0188
X3.8131Y-4.876
X3.8131Y-5.1732
X3.8331Y-5.5173
X3.8386Y-5.9252
X3.8948Y-5.3811
X4.0003Y-4.5715
X4.0003Y-4.7487
X4.0231Y-5.5143
X4.0256Y-5.9252
X4.1142Y-5.6398
X4.1142Y-5.7711
X4.2683Y-5.7711
X4.2699Y-5.6711
X4.3504Y-6.1614
X4.3543Y-4.2323
X4.3647Y-5.2899
X4.4094Y-6.4961
X4.4094Y-6.565
X4.4135Y-5.4294
X4.439Y-4.5039
X4.4488Y-4.6161
X4.4488Y-4.9016
X4.4488Y-6.0236
X4.4488Y-6.6142
X4.4783Y-5.5118
X4.4783Y-5.5512
X4.4823Y-4.8406
X4.4862Y-5.3819
X4.503Y-6.0778
X4.5256Y-5.2781
X4.5276Y-6.6142
X4.5374Y-5.0886
X4.5412Y-5.5123
X4.561Y-4.8386
X4.5669Y-5.4724
X4.5671Y-5.2361
X4.5689Y-4.5039
X4.5866Y-6.6453
X4.6362Y-6.3634
X4.6398Y-4.8366
X4.6457Y-5.0394
X4.6457Y-6.6132
X4.6654Y-5.1181
X4.6749Y-6.3566
X4.6938Y-5.4322
X4.6938Y-5.4715
X4.6969Y-4.502
X4.7047Y-4.7343
X4.7047Y-4.8327
X4.7047Y-6.6437
X4.7141Y-5.1718
X4.7244Y-5.6693
X4.7316Y-5.4429
X4.7402Y-4.6378
X4.7638Y-6.4567
X4.7638Y-6.5748
X4.7835Y-4.9016
X4.7933Y-5.6299
X4.813Y-5.0375
X4.8287Y-4.502
X4.8339Y-4.9016
X4.8524Y-5.0394
X5.0107Y-5.5149
X5.0384Y-5.1932
X5.0787Y-5.748
X5.0984Y-5.0689
X5.1143Y-5.6398
X5.1181Y-5.5807
X5.315Y-6.4926
X5.315Y-6.565
X5.3642Y-6.6142
X5.4331Y-6.6132
X5.4567Y-4.5807
X5.4823Y-5.6339
X5.4921Y-6.6437
X5.495Y-4.685
X5.5013Y-4.7343
X5.502Y-4.9331
X5.5354Y-5.6339
X5.5413Y-6.3681
X5.5512Y-6.6132
X5.5781Y-4.685
X5.5807Y-6.3681
X5.5906Y-4.7343
X5.6102Y-4.5807
X5.6102Y-6.6437
X5.6606Y-6.4555
X5.6606Y-6.576
X5.6673Y-5.6063
X5.7328Y-4.8888
X5.7382Y-5.0049
X5.748Y-5.5906
X5.8079Y-5.9555
X5.8079Y-6.0146
X5.8805Y-5.0689
X5.8805Y-5.1378
X5.8805Y-5.2031
X5.8805Y-5.2711
X5.926Y-5.9121
X5.926Y-5.9711
X5.9646Y-4.6063
X5.9646Y-4.6457
X5.9646Y-4.685
X6.0827Y-6.0236
X6.0827Y-6.063
X6.0827Y-6.1024
X6.0827Y-6.1417
X6.0827Y-6.1811
X6.122Y-6.0236
X6.1535Y-5.5039
X6.2205Y-5.5039
X6.2205Y-5.5709
T2
X3.81Y-4.0551
X3.81Y-7.2047
X3.8472Y-3.9653
X3.8472Y-4.1449
X3.8472Y-7.1149
X3.8472Y-7.2945
X3.937Y-3.9281
X3.937Y-4.1821
X3.937Y-7.0778
X3.937Y-7.3317
X4.0268Y-3.9653
X4.0268Y-4.1449
X4.0268Y-7.1149
X4.0268Y-7.2945
X4.064Y-4.0551
X4.064Y-7.2047
X5.9754Y-4.0551
X5.9754Y-7.2047
X6.0126Y-3.9653
X6.0126Y-4.1449
X6.0126Y-7.1149
X6.0126Y-7.2945
X6.1024Y-3.9281
X6.1024Y-4.1821
X6.1024Y-7.0778
X6.1024Y-7.3317
X6.1921Y-3.9653
X6.1921Y-4.1449
X6.1921Y-7.1149
X6.1921Y-7.2945
X6.2293Y-4.0551
X6.2293Y-7.2047
T3
X3.813Y-4.9209
X3.813Y-4.9709
X3.813Y-5.0209
X3.813Y-5.0709
X3.813Y-5.1209
X3.863Y-4.9209
X3.863Y-4.9709
X3.863Y-5.0209
X3.863Y-5.0709
X3.863Y-5.1209
T4
X5.8539Y-5.5709
X6.1539Y-5.5709
T5
X4.3543Y-4.1024
X4.4528Y-4.1024
X4.5512Y-4.1024
X4.6496Y-4.1024
X4.748Y-4.1024
T6
X3.8331Y-5.2811
X3.8331Y-5.3811
X3.8331Y-5.5711
X3.8331Y-5.6711
X3.8331Y-5.7711
X3.8331Y-5.8711
X3.8331Y-6.0611
X3.8331Y-6.1611
X4.0231Y-5.5711
X4.0231Y-5.6711
X4.0231Y-5.7711
X4.0231Y-5.8711
X6.0478Y-4.5457
X6.0478Y-4.6457
T7
X3.937Y-4.0551
X3.937Y-7.2047
X6.1024Y-4.0551
X6.1024Y-7.2047
T8
X4.3622Y-6.8976
X4.3622Y-7.1811
X4.7953Y-6.8976
X4.7953Y-7.1811
X5.252Y-4.0945
X5.2677Y-6.8898
X5.2677Y-7.1732
X5.5354Y-4.0945
X5.7087Y-6.8976
X5.7087Y-7.1811
M30
