%TF.GenerationSoftware,KiCad,Pcbnew,7.0.10*%
%TF.CreationDate,2024-04-17T23:56:12-04:00*%
%TF.ProjectId,BoardDesign,426f6172-6444-4657-9369-676e2e6b6963,rev?*%
%TF.SameCoordinates,Original*%
%TF.FileFunction,Legend,Top*%
%TF.FilePolarity,Positive*%
%FSLAX46Y46*%
G04 Gerber Fmt 4.6, Leading zero omitted, Abs format (unit mm)*
G04 Created by KiCad (PCBNEW 7.0.10) date 2024-04-17 23:56:12*
%MOMM*%
%LPD*%
G01*
G04 APERTURE LIST*
%ADD10C,0.150000*%
%ADD11C,0.200000*%
%ADD12C,0.300000*%
%ADD13C,0.100000*%
%ADD14C,0.120000*%
%ADD15C,0.152400*%
G04 APERTURE END LIST*
D10*
X156860588Y-117917438D02*
X156765350Y-117869819D01*
X156765350Y-117869819D02*
X156622493Y-117869819D01*
X156622493Y-117869819D02*
X156479636Y-117917438D01*
X156479636Y-117917438D02*
X156384398Y-118012676D01*
X156384398Y-118012676D02*
X156336779Y-118107914D01*
X156336779Y-118107914D02*
X156289160Y-118298390D01*
X156289160Y-118298390D02*
X156289160Y-118441247D01*
X156289160Y-118441247D02*
X156336779Y-118631723D01*
X156336779Y-118631723D02*
X156384398Y-118726961D01*
X156384398Y-118726961D02*
X156479636Y-118822200D01*
X156479636Y-118822200D02*
X156622493Y-118869819D01*
X156622493Y-118869819D02*
X156717731Y-118869819D01*
X156717731Y-118869819D02*
X156860588Y-118822200D01*
X156860588Y-118822200D02*
X156908207Y-118774580D01*
X156908207Y-118774580D02*
X156908207Y-118441247D01*
X156908207Y-118441247D02*
X156717731Y-118441247D01*
X157336779Y-118869819D02*
X157336779Y-117869819D01*
X157336779Y-117869819D02*
X157908207Y-118869819D01*
X157908207Y-118869819D02*
X157908207Y-117869819D01*
X158384398Y-118869819D02*
X158384398Y-117869819D01*
X158384398Y-117869819D02*
X158622493Y-117869819D01*
X158622493Y-117869819D02*
X158765350Y-117917438D01*
X158765350Y-117917438D02*
X158860588Y-118012676D01*
X158860588Y-118012676D02*
X158908207Y-118107914D01*
X158908207Y-118107914D02*
X158955826Y-118298390D01*
X158955826Y-118298390D02*
X158955826Y-118441247D01*
X158955826Y-118441247D02*
X158908207Y-118631723D01*
X158908207Y-118631723D02*
X158860588Y-118726961D01*
X158860588Y-118726961D02*
X158765350Y-118822200D01*
X158765350Y-118822200D02*
X158622493Y-118869819D01*
X158622493Y-118869819D02*
X158384398Y-118869819D01*
X157312969Y-114869819D02*
X156836779Y-114869819D01*
X156836779Y-114869819D02*
X156789160Y-115346009D01*
X156789160Y-115346009D02*
X156836779Y-115298390D01*
X156836779Y-115298390D02*
X156932017Y-115250771D01*
X156932017Y-115250771D02*
X157170112Y-115250771D01*
X157170112Y-115250771D02*
X157265350Y-115298390D01*
X157265350Y-115298390D02*
X157312969Y-115346009D01*
X157312969Y-115346009D02*
X157360588Y-115441247D01*
X157360588Y-115441247D02*
X157360588Y-115679342D01*
X157360588Y-115679342D02*
X157312969Y-115774580D01*
X157312969Y-115774580D02*
X157265350Y-115822200D01*
X157265350Y-115822200D02*
X157170112Y-115869819D01*
X157170112Y-115869819D02*
X156932017Y-115869819D01*
X156932017Y-115869819D02*
X156836779Y-115822200D01*
X156836779Y-115822200D02*
X156789160Y-115774580D01*
X157646303Y-114869819D02*
X157979636Y-115869819D01*
X157979636Y-115869819D02*
X158312969Y-114869819D01*
X100000000Y-136500000D02*
X101000000Y-136500000D01*
X117000000Y-144500000D02*
X118000000Y-144500000D01*
X148500000Y-144000000D02*
X149500000Y-144000000D01*
D11*
X146000000Y-143000000D02*
G75*
G03*
X145800000Y-143000000I-100000J0D01*
G01*
X145800000Y-143000000D02*
G75*
G03*
X146000000Y-143000000I100000J0D01*
G01*
X119900000Y-162400000D02*
G75*
G03*
X119700000Y-162400000I-100000J0D01*
G01*
X119700000Y-162400000D02*
G75*
G03*
X119900000Y-162400000I100000J0D01*
G01*
X139800000Y-128800000D02*
G75*
G03*
X139600000Y-128800000I-100000J0D01*
G01*
X139600000Y-128800000D02*
G75*
G03*
X139800000Y-128800000I100000J0D01*
G01*
X120000000Y-119400000D02*
G75*
G03*
X119800000Y-119400000I-100000J0D01*
G01*
X119800000Y-119400000D02*
G75*
G03*
X120000000Y-119400000I100000J0D01*
G01*
X142900000Y-162400000D02*
G75*
G03*
X142700000Y-162400000I-100000J0D01*
G01*
X142700000Y-162400000D02*
G75*
G03*
X142900000Y-162400000I100000J0D01*
G01*
D10*
X110520711Y-131200000D02*
G75*
G03*
X110379289Y-131200000I-70711J0D01*
G01*
X110379289Y-131200000D02*
G75*
G03*
X110520711Y-131200000I70711J0D01*
G01*
D11*
X116600000Y-131900000D02*
G75*
G03*
X116400000Y-131900000I-100000J0D01*
G01*
X116400000Y-131900000D02*
G75*
G03*
X116600000Y-131900000I100000J0D01*
G01*
D10*
X100086779Y-158119819D02*
X100086779Y-157119819D01*
X100086779Y-157119819D02*
X100467731Y-157119819D01*
X100467731Y-157119819D02*
X100562969Y-157167438D01*
X100562969Y-157167438D02*
X100610588Y-157215057D01*
X100610588Y-157215057D02*
X100658207Y-157310295D01*
X100658207Y-157310295D02*
X100658207Y-157453152D01*
X100658207Y-157453152D02*
X100610588Y-157548390D01*
X100610588Y-157548390D02*
X100562969Y-157596009D01*
X100562969Y-157596009D02*
X100467731Y-157643628D01*
X100467731Y-157643628D02*
X100086779Y-157643628D01*
X100991541Y-157119819D02*
X101229636Y-158119819D01*
X101229636Y-158119819D02*
X101420112Y-157405533D01*
X101420112Y-157405533D02*
X101610588Y-158119819D01*
X101610588Y-158119819D02*
X101848684Y-157119819D01*
X102229636Y-158119819D02*
X102229636Y-157119819D01*
X102229636Y-157119819D02*
X102562969Y-157834104D01*
X102562969Y-157834104D02*
X102896302Y-157119819D01*
X102896302Y-157119819D02*
X102896302Y-158119819D01*
D12*
X120054510Y-99429400D02*
X121197368Y-99429400D01*
X120625939Y-100000828D02*
X120625939Y-98857971D01*
D11*
X100203006Y-138341695D02*
X99822054Y-138341695D01*
X99822054Y-138341695D02*
X99822054Y-137541695D01*
X100469673Y-137922647D02*
X100736339Y-137922647D01*
X100850625Y-138341695D02*
X100469673Y-138341695D01*
X100469673Y-138341695D02*
X100469673Y-137541695D01*
X100469673Y-137541695D02*
X100850625Y-137541695D01*
X101193483Y-138341695D02*
X101193483Y-137541695D01*
X101193483Y-137541695D02*
X101383959Y-137541695D01*
X101383959Y-137541695D02*
X101498245Y-137579790D01*
X101498245Y-137579790D02*
X101574435Y-137655980D01*
X101574435Y-137655980D02*
X101612530Y-137732171D01*
X101612530Y-137732171D02*
X101650626Y-137884552D01*
X101650626Y-137884552D02*
X101650626Y-137998838D01*
X101650626Y-137998838D02*
X101612530Y-138151219D01*
X101612530Y-138151219D02*
X101574435Y-138227409D01*
X101574435Y-138227409D02*
X101498245Y-138303600D01*
X101498245Y-138303600D02*
X101383959Y-138341695D01*
X101383959Y-138341695D02*
X101193483Y-138341695D01*
X100033958Y-131053600D02*
X100148244Y-131091695D01*
X100148244Y-131091695D02*
X100338720Y-131091695D01*
X100338720Y-131091695D02*
X100414911Y-131053600D01*
X100414911Y-131053600D02*
X100453006Y-131015504D01*
X100453006Y-131015504D02*
X100491101Y-130939314D01*
X100491101Y-130939314D02*
X100491101Y-130863123D01*
X100491101Y-130863123D02*
X100453006Y-130786933D01*
X100453006Y-130786933D02*
X100414911Y-130748838D01*
X100414911Y-130748838D02*
X100338720Y-130710742D01*
X100338720Y-130710742D02*
X100186339Y-130672647D01*
X100186339Y-130672647D02*
X100110149Y-130634552D01*
X100110149Y-130634552D02*
X100072054Y-130596457D01*
X100072054Y-130596457D02*
X100033958Y-130520266D01*
X100033958Y-130520266D02*
X100033958Y-130444076D01*
X100033958Y-130444076D02*
X100072054Y-130367885D01*
X100072054Y-130367885D02*
X100110149Y-130329790D01*
X100110149Y-130329790D02*
X100186339Y-130291695D01*
X100186339Y-130291695D02*
X100376816Y-130291695D01*
X100376816Y-130291695D02*
X100491101Y-130329790D01*
X100757768Y-130291695D02*
X100948244Y-131091695D01*
X100948244Y-131091695D02*
X101100625Y-130520266D01*
X101100625Y-130520266D02*
X101253006Y-131091695D01*
X101253006Y-131091695D02*
X101443483Y-130291695D01*
X101748245Y-131091695D02*
X101748245Y-130291695D01*
X101748245Y-130291695D02*
X101938721Y-130291695D01*
X101938721Y-130291695D02*
X102053007Y-130329790D01*
X102053007Y-130329790D02*
X102129197Y-130405980D01*
X102129197Y-130405980D02*
X102167292Y-130482171D01*
X102167292Y-130482171D02*
X102205388Y-130634552D01*
X102205388Y-130634552D02*
X102205388Y-130748838D01*
X102205388Y-130748838D02*
X102167292Y-130901219D01*
X102167292Y-130901219D02*
X102129197Y-130977409D01*
X102129197Y-130977409D02*
X102053007Y-131053600D01*
X102053007Y-131053600D02*
X101938721Y-131091695D01*
X101938721Y-131091695D02*
X101748245Y-131091695D01*
X102279197Y-122841695D02*
X102012530Y-122460742D01*
X101822054Y-122841695D02*
X101822054Y-122041695D01*
X101822054Y-122041695D02*
X102126816Y-122041695D01*
X102126816Y-122041695D02*
X102203006Y-122079790D01*
X102203006Y-122079790D02*
X102241101Y-122117885D01*
X102241101Y-122117885D02*
X102279197Y-122194076D01*
X102279197Y-122194076D02*
X102279197Y-122308361D01*
X102279197Y-122308361D02*
X102241101Y-122384552D01*
X102241101Y-122384552D02*
X102203006Y-122422647D01*
X102203006Y-122422647D02*
X102126816Y-122460742D01*
X102126816Y-122460742D02*
X101822054Y-122460742D01*
X102622054Y-122041695D02*
X102622054Y-122689314D01*
X102622054Y-122689314D02*
X102660149Y-122765504D01*
X102660149Y-122765504D02*
X102698244Y-122803600D01*
X102698244Y-122803600D02*
X102774435Y-122841695D01*
X102774435Y-122841695D02*
X102926816Y-122841695D01*
X102926816Y-122841695D02*
X103003006Y-122803600D01*
X103003006Y-122803600D02*
X103041101Y-122765504D01*
X103041101Y-122765504D02*
X103079197Y-122689314D01*
X103079197Y-122689314D02*
X103079197Y-122041695D01*
X103460149Y-122841695D02*
X103460149Y-122041695D01*
X103460149Y-122041695D02*
X103917292Y-122841695D01*
X103917292Y-122841695D02*
X103917292Y-122041695D01*
D13*
X119734836Y-134096895D02*
X119734836Y-134668323D01*
X119734836Y-134668323D02*
X119696741Y-134782609D01*
X119696741Y-134782609D02*
X119620550Y-134858800D01*
X119620550Y-134858800D02*
X119506265Y-134896895D01*
X119506265Y-134896895D02*
X119430074Y-134896895D01*
X120496741Y-134896895D02*
X120115789Y-134896895D01*
X120115789Y-134896895D02*
X120115789Y-134096895D01*
X121220551Y-134820704D02*
X121182455Y-134858800D01*
X121182455Y-134858800D02*
X121068170Y-134896895D01*
X121068170Y-134896895D02*
X120991979Y-134896895D01*
X120991979Y-134896895D02*
X120877693Y-134858800D01*
X120877693Y-134858800D02*
X120801503Y-134782609D01*
X120801503Y-134782609D02*
X120763408Y-134706419D01*
X120763408Y-134706419D02*
X120725312Y-134554038D01*
X120725312Y-134554038D02*
X120725312Y-134439752D01*
X120725312Y-134439752D02*
X120763408Y-134287371D01*
X120763408Y-134287371D02*
X120801503Y-134211180D01*
X120801503Y-134211180D02*
X120877693Y-134134990D01*
X120877693Y-134134990D02*
X120991979Y-134096895D01*
X120991979Y-134096895D02*
X121068170Y-134096895D01*
X121068170Y-134096895D02*
X121182455Y-134134990D01*
X121182455Y-134134990D02*
X121220551Y-134173085D01*
X121791979Y-134096895D02*
X121791979Y-134668323D01*
X121791979Y-134668323D02*
X121753884Y-134782609D01*
X121753884Y-134782609D02*
X121677693Y-134858800D01*
X121677693Y-134858800D02*
X121563408Y-134896895D01*
X121563408Y-134896895D02*
X121487217Y-134896895D01*
X122553884Y-134896895D02*
X122172932Y-134896895D01*
X122172932Y-134896895D02*
X122172932Y-134096895D01*
X123277694Y-134820704D02*
X123239598Y-134858800D01*
X123239598Y-134858800D02*
X123125313Y-134896895D01*
X123125313Y-134896895D02*
X123049122Y-134896895D01*
X123049122Y-134896895D02*
X122934836Y-134858800D01*
X122934836Y-134858800D02*
X122858646Y-134782609D01*
X122858646Y-134782609D02*
X122820551Y-134706419D01*
X122820551Y-134706419D02*
X122782455Y-134554038D01*
X122782455Y-134554038D02*
X122782455Y-134439752D01*
X122782455Y-134439752D02*
X122820551Y-134287371D01*
X122820551Y-134287371D02*
X122858646Y-134211180D01*
X122858646Y-134211180D02*
X122934836Y-134134990D01*
X122934836Y-134134990D02*
X123049122Y-134096895D01*
X123049122Y-134096895D02*
X123125313Y-134096895D01*
X123125313Y-134096895D02*
X123239598Y-134134990D01*
X123239598Y-134134990D02*
X123277694Y-134173085D01*
X123849122Y-134096895D02*
X123849122Y-134668323D01*
X123849122Y-134668323D02*
X123811027Y-134782609D01*
X123811027Y-134782609D02*
X123734836Y-134858800D01*
X123734836Y-134858800D02*
X123620551Y-134896895D01*
X123620551Y-134896895D02*
X123544360Y-134896895D01*
X124611027Y-134896895D02*
X124230075Y-134896895D01*
X124230075Y-134896895D02*
X124230075Y-134096895D01*
X125334837Y-134820704D02*
X125296741Y-134858800D01*
X125296741Y-134858800D02*
X125182456Y-134896895D01*
X125182456Y-134896895D02*
X125106265Y-134896895D01*
X125106265Y-134896895D02*
X124991979Y-134858800D01*
X124991979Y-134858800D02*
X124915789Y-134782609D01*
X124915789Y-134782609D02*
X124877694Y-134706419D01*
X124877694Y-134706419D02*
X124839598Y-134554038D01*
X124839598Y-134554038D02*
X124839598Y-134439752D01*
X124839598Y-134439752D02*
X124877694Y-134287371D01*
X124877694Y-134287371D02*
X124915789Y-134211180D01*
X124915789Y-134211180D02*
X124991979Y-134134990D01*
X124991979Y-134134990D02*
X125106265Y-134096895D01*
X125106265Y-134096895D02*
X125182456Y-134096895D01*
X125182456Y-134096895D02*
X125296741Y-134134990D01*
X125296741Y-134134990D02*
X125334837Y-134173085D01*
X125906265Y-134096895D02*
X125906265Y-134668323D01*
X125906265Y-134668323D02*
X125868170Y-134782609D01*
X125868170Y-134782609D02*
X125791979Y-134858800D01*
X125791979Y-134858800D02*
X125677694Y-134896895D01*
X125677694Y-134896895D02*
X125601503Y-134896895D01*
X126668170Y-134896895D02*
X126287218Y-134896895D01*
X126287218Y-134896895D02*
X126287218Y-134096895D01*
X127391980Y-134820704D02*
X127353884Y-134858800D01*
X127353884Y-134858800D02*
X127239599Y-134896895D01*
X127239599Y-134896895D02*
X127163408Y-134896895D01*
X127163408Y-134896895D02*
X127049122Y-134858800D01*
X127049122Y-134858800D02*
X126972932Y-134782609D01*
X126972932Y-134782609D02*
X126934837Y-134706419D01*
X126934837Y-134706419D02*
X126896741Y-134554038D01*
X126896741Y-134554038D02*
X126896741Y-134439752D01*
X126896741Y-134439752D02*
X126934837Y-134287371D01*
X126934837Y-134287371D02*
X126972932Y-134211180D01*
X126972932Y-134211180D02*
X127049122Y-134134990D01*
X127049122Y-134134990D02*
X127163408Y-134096895D01*
X127163408Y-134096895D02*
X127239599Y-134096895D01*
X127239599Y-134096895D02*
X127353884Y-134134990D01*
X127353884Y-134134990D02*
X127391980Y-134173085D01*
D10*
X96403990Y-164586779D02*
X96403990Y-164920112D01*
X95880180Y-165062969D02*
X95880180Y-164586779D01*
X95880180Y-164586779D02*
X96880180Y-164586779D01*
X96880180Y-164586779D02*
X96880180Y-165062969D01*
X96880180Y-165348684D02*
X96880180Y-165920112D01*
X95880180Y-165634398D02*
X96880180Y-165634398D01*
X95880180Y-167015351D02*
X96880180Y-167015351D01*
X96880180Y-167015351D02*
X95880180Y-167586779D01*
X95880180Y-167586779D02*
X96880180Y-167586779D01*
X96165895Y-168015351D02*
X96165895Y-168491541D01*
X95880180Y-167920113D02*
X96880180Y-168253446D01*
X96880180Y-168253446D02*
X95880180Y-168586779D01*
X96880180Y-168777256D02*
X95880180Y-169110589D01*
X95880180Y-169110589D02*
X96880180Y-169443922D01*
X95927800Y-169729637D02*
X95880180Y-169872494D01*
X95880180Y-169872494D02*
X95880180Y-170110589D01*
X95880180Y-170110589D02*
X95927800Y-170205827D01*
X95927800Y-170205827D02*
X95975419Y-170253446D01*
X95975419Y-170253446D02*
X96070657Y-170301065D01*
X96070657Y-170301065D02*
X96165895Y-170301065D01*
X96165895Y-170301065D02*
X96261133Y-170253446D01*
X96261133Y-170253446D02*
X96308752Y-170205827D01*
X96308752Y-170205827D02*
X96356371Y-170110589D01*
X96356371Y-170110589D02*
X96403990Y-169920113D01*
X96403990Y-169920113D02*
X96451609Y-169824875D01*
X96451609Y-169824875D02*
X96499228Y-169777256D01*
X96499228Y-169777256D02*
X96594466Y-169729637D01*
X96594466Y-169729637D02*
X96689704Y-169729637D01*
X96689704Y-169729637D02*
X96784942Y-169777256D01*
X96784942Y-169777256D02*
X96832561Y-169824875D01*
X96832561Y-169824875D02*
X96880180Y-169920113D01*
X96880180Y-169920113D02*
X96880180Y-170158208D01*
X96880180Y-170158208D02*
X96832561Y-170301065D01*
X96880180Y-170634399D02*
X95880180Y-170872494D01*
X95880180Y-170872494D02*
X96594466Y-171062970D01*
X96594466Y-171062970D02*
X95880180Y-171253446D01*
X95880180Y-171253446D02*
X96880180Y-171491542D01*
X96165895Y-171824875D02*
X96165895Y-172301065D01*
X95880180Y-171729637D02*
X96880180Y-172062970D01*
X96880180Y-172062970D02*
X95880180Y-172396303D01*
X95880180Y-173301065D02*
X96356371Y-172967732D01*
X95880180Y-172729637D02*
X96880180Y-172729637D01*
X96880180Y-172729637D02*
X96880180Y-173110589D01*
X96880180Y-173110589D02*
X96832561Y-173205827D01*
X96832561Y-173205827D02*
X96784942Y-173253446D01*
X96784942Y-173253446D02*
X96689704Y-173301065D01*
X96689704Y-173301065D02*
X96546847Y-173301065D01*
X96546847Y-173301065D02*
X96451609Y-173253446D01*
X96451609Y-173253446D02*
X96403990Y-173205827D01*
X96403990Y-173205827D02*
X96356371Y-173110589D01*
X96356371Y-173110589D02*
X96356371Y-172729637D01*
X95880180Y-173729637D02*
X96880180Y-173729637D01*
X96880180Y-173729637D02*
X96165895Y-174062970D01*
X96165895Y-174062970D02*
X96880180Y-174396303D01*
X96880180Y-174396303D02*
X95880180Y-174396303D01*
D11*
X104572054Y-150041695D02*
X104572054Y-150689314D01*
X104572054Y-150689314D02*
X104610149Y-150765504D01*
X104610149Y-150765504D02*
X104648244Y-150803600D01*
X104648244Y-150803600D02*
X104724435Y-150841695D01*
X104724435Y-150841695D02*
X104876816Y-150841695D01*
X104876816Y-150841695D02*
X104953006Y-150803600D01*
X104953006Y-150803600D02*
X104991101Y-150765504D01*
X104991101Y-150765504D02*
X105029197Y-150689314D01*
X105029197Y-150689314D02*
X105029197Y-150041695D01*
X105372053Y-150613123D02*
X105753006Y-150613123D01*
X105295863Y-150841695D02*
X105562530Y-150041695D01*
X105562530Y-150041695D02*
X105829196Y-150841695D01*
X106553006Y-150841695D02*
X106286339Y-150460742D01*
X106095863Y-150841695D02*
X106095863Y-150041695D01*
X106095863Y-150041695D02*
X106400625Y-150041695D01*
X106400625Y-150041695D02*
X106476815Y-150079790D01*
X106476815Y-150079790D02*
X106514910Y-150117885D01*
X106514910Y-150117885D02*
X106553006Y-150194076D01*
X106553006Y-150194076D02*
X106553006Y-150308361D01*
X106553006Y-150308361D02*
X106514910Y-150384552D01*
X106514910Y-150384552D02*
X106476815Y-150422647D01*
X106476815Y-150422647D02*
X106400625Y-150460742D01*
X106400625Y-150460742D02*
X106095863Y-150460742D01*
X106781577Y-150041695D02*
X107238720Y-150041695D01*
X107010148Y-150841695D02*
X107010148Y-150041695D01*
X108076815Y-150003600D02*
X107391101Y-151032171D01*
X108343482Y-150841695D02*
X108343482Y-150041695D01*
X108686338Y-150117885D02*
X108724434Y-150079790D01*
X108724434Y-150079790D02*
X108800624Y-150041695D01*
X108800624Y-150041695D02*
X108991100Y-150041695D01*
X108991100Y-150041695D02*
X109067291Y-150079790D01*
X109067291Y-150079790D02*
X109105386Y-150117885D01*
X109105386Y-150117885D02*
X109143481Y-150194076D01*
X109143481Y-150194076D02*
X109143481Y-150270266D01*
X109143481Y-150270266D02*
X109105386Y-150384552D01*
X109105386Y-150384552D02*
X108648243Y-150841695D01*
X108648243Y-150841695D02*
X109143481Y-150841695D01*
X109943482Y-150765504D02*
X109905386Y-150803600D01*
X109905386Y-150803600D02*
X109791101Y-150841695D01*
X109791101Y-150841695D02*
X109714910Y-150841695D01*
X109714910Y-150841695D02*
X109600624Y-150803600D01*
X109600624Y-150803600D02*
X109524434Y-150727409D01*
X109524434Y-150727409D02*
X109486339Y-150651219D01*
X109486339Y-150651219D02*
X109448243Y-150498838D01*
X109448243Y-150498838D02*
X109448243Y-150384552D01*
X109448243Y-150384552D02*
X109486339Y-150232171D01*
X109486339Y-150232171D02*
X109524434Y-150155980D01*
X109524434Y-150155980D02*
X109600624Y-150079790D01*
X109600624Y-150079790D02*
X109714910Y-150041695D01*
X109714910Y-150041695D02*
X109791101Y-150041695D01*
X109791101Y-150041695D02*
X109905386Y-150079790D01*
X109905386Y-150079790D02*
X109943482Y-150117885D01*
X102088720Y-114672647D02*
X102203006Y-114710742D01*
X102203006Y-114710742D02*
X102241101Y-114748838D01*
X102241101Y-114748838D02*
X102279197Y-114825028D01*
X102279197Y-114825028D02*
X102279197Y-114939314D01*
X102279197Y-114939314D02*
X102241101Y-115015504D01*
X102241101Y-115015504D02*
X102203006Y-115053600D01*
X102203006Y-115053600D02*
X102126816Y-115091695D01*
X102126816Y-115091695D02*
X101822054Y-115091695D01*
X101822054Y-115091695D02*
X101822054Y-114291695D01*
X101822054Y-114291695D02*
X102088720Y-114291695D01*
X102088720Y-114291695D02*
X102164911Y-114329790D01*
X102164911Y-114329790D02*
X102203006Y-114367885D01*
X102203006Y-114367885D02*
X102241101Y-114444076D01*
X102241101Y-114444076D02*
X102241101Y-114520266D01*
X102241101Y-114520266D02*
X102203006Y-114596457D01*
X102203006Y-114596457D02*
X102164911Y-114634552D01*
X102164911Y-114634552D02*
X102088720Y-114672647D01*
X102088720Y-114672647D02*
X101822054Y-114672647D01*
X102774435Y-114291695D02*
X102926816Y-114291695D01*
X102926816Y-114291695D02*
X103003006Y-114329790D01*
X103003006Y-114329790D02*
X103079197Y-114405980D01*
X103079197Y-114405980D02*
X103117292Y-114558361D01*
X103117292Y-114558361D02*
X103117292Y-114825028D01*
X103117292Y-114825028D02*
X103079197Y-114977409D01*
X103079197Y-114977409D02*
X103003006Y-115053600D01*
X103003006Y-115053600D02*
X102926816Y-115091695D01*
X102926816Y-115091695D02*
X102774435Y-115091695D01*
X102774435Y-115091695D02*
X102698244Y-115053600D01*
X102698244Y-115053600D02*
X102622054Y-114977409D01*
X102622054Y-114977409D02*
X102583958Y-114825028D01*
X102583958Y-114825028D02*
X102583958Y-114558361D01*
X102583958Y-114558361D02*
X102622054Y-114405980D01*
X102622054Y-114405980D02*
X102698244Y-114329790D01*
X102698244Y-114329790D02*
X102774435Y-114291695D01*
X103612530Y-114291695D02*
X103764911Y-114291695D01*
X103764911Y-114291695D02*
X103841101Y-114329790D01*
X103841101Y-114329790D02*
X103917292Y-114405980D01*
X103917292Y-114405980D02*
X103955387Y-114558361D01*
X103955387Y-114558361D02*
X103955387Y-114825028D01*
X103955387Y-114825028D02*
X103917292Y-114977409D01*
X103917292Y-114977409D02*
X103841101Y-115053600D01*
X103841101Y-115053600D02*
X103764911Y-115091695D01*
X103764911Y-115091695D02*
X103612530Y-115091695D01*
X103612530Y-115091695D02*
X103536339Y-115053600D01*
X103536339Y-115053600D02*
X103460149Y-114977409D01*
X103460149Y-114977409D02*
X103422053Y-114825028D01*
X103422053Y-114825028D02*
X103422053Y-114558361D01*
X103422053Y-114558361D02*
X103460149Y-114405980D01*
X103460149Y-114405980D02*
X103536339Y-114329790D01*
X103536339Y-114329790D02*
X103612530Y-114291695D01*
X104183958Y-114291695D02*
X104641101Y-114291695D01*
X104412529Y-115091695D02*
X104412529Y-114291695D01*
D12*
X110054510Y-99429400D02*
X111197368Y-99429400D01*
D10*
X158869819Y-173163220D02*
X157869819Y-173163220D01*
X157869819Y-173163220D02*
X158869819Y-172591792D01*
X158869819Y-172591792D02*
X157869819Y-172591792D01*
X158869819Y-172115601D02*
X157869819Y-172115601D01*
X158774580Y-171067983D02*
X158822200Y-171115602D01*
X158822200Y-171115602D02*
X158869819Y-171258459D01*
X158869819Y-171258459D02*
X158869819Y-171353697D01*
X158869819Y-171353697D02*
X158822200Y-171496554D01*
X158822200Y-171496554D02*
X158726961Y-171591792D01*
X158726961Y-171591792D02*
X158631723Y-171639411D01*
X158631723Y-171639411D02*
X158441247Y-171687030D01*
X158441247Y-171687030D02*
X158298390Y-171687030D01*
X158298390Y-171687030D02*
X158107914Y-171639411D01*
X158107914Y-171639411D02*
X158012676Y-171591792D01*
X158012676Y-171591792D02*
X157917438Y-171496554D01*
X157917438Y-171496554D02*
X157869819Y-171353697D01*
X157869819Y-171353697D02*
X157869819Y-171258459D01*
X157869819Y-171258459D02*
X157917438Y-171115602D01*
X157917438Y-171115602D02*
X157965057Y-171067983D01*
X158869819Y-170639411D02*
X157869819Y-170639411D01*
X158869819Y-170067983D02*
X158298390Y-170496554D01*
X157869819Y-170067983D02*
X158441247Y-170639411D01*
X158822200Y-168925125D02*
X158869819Y-168782268D01*
X158869819Y-168782268D02*
X158869819Y-168544173D01*
X158869819Y-168544173D02*
X158822200Y-168448935D01*
X158822200Y-168448935D02*
X158774580Y-168401316D01*
X158774580Y-168401316D02*
X158679342Y-168353697D01*
X158679342Y-168353697D02*
X158584104Y-168353697D01*
X158584104Y-168353697D02*
X158488866Y-168401316D01*
X158488866Y-168401316D02*
X158441247Y-168448935D01*
X158441247Y-168448935D02*
X158393628Y-168544173D01*
X158393628Y-168544173D02*
X158346009Y-168734649D01*
X158346009Y-168734649D02*
X158298390Y-168829887D01*
X158298390Y-168829887D02*
X158250771Y-168877506D01*
X158250771Y-168877506D02*
X158155533Y-168925125D01*
X158155533Y-168925125D02*
X158060295Y-168925125D01*
X158060295Y-168925125D02*
X157965057Y-168877506D01*
X157965057Y-168877506D02*
X157917438Y-168829887D01*
X157917438Y-168829887D02*
X157869819Y-168734649D01*
X157869819Y-168734649D02*
X157869819Y-168496554D01*
X157869819Y-168496554D02*
X157917438Y-168353697D01*
X158869819Y-167925125D02*
X157869819Y-167925125D01*
X157869819Y-167925125D02*
X158869819Y-167353697D01*
X158869819Y-167353697D02*
X157869819Y-167353697D01*
X158393628Y-166687030D02*
X158869819Y-166687030D01*
X157869819Y-167020363D02*
X158393628Y-166687030D01*
X158393628Y-166687030D02*
X157869819Y-166353697D01*
X158869819Y-166020363D02*
X157869819Y-166020363D01*
X157869819Y-166020363D02*
X157869819Y-165782268D01*
X157869819Y-165782268D02*
X157917438Y-165639411D01*
X157917438Y-165639411D02*
X158012676Y-165544173D01*
X158012676Y-165544173D02*
X158107914Y-165496554D01*
X158107914Y-165496554D02*
X158298390Y-165448935D01*
X158298390Y-165448935D02*
X158441247Y-165448935D01*
X158441247Y-165448935D02*
X158631723Y-165496554D01*
X158631723Y-165496554D02*
X158726961Y-165544173D01*
X158726961Y-165544173D02*
X158822200Y-165639411D01*
X158822200Y-165639411D02*
X158869819Y-165782268D01*
X158869819Y-165782268D02*
X158869819Y-166020363D01*
X158346009Y-165020363D02*
X158346009Y-164687030D01*
X158869819Y-164544173D02*
X158869819Y-165020363D01*
X158869819Y-165020363D02*
X157869819Y-165020363D01*
X157869819Y-165020363D02*
X157869819Y-164544173D01*
X158869819Y-163544173D02*
X158393628Y-163877506D01*
X158869819Y-164115601D02*
X157869819Y-164115601D01*
X157869819Y-164115601D02*
X157869819Y-163734649D01*
X157869819Y-163734649D02*
X157917438Y-163639411D01*
X157917438Y-163639411D02*
X157965057Y-163591792D01*
X157965057Y-163591792D02*
X158060295Y-163544173D01*
X158060295Y-163544173D02*
X158203152Y-163544173D01*
X158203152Y-163544173D02*
X158298390Y-163591792D01*
X158298390Y-163591792D02*
X158346009Y-163639411D01*
X158346009Y-163639411D02*
X158393628Y-163734649D01*
X158393628Y-163734649D02*
X158393628Y-164115601D01*
X149754819Y-179609523D02*
X150469104Y-179609523D01*
X150469104Y-179609523D02*
X150611961Y-179657142D01*
X150611961Y-179657142D02*
X150707200Y-179752380D01*
X150707200Y-179752380D02*
X150754819Y-179895237D01*
X150754819Y-179895237D02*
X150754819Y-179990475D01*
X150754819Y-178609523D02*
X150754819Y-179180951D01*
X150754819Y-178895237D02*
X149754819Y-178895237D01*
X149754819Y-178895237D02*
X149897676Y-178990475D01*
X149897676Y-178990475D02*
X149992914Y-179085713D01*
X149992914Y-179085713D02*
X150040533Y-179180951D01*
X150754819Y-177657142D02*
X150754819Y-178228570D01*
X150754819Y-177942856D02*
X149754819Y-177942856D01*
X149754819Y-177942856D02*
X149897676Y-178038094D01*
X149897676Y-178038094D02*
X149992914Y-178133332D01*
X149992914Y-178133332D02*
X150040533Y-178228570D01*
X126554819Y-179609523D02*
X127269104Y-179609523D01*
X127269104Y-179609523D02*
X127411961Y-179657142D01*
X127411961Y-179657142D02*
X127507200Y-179752380D01*
X127507200Y-179752380D02*
X127554819Y-179895237D01*
X127554819Y-179895237D02*
X127554819Y-179990475D01*
X127554819Y-178609523D02*
X127554819Y-179180951D01*
X127554819Y-178895237D02*
X126554819Y-178895237D01*
X126554819Y-178895237D02*
X126697676Y-178990475D01*
X126697676Y-178990475D02*
X126792914Y-179085713D01*
X126792914Y-179085713D02*
X126840533Y-179180951D01*
X126888152Y-177752380D02*
X127554819Y-177752380D01*
X126507200Y-177990475D02*
X127221485Y-178228570D01*
X127221485Y-178228570D02*
X127221485Y-177609523D01*
X115554819Y-179609523D02*
X116269104Y-179609523D01*
X116269104Y-179609523D02*
X116411961Y-179657142D01*
X116411961Y-179657142D02*
X116507200Y-179752380D01*
X116507200Y-179752380D02*
X116554819Y-179895237D01*
X116554819Y-179895237D02*
X116554819Y-179990475D01*
X116554819Y-178609523D02*
X116554819Y-179180951D01*
X116554819Y-178895237D02*
X115554819Y-178895237D01*
X115554819Y-178895237D02*
X115697676Y-178990475D01*
X115697676Y-178990475D02*
X115792914Y-179085713D01*
X115792914Y-179085713D02*
X115840533Y-179180951D01*
X115554819Y-178276189D02*
X115554819Y-177657142D01*
X115554819Y-177657142D02*
X115935771Y-177990475D01*
X115935771Y-177990475D02*
X115935771Y-177847618D01*
X115935771Y-177847618D02*
X115983390Y-177752380D01*
X115983390Y-177752380D02*
X116031009Y-177704761D01*
X116031009Y-177704761D02*
X116126247Y-177657142D01*
X116126247Y-177657142D02*
X116364342Y-177657142D01*
X116364342Y-177657142D02*
X116459580Y-177704761D01*
X116459580Y-177704761D02*
X116507200Y-177752380D01*
X116507200Y-177752380D02*
X116554819Y-177847618D01*
X116554819Y-177847618D02*
X116554819Y-178133332D01*
X116554819Y-178133332D02*
X116507200Y-178228570D01*
X116507200Y-178228570D02*
X116459580Y-178276189D01*
X138554819Y-179409523D02*
X139269104Y-179409523D01*
X139269104Y-179409523D02*
X139411961Y-179457142D01*
X139411961Y-179457142D02*
X139507200Y-179552380D01*
X139507200Y-179552380D02*
X139554819Y-179695237D01*
X139554819Y-179695237D02*
X139554819Y-179790475D01*
X139554819Y-178409523D02*
X139554819Y-178980951D01*
X139554819Y-178695237D02*
X138554819Y-178695237D01*
X138554819Y-178695237D02*
X138697676Y-178790475D01*
X138697676Y-178790475D02*
X138792914Y-178885713D01*
X138792914Y-178885713D02*
X138840533Y-178980951D01*
X138554819Y-177790475D02*
X138554819Y-177695237D01*
X138554819Y-177695237D02*
X138602438Y-177599999D01*
X138602438Y-177599999D02*
X138650057Y-177552380D01*
X138650057Y-177552380D02*
X138745295Y-177504761D01*
X138745295Y-177504761D02*
X138935771Y-177457142D01*
X138935771Y-177457142D02*
X139173866Y-177457142D01*
X139173866Y-177457142D02*
X139364342Y-177504761D01*
X139364342Y-177504761D02*
X139459580Y-177552380D01*
X139459580Y-177552380D02*
X139507200Y-177599999D01*
X139507200Y-177599999D02*
X139554819Y-177695237D01*
X139554819Y-177695237D02*
X139554819Y-177790475D01*
X139554819Y-177790475D02*
X139507200Y-177885713D01*
X139507200Y-177885713D02*
X139459580Y-177933332D01*
X139459580Y-177933332D02*
X139364342Y-177980951D01*
X139364342Y-177980951D02*
X139173866Y-178028570D01*
X139173866Y-178028570D02*
X138935771Y-178028570D01*
X138935771Y-178028570D02*
X138745295Y-177980951D01*
X138745295Y-177980951D02*
X138650057Y-177933332D01*
X138650057Y-177933332D02*
X138602438Y-177885713D01*
X138602438Y-177885713D02*
X138554819Y-177790475D01*
D14*
%TO.C,C16*%
X152186252Y-158007000D02*
X150763748Y-158007000D01*
X152186252Y-156187000D02*
X150763748Y-156187000D01*
%TO.C,C17*%
X152186252Y-155007000D02*
X150763748Y-155007000D01*
X152186252Y-153187000D02*
X150763748Y-153187000D01*
%TO.C,L3*%
X148740000Y-120740000D02*
X155260000Y-120740000D01*
X148740000Y-127260000D02*
X155260000Y-127260000D01*
X148740000Y-120740000D02*
X148740000Y-120890000D01*
X155260000Y-120740000D02*
X155260000Y-120890000D01*
X148740000Y-127260000D02*
X148740000Y-127110000D01*
X155260000Y-127260000D02*
X155260000Y-127110000D01*
%TO.C,L2*%
X158560000Y-144265000D02*
X158560000Y-151785000D01*
X151440000Y-144265000D02*
X151440000Y-151785000D01*
X158560000Y-144265000D02*
X157010000Y-144265000D01*
X158560000Y-151785000D02*
X157010000Y-151785000D01*
X151440000Y-144265000D02*
X152990000Y-144265000D01*
X151440000Y-151785000D02*
X152990000Y-151785000D01*
%TO.C,J7*%
X95720000Y-124230000D02*
X96850000Y-124230000D01*
X95720000Y-124990000D02*
X95720000Y-124230000D01*
X95720000Y-125750000D02*
X95720000Y-130765000D01*
X95720000Y-125750000D02*
X96286529Y-125750000D01*
X95720000Y-130765000D02*
X96542470Y-130765000D01*
X97157530Y-130765000D02*
X97812470Y-130765000D01*
X97413471Y-125750000D02*
X97556529Y-125750000D01*
X97610000Y-124295000D02*
X97812470Y-124295000D01*
X97610000Y-124426529D02*
X97610000Y-124295000D01*
X97610000Y-125696529D02*
X97610000Y-125553471D01*
X98427530Y-124295000D02*
X99250000Y-124295000D01*
X98427530Y-130765000D02*
X99250000Y-130765000D01*
X99250000Y-124295000D02*
X99250000Y-130765000D01*
%TO.C,R11*%
X136176081Y-116937742D02*
X136176081Y-117412258D01*
X135131081Y-116937742D02*
X135131081Y-117412258D01*
%TO.C,R19*%
X114944082Y-110325742D02*
X114944082Y-110800258D01*
X113899082Y-110325742D02*
X113899082Y-110800258D01*
%TO.C,R17*%
X118262742Y-112477500D02*
X118737258Y-112477500D01*
X118262742Y-113522500D02*
X118737258Y-113522500D01*
%TO.C,C3*%
X117365580Y-129760000D02*
X117084420Y-129760000D01*
X117365580Y-128740000D02*
X117084420Y-128740000D01*
%TO.C,J6*%
X98689581Y-157821000D02*
X97359581Y-157821000D01*
X98689581Y-156491000D02*
X98689581Y-157821000D01*
X98689581Y-155221000D02*
X98689581Y-152621000D01*
X98689581Y-155221000D02*
X96029581Y-155221000D01*
X98689581Y-152621000D02*
X96029581Y-152621000D01*
X96029581Y-155221000D02*
X96029581Y-152621000D01*
%TO.C,R2*%
X115643641Y-135143000D02*
X115336359Y-135143000D01*
X115643641Y-134383000D02*
X115336359Y-134383000D01*
%TO.C,U4*%
X145510000Y-145062500D02*
X145510000Y-143262500D01*
X145510000Y-145062500D02*
X145510000Y-145862500D01*
X142390000Y-145062500D02*
X142390000Y-144262500D01*
X142390000Y-145062500D02*
X142390000Y-145862500D01*
%TO.C,U2*%
X140053581Y-124660000D02*
X140053581Y-128110000D01*
X140053581Y-124660000D02*
X140053581Y-122710000D01*
X145173581Y-124660000D02*
X145173581Y-126610000D01*
X145173581Y-124660000D02*
X145173581Y-122710000D01*
%TO.C,C1*%
X128084420Y-142740000D02*
X128365580Y-142740000D01*
X128084420Y-143760000D02*
X128365580Y-143760000D01*
%TO.C,R13*%
X106931839Y-144567500D02*
X106457323Y-144567500D01*
X106931839Y-143522500D02*
X106457323Y-143522500D01*
%TO.C,C18*%
X142942329Y-130090000D02*
X144364833Y-130090000D01*
X142942329Y-131910000D02*
X144364833Y-131910000D01*
%TO.C,C8*%
X119702164Y-127903000D02*
X119917836Y-127903000D01*
X119702164Y-128623000D02*
X119917836Y-128623000D01*
%TO.C,R20*%
X118246082Y-110325742D02*
X118246082Y-110800258D01*
X117201082Y-110325742D02*
X117201082Y-110800258D01*
%TO.C,C6*%
X128758745Y-141390000D02*
X128974417Y-141390000D01*
X128758745Y-142110000D02*
X128974417Y-142110000D01*
%TO.C,C4*%
X117127836Y-131110000D02*
X116912164Y-131110000D01*
X117127836Y-130390000D02*
X116912164Y-130390000D01*
%TO.C,J8*%
X144850000Y-105600000D02*
X144850000Y-102450000D01*
X144850000Y-102450000D02*
X142000000Y-99850000D01*
X142000000Y-108150000D02*
X144850000Y-105600000D01*
X142000000Y-99850000D02*
X129150000Y-99850000D01*
X129150000Y-108150000D02*
X142000000Y-108150000D01*
X129150000Y-99850000D02*
X129150000Y-108150000D01*
%TO.C,R5*%
X115331081Y-121286258D02*
X115331081Y-120811742D01*
X116376081Y-121286258D02*
X116376081Y-120811742D01*
D15*
%TO.C,U5*%
X143183000Y-162820300D02*
X142684340Y-162820300D01*
X136315660Y-162820300D02*
X135817000Y-162820300D01*
X135817000Y-162820300D02*
X135817000Y-163565660D01*
X143183000Y-163565660D02*
X143183000Y-162820300D01*
X135817000Y-167434340D02*
X135817000Y-168179700D01*
X143183000Y-168179700D02*
X143183000Y-167434340D01*
X142684340Y-168179700D02*
X143183000Y-168179700D01*
X135817000Y-168179700D02*
X136315660Y-168179700D01*
G36*
X137940501Y-162388500D02*
G01*
X137559501Y-162388500D01*
X137559501Y-162134500D01*
X137940501Y-162134500D01*
X137940501Y-162388500D01*
G37*
G36*
X141940501Y-168865500D02*
G01*
X141559501Y-168865500D01*
X141559501Y-168611500D01*
X141940501Y-168611500D01*
X141940501Y-168865500D01*
G37*
G36*
X136940500Y-168865500D02*
G01*
X136559500Y-168865500D01*
X136559500Y-168611500D01*
X136940500Y-168611500D01*
X136940500Y-168865500D01*
G37*
D14*
%TO.C,R7*%
X111422500Y-110362742D02*
X111422500Y-110837258D01*
X110377500Y-110362742D02*
X110377500Y-110837258D01*
%TO.C,C12*%
X114640000Y-132100836D02*
X114640000Y-131885164D01*
X115360000Y-132100836D02*
X115360000Y-131885164D01*
D15*
%TO.C,U6*%
X120183000Y-162820300D02*
X119684340Y-162820300D01*
X113315660Y-162820300D02*
X112817000Y-162820300D01*
X112817000Y-162820300D02*
X112817000Y-163565660D01*
X120183000Y-163565660D02*
X120183000Y-162820300D01*
X112817000Y-167434340D02*
X112817000Y-168179700D01*
X120183000Y-168179700D02*
X120183000Y-167434340D01*
X119684340Y-168179700D02*
X120183000Y-168179700D01*
X112817000Y-168179700D02*
X113315660Y-168179700D01*
G36*
X114940501Y-162388500D02*
G01*
X114559501Y-162388500D01*
X114559501Y-162134500D01*
X114940501Y-162134500D01*
X114940501Y-162388500D01*
G37*
G36*
X118940501Y-168865500D02*
G01*
X118559501Y-168865500D01*
X118559501Y-168611500D01*
X118940501Y-168611500D01*
X118940501Y-168865500D01*
G37*
G36*
X113940500Y-168865500D02*
G01*
X113559500Y-168865500D01*
X113559500Y-168611500D01*
X113940500Y-168611500D01*
X113940500Y-168865500D01*
G37*
D14*
%TO.C,R23*%
X113222500Y-110362742D02*
X113222500Y-110837258D01*
X112177500Y-110362742D02*
X112177500Y-110837258D01*
%TO.C,J11*%
X146600000Y-170950000D02*
X143450000Y-170950000D01*
X143450000Y-170950000D02*
X140850000Y-173800000D01*
X149150000Y-173800000D02*
X146600000Y-170950000D01*
X140850000Y-173800000D02*
X140850000Y-186650000D01*
X149150000Y-186650000D02*
X149150000Y-173800000D01*
X140850000Y-186650000D02*
X149150000Y-186650000D01*
%TO.C,C15*%
X147160000Y-144292164D02*
X147160000Y-144507836D01*
X146440000Y-144292164D02*
X146440000Y-144507836D01*
%TO.C,R3*%
X114824081Y-142325258D02*
X114824081Y-141850742D01*
X115869081Y-142325258D02*
X115869081Y-141850742D01*
%TO.C,C19*%
X141190000Y-116927836D02*
X141190000Y-116712164D01*
X141910000Y-116927836D02*
X141910000Y-116712164D01*
%TO.C,R10*%
X137890839Y-120522500D02*
X137416323Y-120522500D01*
X137890839Y-119477500D02*
X137416323Y-119477500D01*
%TO.C,R22*%
X111687742Y-112477500D02*
X112162258Y-112477500D01*
X111687742Y-113522500D02*
X112162258Y-113522500D01*
%TO.C,C14*%
X139090000Y-146436252D02*
X139090000Y-145013748D01*
X140910000Y-146436252D02*
X140910000Y-145013748D01*
%TO.C,C2*%
X130740000Y-131165580D02*
X130740000Y-130884420D01*
X131760000Y-131165580D02*
X131760000Y-130884420D01*
%TO.C,J14*%
X123400000Y-170950000D02*
X120250000Y-170950000D01*
X120250000Y-170950000D02*
X117650000Y-173800000D01*
X125950000Y-173800000D02*
X123400000Y-170950000D01*
X117650000Y-173800000D02*
X117650000Y-186650000D01*
X125950000Y-186650000D02*
X125950000Y-173800000D01*
X117650000Y-186650000D02*
X125950000Y-186650000D01*
%TO.C,R12*%
X139131081Y-117412258D02*
X139131081Y-116937742D01*
X140176081Y-117412258D02*
X140176081Y-116937742D01*
%TO.C,C13*%
X119141582Y-121501836D02*
X119141582Y-121286164D01*
X119861582Y-121501836D02*
X119861582Y-121286164D01*
%TO.C,J1*%
X152283581Y-114130000D02*
X153613581Y-114130000D01*
X152283581Y-115460000D02*
X152283581Y-114130000D01*
X152283581Y-116730000D02*
X152283581Y-119330000D01*
X152283581Y-116730000D02*
X154943581Y-116730000D01*
X152283581Y-119330000D02*
X154943581Y-119330000D01*
X154943581Y-116730000D02*
X154943581Y-119330000D01*
%TO.C,J2*%
X96029581Y-140175000D02*
X97359581Y-140175000D01*
X96029581Y-141505000D02*
X96029581Y-140175000D01*
X96029581Y-142775000D02*
X96029581Y-150455000D01*
X96029581Y-142775000D02*
X98689581Y-142775000D01*
X96029581Y-150455000D02*
X98689581Y-150455000D01*
X98689581Y-142775000D02*
X98689581Y-150455000D01*
%TO.C,U1*%
X118411581Y-130553000D02*
X118411581Y-131503000D01*
X118411581Y-131503000D02*
X117071581Y-131503000D01*
X118411581Y-140773000D02*
X118411581Y-139823000D01*
X119361581Y-130553000D02*
X118411581Y-130553000D01*
X119361581Y-140773000D02*
X118411581Y-140773000D01*
X127681581Y-130553000D02*
X128631581Y-130553000D01*
X127681581Y-140773000D02*
X128631581Y-140773000D01*
X128631581Y-130553000D02*
X128631581Y-131503000D01*
X128631581Y-140773000D02*
X128631581Y-139823000D01*
%TO.C,R21*%
X121772500Y-110325742D02*
X121772500Y-110800258D01*
X120727500Y-110325742D02*
X120727500Y-110800258D01*
%TO.C,J5*%
X96029581Y-132809000D02*
X97359581Y-132809000D01*
X96029581Y-134139000D02*
X96029581Y-132809000D01*
X96029581Y-135409000D02*
X96029581Y-138009000D01*
X96029581Y-135409000D02*
X98689581Y-135409000D01*
X96029581Y-138009000D02*
X98689581Y-138009000D01*
X98689581Y-135409000D02*
X98689581Y-138009000D01*
%TO.C,R18*%
X121587742Y-112477500D02*
X122062258Y-112477500D01*
X121587742Y-113522500D02*
X122062258Y-113522500D01*
%TO.C,Y1*%
X114200000Y-131263000D02*
X110900000Y-131263000D01*
X110900000Y-131263000D02*
X110900000Y-135263000D01*
%TO.C,J9*%
X123450000Y-106950000D02*
X123450000Y-105700000D01*
X123160000Y-106660000D02*
X123160000Y-100690000D01*
X123160000Y-100690000D02*
X108040000Y-100690000D01*
X123150000Y-106650000D02*
X123150000Y-105900000D01*
X123150000Y-105900000D02*
X121350000Y-105900000D01*
X123150000Y-104400000D02*
X122400000Y-104400000D01*
X122400000Y-104400000D02*
X122400000Y-103060000D01*
X122200000Y-106950000D02*
X123450000Y-106950000D01*
X121350000Y-106650000D02*
X123150000Y-106650000D01*
X121350000Y-105900000D02*
X121350000Y-106650000D01*
X119850000Y-106650000D02*
X119850000Y-105900000D01*
X119850000Y-105900000D02*
X111350000Y-105900000D01*
X115600000Y-101450000D02*
X121340000Y-101450000D01*
X111350000Y-106650000D02*
X119850000Y-106650000D01*
X111350000Y-105900000D02*
X111350000Y-106650000D01*
X109850000Y-106650000D02*
X109850000Y-105900000D01*
X109850000Y-105900000D02*
X108050000Y-105900000D01*
X108800000Y-104400000D02*
X108800000Y-101450000D01*
X108800000Y-101450000D02*
X115600000Y-101450000D01*
X108050000Y-106650000D02*
X109850000Y-106650000D01*
X108050000Y-105900000D02*
X108050000Y-106650000D01*
X108050000Y-104400000D02*
X108800000Y-104400000D01*
X108040000Y-106660000D02*
X123160000Y-106660000D01*
X108040000Y-100690000D02*
X108040000Y-106660000D01*
%TO.C,R9*%
X144522500Y-140137742D02*
X144522500Y-140612258D01*
X143477500Y-140137742D02*
X143477500Y-140612258D01*
%TO.C,J4*%
X100855581Y-140175000D02*
X102185581Y-140175000D01*
X100855581Y-141505000D02*
X100855581Y-140175000D01*
X100855581Y-142775000D02*
X100855581Y-150455000D01*
X100855581Y-142775000D02*
X103515581Y-142775000D01*
X100855581Y-150455000D02*
X103515581Y-150455000D01*
X103515581Y-142775000D02*
X103515581Y-150455000D01*
%TO.C,C20*%
X147013581Y-124547164D02*
X147013581Y-124762836D01*
X146293581Y-124547164D02*
X146293581Y-124762836D01*
%TO.C,C22*%
X152889833Y-133910000D02*
X151467329Y-133910000D01*
X152889833Y-132090000D02*
X151467329Y-132090000D01*
%TO.C,R16*%
X114962742Y-112477500D02*
X115437258Y-112477500D01*
X114962742Y-113522500D02*
X115437258Y-113522500D01*
%TO.C,SW1*%
X98640000Y-114917000D02*
X97850000Y-114917000D01*
X96840000Y-115517000D02*
X96840000Y-121217000D01*
X99690000Y-116767000D02*
X99690000Y-118467000D01*
X96840000Y-116967000D02*
X95550000Y-116967000D01*
X95550000Y-116967000D02*
X95340000Y-117167000D01*
X95340000Y-117167000D02*
X95340000Y-118067000D01*
X95550000Y-118267000D02*
X95340000Y-118067000D01*
X95550000Y-118267000D02*
X96840000Y-118267000D01*
X99690000Y-119767000D02*
X99690000Y-119967000D01*
X97850000Y-121817000D02*
X98640000Y-121817000D01*
%TO.C,C5*%
X120607836Y-143360000D02*
X120392164Y-143360000D01*
X120607836Y-142640000D02*
X120392164Y-142640000D01*
%TO.C,C9*%
X114640000Y-137527836D02*
X114640000Y-137312164D01*
X115360000Y-137527836D02*
X115360000Y-137312164D01*
%TO.C,R8*%
X145477500Y-140612258D02*
X145477500Y-140137742D01*
X146522500Y-140612258D02*
X146522500Y-140137742D01*
%TO.C,R1*%
X104065258Y-119675500D02*
X103590742Y-119675500D01*
X104065258Y-118630500D02*
X103590742Y-118630500D01*
%TO.C,C21*%
X152889833Y-130910000D02*
X151467329Y-130910000D01*
X152889833Y-129090000D02*
X151467329Y-129090000D01*
%TO.C,D4*%
X150670000Y-145490000D02*
X147370000Y-145490000D01*
X150670000Y-145490000D02*
X150670000Y-151000000D01*
X147370000Y-145490000D02*
X147370000Y-151000000D01*
%TO.C,C7*%
X129140000Y-130337836D02*
X129140000Y-130122164D01*
X129860000Y-130337836D02*
X129860000Y-130122164D01*
%TO.C,D1*%
X116611581Y-143535500D02*
X118081581Y-143535500D01*
X118081581Y-143535500D02*
X118081581Y-141250500D01*
X116611581Y-141250500D02*
X116611581Y-143535500D01*
%TO.C,R15*%
X101977839Y-134661500D02*
X101503323Y-134661500D01*
X101977839Y-133616500D02*
X101503323Y-133616500D01*
%TO.C,J13*%
X112400000Y-170950000D02*
X109250000Y-170950000D01*
X109250000Y-170950000D02*
X106650000Y-173800000D01*
X114950000Y-173800000D02*
X112400000Y-170950000D01*
X106650000Y-173800000D02*
X106650000Y-186650000D01*
X114950000Y-186650000D02*
X114950000Y-173800000D01*
X106650000Y-186650000D02*
X114950000Y-186650000D01*
%TO.C,R4*%
X117331081Y-121286258D02*
X117331081Y-120811742D01*
X118376081Y-121286258D02*
X118376081Y-120811742D01*
D10*
%TO.C,U3*%
X118375000Y-118875000D02*
X118375000Y-118700000D01*
X118375000Y-118875000D02*
X115125000Y-118875000D01*
X118375000Y-118700000D02*
X119450000Y-118700000D01*
X118375000Y-115625000D02*
X118375000Y-115900000D01*
X118375000Y-115625000D02*
X115125000Y-115625000D01*
X115125000Y-118875000D02*
X115125000Y-118600000D01*
X115125000Y-115625000D02*
X115125000Y-115900000D01*
D14*
%TO.C,R14*%
X106931839Y-147107500D02*
X106457323Y-147107500D01*
X106931839Y-146062500D02*
X106457323Y-146062500D01*
%TO.C,J10*%
X135400000Y-170750000D02*
X132250000Y-170750000D01*
X132250000Y-170750000D02*
X129650000Y-173600000D01*
X137950000Y-173600000D02*
X135400000Y-170750000D01*
X129650000Y-173600000D02*
X129650000Y-186450000D01*
X137950000Y-186450000D02*
X137950000Y-173600000D01*
X129650000Y-186450000D02*
X137950000Y-186450000D01*
%TO.C,R6*%
X113331081Y-121286258D02*
X113331081Y-120811742D01*
X114376081Y-121286258D02*
X114376081Y-120811742D01*
%TO.C,C10*%
X115690000Y-137527836D02*
X115690000Y-137312164D01*
X116410000Y-137527836D02*
X116410000Y-137312164D01*
%TO.C,D2*%
X149730000Y-141500000D02*
X150380000Y-141500000D01*
X150380000Y-140380000D02*
X150380000Y-142620000D01*
X150380000Y-142620000D02*
X154620000Y-142620000D01*
X150980000Y-140380000D02*
X150980000Y-142620000D01*
X151100000Y-140380000D02*
X151100000Y-142620000D01*
X151220000Y-140380000D02*
X151220000Y-142620000D01*
X154620000Y-140380000D02*
X150380000Y-140380000D01*
X154620000Y-142620000D02*
X154620000Y-140380000D01*
X155270000Y-141500000D02*
X154620000Y-141500000D01*
%TO.C,C11*%
X112362164Y-130140000D02*
X112577836Y-130140000D01*
X112362164Y-130860000D02*
X112577836Y-130860000D01*
%TD*%
M02*
