%TF.GenerationSoftware,KiCad,Pcbnew,7.0.10*%
%TF.CreationDate,2024-04-17T23:56:12-04:00*%
%TF.ProjectId,BoardDesign,426f6172-6444-4657-9369-676e2e6b6963,rev?*%
%TF.SameCoordinates,Original*%
%TF.FileFunction,Soldermask,Bot*%
%TF.FilePolarity,Negative*%
%FSLAX46Y46*%
G04 Gerber Fmt 4.6, Leading zero omitted, Abs format (unit mm)*
G04 Created by KiCad (PCBNEW 7.0.10) date 2024-04-17 23:56:12*
%MOMM*%
%LPD*%
G01*
G04 APERTURE LIST*
G04 Aperture macros list*
%AMRoundRect*
0 Rectangle with rounded corners*
0 $1 Rounding radius*
0 $2 $3 $4 $5 $6 $7 $8 $9 X,Y pos of 4 corners*
0 Add a 4 corners polygon primitive as box body*
4,1,4,$2,$3,$4,$5,$6,$7,$8,$9,$2,$3,0*
0 Add four circle primitives for the rounded corners*
1,1,$1+$1,$2,$3*
1,1,$1+$1,$4,$5*
1,1,$1+$1,$6,$7*
1,1,$1+$1,$8,$9*
0 Add four rect primitives between the rounded corners*
20,1,$1+$1,$2,$3,$4,$5,0*
20,1,$1+$1,$4,$5,$6,$7,0*
20,1,$1+$1,$6,$7,$8,$9,0*
20,1,$1+$1,$8,$9,$2,$3,0*%
G04 Aperture macros list end*
%ADD10R,1.000000X1.000000*%
%ADD11O,1.000000X1.000000*%
%ADD12C,0.900000*%
%ADD13C,8.600000*%
%ADD14R,1.700000X1.700000*%
%ADD15O,1.700000X1.700000*%
%ADD16RoundRect,1.500000X1.500000X1.500000X-1.500000X1.500000X-1.500000X-1.500000X1.500000X-1.500000X0*%
%ADD17C,6.000000*%
%ADD18RoundRect,1.500000X-1.500000X1.500000X-1.500000X-1.500000X1.500000X-1.500000X1.500000X1.500000X0*%
%ADD19C,1.200000*%
%ADD20RoundRect,0.250000X0.600000X0.725000X-0.600000X0.725000X-0.600000X-0.725000X0.600000X-0.725000X0*%
%ADD21O,1.700000X1.950000*%
%ADD22R,1.600000X1.600000*%
%ADD23O,1.600000X1.600000*%
G04 APERTURE END LIST*
D10*
%TO.C,J7*%
X96850000Y-124990000D03*
D11*
X98120000Y-124990000D03*
X96850000Y-126260000D03*
X98120000Y-126260000D03*
X96850000Y-127530000D03*
X98120000Y-127530000D03*
X96850000Y-128800000D03*
X98120000Y-128800000D03*
X96850000Y-130070000D03*
X98120000Y-130070000D03*
%TD*%
D12*
%TO.C,H2*%
X151775000Y-103000000D03*
X152719581Y-100719581D03*
X152719581Y-105280419D03*
X155000000Y-99775000D03*
D13*
X155000000Y-103000000D03*
D12*
X155000000Y-106225000D03*
X157280419Y-100719581D03*
X157280419Y-105280419D03*
X158225000Y-103000000D03*
%TD*%
D14*
%TO.C,J6*%
X97359581Y-156491000D03*
D15*
X97359581Y-153951000D03*
%TD*%
D16*
%TO.C,J8*%
X140600000Y-104000000D03*
D17*
X133400000Y-104000000D03*
%TD*%
D18*
%TO.C,J11*%
X145000000Y-175200000D03*
D17*
X145000000Y-182400000D03*
%TD*%
D12*
%TO.C,H3*%
X96775000Y-183000000D03*
X97719581Y-180719581D03*
X97719581Y-185280419D03*
X100000000Y-179775000D03*
D13*
X100000000Y-183000000D03*
D12*
X100000000Y-186225000D03*
X102280419Y-180719581D03*
X102280419Y-185280419D03*
X103225000Y-183000000D03*
%TD*%
D18*
%TO.C,J14*%
X121800000Y-175200000D03*
D17*
X121800000Y-182400000D03*
%TD*%
D14*
%TO.C,J1*%
X153613581Y-115460000D03*
D15*
X153613581Y-118000000D03*
%TD*%
D12*
%TO.C,H1*%
X96775000Y-103000000D03*
X97719581Y-100719581D03*
X97719581Y-105280419D03*
X100000000Y-99775000D03*
D13*
X100000000Y-103000000D03*
D12*
X100000000Y-106225000D03*
X102280419Y-100719581D03*
X102280419Y-105280419D03*
X103225000Y-103000000D03*
%TD*%
D14*
%TO.C,J2*%
X97359581Y-141505000D03*
D15*
X97359581Y-144045000D03*
X97359581Y-146585000D03*
X97359581Y-149125000D03*
%TD*%
D14*
%TO.C,J5*%
X97359581Y-134139000D03*
D15*
X97359581Y-136679000D03*
%TD*%
D19*
%TO.C,J9*%
X122200000Y-102200000D03*
D20*
X120600000Y-104200000D03*
D21*
X118100000Y-104200000D03*
X115600000Y-104200000D03*
X113100000Y-104200000D03*
X110600000Y-104200000D03*
%TD*%
D14*
%TO.C,J4*%
X102185581Y-141505000D03*
D15*
X102185581Y-144045000D03*
X102185581Y-146585000D03*
X102185581Y-149125000D03*
%TD*%
D12*
%TO.C,SW1*%
X98240000Y-116867000D03*
X98240000Y-119867000D03*
%TD*%
D18*
%TO.C,J13*%
X110800000Y-175200000D03*
D17*
X110800000Y-182400000D03*
%TD*%
D18*
%TO.C,J10*%
X133800000Y-175000000D03*
D17*
X133800000Y-182200000D03*
%TD*%
D12*
%TO.C,H4*%
X151775000Y-183000000D03*
X152719581Y-180719581D03*
X152719581Y-185280419D03*
X155000000Y-179775000D03*
D13*
X155000000Y-183000000D03*
D12*
X155000000Y-186225000D03*
X157280419Y-180719581D03*
X157280419Y-185280419D03*
X158225000Y-183000000D03*
%TD*%
D22*
%TO.C,D2*%
X148690000Y-141500000D03*
D23*
X156310000Y-141500000D03*
%TD*%
M02*
