%TF.GenerationSoftware,KiCad,Pcbnew,7.0.10*%
%TF.CreationDate,2024-04-17T23:56:12-04:00*%
%TF.ProjectId,BoardDesign,426f6172-6444-4657-9369-676e2e6b6963,rev?*%
%TF.SameCoordinates,Original*%
%TF.FileFunction,Copper,L2,Inr*%
%TF.FilePolarity,Positive*%
%FSLAX46Y46*%
G04 Gerber Fmt 4.6, Leading zero omitted, Abs format (unit mm)*
G04 Created by KiCad (PCBNEW 7.0.10) date 2024-04-17 23:56:12*
%MOMM*%
%LPD*%
G01*
G04 APERTURE LIST*
G04 Aperture macros list*
%AMRoundRect*
0 Rectangle with rounded corners*
0 $1 Rounding radius*
0 $2 $3 $4 $5 $6 $7 $8 $9 X,Y pos of 4 corners*
0 Add a 4 corners polygon primitive as box body*
4,1,4,$2,$3,$4,$5,$6,$7,$8,$9,$2,$3,0*
0 Add four circle primitives for the rounded corners*
1,1,$1+$1,$2,$3*
1,1,$1+$1,$4,$5*
1,1,$1+$1,$6,$7*
1,1,$1+$1,$8,$9*
0 Add four rect primitives between the rounded corners*
20,1,$1+$1,$2,$3,$4,$5,0*
20,1,$1+$1,$4,$5,$6,$7,0*
20,1,$1+$1,$6,$7,$8,$9,0*
20,1,$1+$1,$8,$9,$2,$3,0*%
G04 Aperture macros list end*
%TA.AperFunction,ComponentPad*%
%ADD10R,1.000000X1.000000*%
%TD*%
%TA.AperFunction,ComponentPad*%
%ADD11O,1.000000X1.000000*%
%TD*%
%TA.AperFunction,ComponentPad*%
%ADD12C,0.900000*%
%TD*%
%TA.AperFunction,ComponentPad*%
%ADD13C,8.600000*%
%TD*%
%TA.AperFunction,ComponentPad*%
%ADD14R,1.700000X1.700000*%
%TD*%
%TA.AperFunction,ComponentPad*%
%ADD15O,1.700000X1.700000*%
%TD*%
%TA.AperFunction,ComponentPad*%
%ADD16RoundRect,1.500000X1.500000X1.500000X-1.500000X1.500000X-1.500000X-1.500000X1.500000X-1.500000X0*%
%TD*%
%TA.AperFunction,ComponentPad*%
%ADD17C,6.000000*%
%TD*%
%TA.AperFunction,ComponentPad*%
%ADD18RoundRect,1.500000X-1.500000X1.500000X-1.500000X-1.500000X1.500000X-1.500000X1.500000X1.500000X0*%
%TD*%
%TA.AperFunction,ComponentPad*%
%ADD19RoundRect,0.250000X0.600000X0.725000X-0.600000X0.725000X-0.600000X-0.725000X0.600000X-0.725000X0*%
%TD*%
%TA.AperFunction,ComponentPad*%
%ADD20O,1.700000X1.950000*%
%TD*%
%TA.AperFunction,ComponentPad*%
%ADD21R,1.600000X1.600000*%
%TD*%
%TA.AperFunction,ComponentPad*%
%ADD22O,1.600000X1.600000*%
%TD*%
%TA.AperFunction,ViaPad*%
%ADD23C,0.800000*%
%TD*%
G04 APERTURE END LIST*
D10*
%TO.N,+3.3V*%
%TO.C,J7*%
X96850000Y-124990000D03*
D11*
%TO.N,SWDIO*%
X98120000Y-124990000D03*
%TO.N,GND*%
X96850000Y-126260000D03*
%TO.N,SWCLK*%
X98120000Y-126260000D03*
%TO.N,GND*%
X96850000Y-127530000D03*
%TO.N,SW0*%
X98120000Y-127530000D03*
%TO.N,unconnected-(J7-Pin_7-Pad7)*%
X96850000Y-128800000D03*
%TO.N,unconnected-(J7-Pin_8-Pad8)*%
X98120000Y-128800000D03*
%TO.N,GND*%
X96850000Y-130070000D03*
%TO.N,NRST*%
X98120000Y-130070000D03*
%TD*%
D12*
%TO.N,GND*%
%TO.C,H2*%
X151775000Y-103000000D03*
X152719581Y-100719581D03*
X152719581Y-105280419D03*
X155000000Y-99775000D03*
D13*
X155000000Y-103000000D03*
D12*
X155000000Y-106225000D03*
X157280419Y-100719581D03*
X157280419Y-105280419D03*
X158225000Y-103000000D03*
%TD*%
D14*
%TO.N,Net-(J6-Pin_1)*%
%TO.C,J6*%
X97359581Y-156491000D03*
D15*
%TO.N,Net-(J6-Pin_2)*%
X97359581Y-153951000D03*
%TD*%
D16*
%TO.N,VDC*%
%TO.C,J8*%
X140600000Y-104000000D03*
D17*
%TO.N,GND*%
X133400000Y-104000000D03*
%TD*%
D18*
%TO.N,Net-(J10-Pin_1)*%
%TO.C,J11*%
X145000000Y-175200000D03*
D17*
%TO.N,Net-(J10-Pin_2)*%
X145000000Y-182400000D03*
%TD*%
D12*
%TO.N,GND*%
%TO.C,H3*%
X96775000Y-183000000D03*
X97719581Y-180719581D03*
X97719581Y-185280419D03*
X100000000Y-179775000D03*
D13*
X100000000Y-183000000D03*
D12*
X100000000Y-186225000D03*
X102280419Y-180719581D03*
X102280419Y-185280419D03*
X103225000Y-183000000D03*
%TD*%
D18*
%TO.N,Net-(J13-Pin_1)*%
%TO.C,J14*%
X121800000Y-175200000D03*
D17*
%TO.N,Net-(J13-Pin_2)*%
X121800000Y-182400000D03*
%TD*%
D14*
%TO.N,+5VD*%
%TO.C,J1*%
X153613581Y-115460000D03*
D15*
%TO.N,GND*%
X153613581Y-118000000D03*
%TD*%
D12*
%TO.N,GND*%
%TO.C,H1*%
X96775000Y-103000000D03*
X97719581Y-100719581D03*
X97719581Y-105280419D03*
X100000000Y-99775000D03*
D13*
X100000000Y-103000000D03*
D12*
X100000000Y-106225000D03*
X102280419Y-100719581D03*
X102280419Y-105280419D03*
X103225000Y-103000000D03*
%TD*%
D14*
%TO.N,+3.3V*%
%TO.C,J2*%
X97359581Y-141505000D03*
D15*
%TO.N,UART3_TX*%
X97359581Y-144045000D03*
%TO.N,UART3_RX*%
X97359581Y-146585000D03*
%TO.N,GND*%
X97359581Y-149125000D03*
%TD*%
D14*
%TO.N,Net-(J5-Pin_1)*%
%TO.C,J5*%
X97359581Y-134139000D03*
D15*
%TO.N,GND*%
X97359581Y-136679000D03*
%TD*%
D19*
%TO.N,Net-(J9-Pin_1)*%
%TO.C,J9*%
X120600000Y-104200000D03*
D20*
%TO.N,Net-(J9-Pin_2)*%
X118100000Y-104200000D03*
%TO.N,Net-(J9-Pin_3)*%
X115600000Y-104200000D03*
%TO.N,/ADC0*%
X113100000Y-104200000D03*
%TO.N,GND*%
X110600000Y-104200000D03*
%TD*%
D14*
%TO.N,+3.3V*%
%TO.C,J4*%
X102185581Y-141505000D03*
D15*
%TO.N,I2C3_SCL*%
X102185581Y-144045000D03*
%TO.N,I2C3_SDA*%
X102185581Y-146585000D03*
%TO.N,GND*%
X102185581Y-149125000D03*
%TD*%
D18*
%TO.N,Net-(J13-Pin_1)*%
%TO.C,J13*%
X110800000Y-175200000D03*
D17*
%TO.N,Net-(J13-Pin_2)*%
X110800000Y-182400000D03*
%TD*%
D18*
%TO.N,Net-(J10-Pin_1)*%
%TO.C,J10*%
X133800000Y-175000000D03*
D17*
%TO.N,Net-(J10-Pin_2)*%
X133800000Y-182200000D03*
%TD*%
D12*
%TO.N,GND*%
%TO.C,H4*%
X151775000Y-183000000D03*
X152719581Y-180719581D03*
X152719581Y-185280419D03*
X155000000Y-179775000D03*
D13*
X155000000Y-183000000D03*
D12*
X155000000Y-186225000D03*
X157280419Y-180719581D03*
X157280419Y-185280419D03*
X158225000Y-183000000D03*
%TD*%
D21*
%TO.N,Net-(D2-K)*%
%TO.C,D2*%
X148690000Y-141500000D03*
D22*
%TO.N,+3.3V*%
X156310000Y-141500000D03*
%TD*%
D23*
%TO.N,GND*%
X110600000Y-107500000D03*
%TO.N,+3.3V*%
X158000000Y-139800000D03*
X156300000Y-139800000D03*
X158000000Y-141500000D03*
X154500000Y-155000000D03*
X155500000Y-153000000D03*
X154500000Y-157000000D03*
X154500000Y-156000003D03*
X154500000Y-153000000D03*
X154500000Y-154000000D03*
%TO.N,GND*%
X151500000Y-119000000D03*
X151500000Y-118000000D03*
X151500000Y-117000000D03*
X143780081Y-167030792D03*
X150520000Y-151667000D03*
X139500000Y-168750000D03*
X115346581Y-140013000D03*
X98929000Y-136679000D03*
X120400000Y-117800000D03*
X96851581Y-131398419D03*
X121000000Y-164000000D03*
X150520000Y-150167000D03*
X147520000Y-151270000D03*
X145750000Y-127125000D03*
X129903419Y-143250000D03*
X142500000Y-168750000D03*
X115250000Y-129250000D03*
X119300000Y-114350000D03*
X135000000Y-166750000D03*
X116050000Y-114400000D03*
X149363581Y-133886419D03*
X149363581Y-130500000D03*
X149363581Y-132160000D03*
X143950000Y-142400000D03*
X112750000Y-114400000D03*
X122650000Y-114350000D03*
X129500000Y-128750000D03*
X113950000Y-136700000D03*
X138600000Y-116350000D03*
X116498907Y-168790470D03*
X120000000Y-144000000D03*
X147520000Y-152770000D03*
X130000000Y-141750000D03*
X119737478Y-131363000D03*
X149363581Y-128750000D03*
X142500000Y-116350000D03*
X95853269Y-127476918D03*
X143780081Y-163969208D03*
X97500000Y-150500000D03*
X119500000Y-120250000D03*
X112000000Y-166750000D03*
X113000000Y-168000000D03*
X139250000Y-143100000D03*
X101607000Y-120617000D03*
X110863000Y-134363000D03*
X140600000Y-143100000D03*
X119500001Y-168750000D03*
X121000000Y-167000000D03*
X102250000Y-150500000D03*
X136250000Y-168000000D03*
%TO.N,+3.3V*%
X97359581Y-140140419D03*
X127271581Y-140078419D03*
X121750000Y-143000000D03*
X118500000Y-130000000D03*
X96851581Y-123851581D03*
X112102419Y-137907000D03*
X101607000Y-116117000D03*
X146000000Y-142000000D03*
X102185581Y-140064419D03*
X108415000Y-146585000D03*
X108455000Y-144045000D03*
X127975883Y-131906753D03*
%TO.N,Net-(C12-Pad1)*%
X114950000Y-134063000D03*
X116004161Y-132995839D03*
%TO.N,+5VD*%
X113850000Y-122950000D03*
X119500000Y-122750000D03*
X113000000Y-117250000D03*
X117850000Y-122850000D03*
X115850000Y-122900000D03*
%TO.N,VDC*%
X139733581Y-120250000D03*
X142000000Y-120250000D03*
X115000000Y-168000000D03*
X137999999Y-167976500D03*
X118000001Y-167976500D03*
X112000000Y-165000000D03*
X135000000Y-164912401D03*
X141000001Y-167976500D03*
%TO.N,Net-(U2-BS)*%
X139750000Y-125300000D03*
X145613581Y-124176497D03*
%TO.N,I2C3_SCL*%
X113750000Y-141000000D03*
X120183593Y-138250367D03*
%TO.N,I2C3_SDA*%
X119221581Y-137977350D03*
X113750000Y-140000000D03*
X104500000Y-146585000D03*
X104500000Y-143250000D03*
%TO.N,Net-(J6-Pin_1)*%
X117758469Y-161629887D03*
X110500000Y-156500000D03*
%TO.N,Fet*%
X113000000Y-153000000D03*
X118743476Y-161457353D03*
X129000000Y-146000000D03*
X141750000Y-161750000D03*
%TO.N,BOOT0*%
X118000000Y-128000000D03*
X113000000Y-124500000D03*
%TO.N,I2C1_SCL*%
X123250000Y-128000000D03*
X122780331Y-124500000D03*
%TO.N,I2C1_SDA*%
X122250000Y-127953729D03*
X121500000Y-124500000D03*
%TO.N,Net-(U2-FB)*%
X139573581Y-119000000D03*
X141683581Y-119000000D03*
%TO.N,LowBat*%
X116000000Y-139000000D03*
X119221581Y-138977309D03*
%TO.N,Net-(J6-Pin_2)*%
X114375000Y-154375000D03*
X140750000Y-161750000D03*
%TD*%
%TA.AperFunction,Conductor*%
%TO.N,GND*%
G36*
X154356616Y-98020185D02*
G01*
X154402371Y-98072989D01*
X154412315Y-98142147D01*
X154383290Y-98205703D01*
X154324512Y-98243477D01*
X154311718Y-98246507D01*
X153930816Y-98315630D01*
X153515234Y-98430324D01*
X153515209Y-98430332D01*
X153111583Y-98581815D01*
X153111569Y-98581821D01*
X152723146Y-98768876D01*
X152723140Y-98768879D01*
X152353024Y-98990013D01*
X152004235Y-99243423D01*
X151786877Y-99433322D01*
X151786877Y-99433323D01*
X153664544Y-101310991D01*
X153639990Y-101328324D01*
X153425031Y-101529082D01*
X153313104Y-101666657D01*
X151432223Y-99785777D01*
X151381624Y-99838699D01*
X151381612Y-99838712D01*
X151112800Y-100175791D01*
X151112799Y-100175792D01*
X150875294Y-100535600D01*
X150670989Y-100915261D01*
X150670985Y-100915269D01*
X150501545Y-101311695D01*
X150501542Y-101311703D01*
X150368313Y-101721741D01*
X150272378Y-102142061D01*
X150214505Y-102569298D01*
X150214504Y-102569307D01*
X150195162Y-102999996D01*
X150195162Y-103000003D01*
X150214504Y-103430692D01*
X150214505Y-103430701D01*
X150272378Y-103857938D01*
X150368313Y-104278258D01*
X150501542Y-104688296D01*
X150501545Y-104688304D01*
X150670985Y-105084730D01*
X150670989Y-105084738D01*
X150875294Y-105464399D01*
X151112799Y-105824207D01*
X151112800Y-105824208D01*
X151381608Y-106161282D01*
X151432223Y-106214221D01*
X153313103Y-104333341D01*
X153425031Y-104470918D01*
X153639990Y-104671676D01*
X153664544Y-104689008D01*
X151786877Y-106566675D01*
X152004227Y-106756569D01*
X152004244Y-106756582D01*
X152353024Y-107009986D01*
X152723140Y-107231120D01*
X152723146Y-107231123D01*
X153111569Y-107418178D01*
X153111583Y-107418184D01*
X153515209Y-107569667D01*
X153515234Y-107569675D01*
X153930816Y-107684369D01*
X154355023Y-107761351D01*
X154784435Y-107799999D01*
X154784438Y-107800000D01*
X155215562Y-107800000D01*
X155215564Y-107799999D01*
X155644976Y-107761351D01*
X156069183Y-107684369D01*
X156484765Y-107569675D01*
X156484790Y-107569667D01*
X156888416Y-107418184D01*
X156888430Y-107418178D01*
X157276853Y-107231123D01*
X157276859Y-107231120D01*
X157646975Y-107009986D01*
X157995755Y-106756582D01*
X157995772Y-106756569D01*
X158213121Y-106566675D01*
X156335455Y-104689008D01*
X156360010Y-104671676D01*
X156574969Y-104470918D01*
X156686895Y-104333342D01*
X158567776Y-106214222D01*
X158618386Y-106161289D01*
X158618386Y-106161288D01*
X158887199Y-105824208D01*
X158887200Y-105824207D01*
X159124705Y-105464399D01*
X159329010Y-105084738D01*
X159329014Y-105084730D01*
X159498454Y-104688304D01*
X159498457Y-104688296D01*
X159631686Y-104278258D01*
X159727621Y-103857938D01*
X159752622Y-103673376D01*
X159781128Y-103609586D01*
X159839595Y-103571333D01*
X159909463Y-103570763D01*
X159968547Y-103608056D01*
X159998090Y-103671373D01*
X159999500Y-103690021D01*
X159999500Y-182309978D01*
X159979815Y-182377017D01*
X159927011Y-182422772D01*
X159857853Y-182432716D01*
X159794297Y-182403691D01*
X159756523Y-182344913D01*
X159752622Y-182326623D01*
X159727621Y-182142061D01*
X159631686Y-181721741D01*
X159498457Y-181311703D01*
X159498454Y-181311695D01*
X159329014Y-180915269D01*
X159329010Y-180915261D01*
X159124705Y-180535600D01*
X158887200Y-180175792D01*
X158887199Y-180175791D01*
X158618391Y-179838717D01*
X158567774Y-179785776D01*
X156686894Y-181666656D01*
X156574969Y-181529082D01*
X156360010Y-181328324D01*
X156335453Y-181310990D01*
X158213121Y-179433323D01*
X157995772Y-179243430D01*
X157995755Y-179243417D01*
X157646975Y-178990013D01*
X157276859Y-178768879D01*
X157276853Y-178768876D01*
X156888430Y-178581821D01*
X156888416Y-178581815D01*
X156484790Y-178430332D01*
X156484765Y-178430324D01*
X156069183Y-178315630D01*
X155644976Y-178238648D01*
X155215564Y-178200000D01*
X154784435Y-178200000D01*
X154355023Y-178238648D01*
X153930816Y-178315630D01*
X153515234Y-178430324D01*
X153515209Y-178430332D01*
X153111583Y-178581815D01*
X153111569Y-178581821D01*
X152723146Y-178768876D01*
X152723140Y-178768879D01*
X152353024Y-178990013D01*
X152004235Y-179243423D01*
X151786877Y-179433322D01*
X151786877Y-179433323D01*
X153664545Y-181310991D01*
X153639990Y-181328324D01*
X153425031Y-181529082D01*
X153313104Y-181666657D01*
X151432223Y-179785777D01*
X151381624Y-179838699D01*
X151381612Y-179838712D01*
X151112800Y-180175791D01*
X151112799Y-180175792D01*
X150875294Y-180535600D01*
X150670989Y-180915261D01*
X150670985Y-180915269D01*
X150501545Y-181311695D01*
X150501542Y-181311703D01*
X150368313Y-181721741D01*
X150272378Y-182142061D01*
X150214505Y-182569298D01*
X150214504Y-182569307D01*
X150195162Y-182999996D01*
X150195162Y-183000003D01*
X150214504Y-183430692D01*
X150214505Y-183430701D01*
X150272378Y-183857938D01*
X150368313Y-184278258D01*
X150501542Y-184688296D01*
X150501545Y-184688304D01*
X150670985Y-185084730D01*
X150670989Y-185084738D01*
X150875294Y-185464399D01*
X151112799Y-185824207D01*
X151112800Y-185824208D01*
X151381608Y-186161282D01*
X151432223Y-186214221D01*
X153313103Y-184333341D01*
X153425031Y-184470918D01*
X153639990Y-184671676D01*
X153664544Y-184689008D01*
X151786877Y-186566675D01*
X152004227Y-186756569D01*
X152004244Y-186756582D01*
X152353024Y-187009986D01*
X152723140Y-187231120D01*
X152723146Y-187231123D01*
X153111569Y-187418178D01*
X153111583Y-187418184D01*
X153515209Y-187569667D01*
X153515234Y-187569675D01*
X153930816Y-187684369D01*
X154311718Y-187753493D01*
X154374165Y-187784831D01*
X154409756Y-187844957D01*
X154407191Y-187914779D01*
X154367285Y-187972131D01*
X154302706Y-187998803D01*
X154289577Y-187999500D01*
X100710423Y-187999500D01*
X100643384Y-187979815D01*
X100597629Y-187927011D01*
X100587685Y-187857853D01*
X100616710Y-187794297D01*
X100675488Y-187756523D01*
X100688282Y-187753493D01*
X101069183Y-187684369D01*
X101484765Y-187569675D01*
X101484790Y-187569667D01*
X101888416Y-187418184D01*
X101888430Y-187418178D01*
X102276853Y-187231123D01*
X102276859Y-187231120D01*
X102646975Y-187009986D01*
X102995755Y-186756582D01*
X102995772Y-186756569D01*
X103213121Y-186566675D01*
X101335455Y-184689008D01*
X101360010Y-184671676D01*
X101574969Y-184470918D01*
X101686895Y-184333342D01*
X103567775Y-186214222D01*
X103567776Y-186214222D01*
X103618386Y-186161289D01*
X103618386Y-186161288D01*
X103887199Y-185824208D01*
X103887200Y-185824207D01*
X104124705Y-185464399D01*
X104329010Y-185084738D01*
X104329014Y-185084730D01*
X104498454Y-184688304D01*
X104498457Y-184688296D01*
X104631686Y-184278258D01*
X104727621Y-183857938D01*
X104785494Y-183430701D01*
X104785495Y-183430692D01*
X104804838Y-183000003D01*
X104804838Y-182999996D01*
X104785495Y-182569307D01*
X104785494Y-182569298D01*
X104762561Y-182400000D01*
X107294696Y-182400000D01*
X107313898Y-182766404D01*
X107371295Y-183128794D01*
X107376190Y-183147064D01*
X107466260Y-183483206D01*
X107597746Y-183825739D01*
X107764320Y-184152656D01*
X107964147Y-184460364D01*
X108033090Y-184545501D01*
X108195051Y-184745506D01*
X108454494Y-185004949D01*
X108492655Y-185035851D01*
X108739635Y-185235852D01*
X109047343Y-185435679D01*
X109047348Y-185435682D01*
X109374264Y-185602255D01*
X109716801Y-185733742D01*
X110071206Y-185828705D01*
X110433596Y-185886102D01*
X110779734Y-185904241D01*
X110799999Y-185905304D01*
X110800000Y-185905304D01*
X110800001Y-185905304D01*
X110819203Y-185904297D01*
X111166404Y-185886102D01*
X111528794Y-185828705D01*
X111883199Y-185733742D01*
X112225736Y-185602255D01*
X112552652Y-185435682D01*
X112860366Y-185235851D01*
X113145506Y-185004949D01*
X113404949Y-184745506D01*
X113635851Y-184460366D01*
X113835682Y-184152652D01*
X114002255Y-183825736D01*
X114133742Y-183483199D01*
X114228705Y-183128794D01*
X114286102Y-182766404D01*
X114305304Y-182400000D01*
X118294696Y-182400000D01*
X118313898Y-182766404D01*
X118371295Y-183128794D01*
X118376190Y-183147064D01*
X118466260Y-183483206D01*
X118597746Y-183825739D01*
X118764320Y-184152656D01*
X118964147Y-184460364D01*
X119033090Y-184545501D01*
X119195051Y-184745506D01*
X119454494Y-185004949D01*
X119492655Y-185035851D01*
X119739635Y-185235852D01*
X120047343Y-185435679D01*
X120047348Y-185435682D01*
X120374264Y-185602255D01*
X120716801Y-185733742D01*
X121071206Y-185828705D01*
X121433596Y-185886102D01*
X121779734Y-185904241D01*
X121799999Y-185905304D01*
X121800000Y-185905304D01*
X121800001Y-185905304D01*
X121819203Y-185904297D01*
X122166404Y-185886102D01*
X122528794Y-185828705D01*
X122883199Y-185733742D01*
X123225736Y-185602255D01*
X123552652Y-185435682D01*
X123860366Y-185235851D01*
X124145506Y-185004949D01*
X124404949Y-184745506D01*
X124635851Y-184460366D01*
X124835682Y-184152652D01*
X125002255Y-183825736D01*
X125133742Y-183483199D01*
X125228705Y-183128794D01*
X125286102Y-182766404D01*
X125305304Y-182400000D01*
X125294823Y-182200000D01*
X130294696Y-182200000D01*
X130313898Y-182566404D01*
X130371295Y-182928794D01*
X130424883Y-183128788D01*
X130466260Y-183283206D01*
X130597746Y-183625739D01*
X130764320Y-183952656D01*
X130964147Y-184260364D01*
X131099932Y-184428044D01*
X131195051Y-184545506D01*
X131454494Y-184804949D01*
X131613311Y-184933557D01*
X131739635Y-185035852D01*
X132047343Y-185235679D01*
X132047348Y-185235682D01*
X132374264Y-185402255D01*
X132716801Y-185533742D01*
X133071206Y-185628705D01*
X133433596Y-185686102D01*
X133779734Y-185704241D01*
X133799999Y-185705304D01*
X133800000Y-185705304D01*
X133800001Y-185705304D01*
X133819203Y-185704297D01*
X134166404Y-185686102D01*
X134528794Y-185628705D01*
X134883199Y-185533742D01*
X135225736Y-185402255D01*
X135552652Y-185235682D01*
X135860366Y-185035851D01*
X136145506Y-184804949D01*
X136404949Y-184545506D01*
X136635851Y-184260366D01*
X136835682Y-183952652D01*
X137002255Y-183625736D01*
X137133742Y-183283199D01*
X137228705Y-182928794D01*
X137286102Y-182566404D01*
X137294823Y-182400000D01*
X141494696Y-182400000D01*
X141513898Y-182766404D01*
X141571295Y-183128794D01*
X141576190Y-183147064D01*
X141666260Y-183483206D01*
X141797746Y-183825739D01*
X141964320Y-184152656D01*
X142164147Y-184460364D01*
X142233090Y-184545501D01*
X142395051Y-184745506D01*
X142654494Y-185004949D01*
X142692655Y-185035851D01*
X142939635Y-185235852D01*
X143247343Y-185435679D01*
X143247348Y-185435682D01*
X143574264Y-185602255D01*
X143916801Y-185733742D01*
X144271206Y-185828705D01*
X144633596Y-185886102D01*
X144979734Y-185904241D01*
X144999999Y-185905304D01*
X145000000Y-185905304D01*
X145000001Y-185905304D01*
X145019203Y-185904297D01*
X145366404Y-185886102D01*
X145728794Y-185828705D01*
X146083199Y-185733742D01*
X146425736Y-185602255D01*
X146752652Y-185435682D01*
X147060366Y-185235851D01*
X147345506Y-185004949D01*
X147604949Y-184745506D01*
X147835851Y-184460366D01*
X148035682Y-184152652D01*
X148202255Y-183825736D01*
X148333742Y-183483199D01*
X148428705Y-183128794D01*
X148486102Y-182766404D01*
X148505304Y-182400000D01*
X148486102Y-182033596D01*
X148428705Y-181671206D01*
X148333742Y-181316801D01*
X148202255Y-180974264D01*
X148035682Y-180647348D01*
X148035679Y-180647343D01*
X147835852Y-180339635D01*
X147604952Y-180054498D01*
X147604949Y-180054494D01*
X147345506Y-179795051D01*
X147313010Y-179768736D01*
X147060364Y-179564147D01*
X146752656Y-179364320D01*
X146425739Y-179197746D01*
X146083206Y-179066260D01*
X146083199Y-179066258D01*
X145728794Y-178971295D01*
X145728790Y-178971294D01*
X145728789Y-178971294D01*
X145575231Y-178946973D01*
X145512096Y-178917044D01*
X145475165Y-178857732D01*
X145476163Y-178787870D01*
X145514773Y-178729637D01*
X145578736Y-178701523D01*
X145594629Y-178700500D01*
X146571448Y-178700500D01*
X146785428Y-178685196D01*
X146911679Y-178657732D01*
X147065037Y-178624371D01*
X147065037Y-178624370D01*
X147065046Y-178624369D01*
X147333161Y-178524367D01*
X147584315Y-178387226D01*
X147813395Y-178215739D01*
X148015739Y-178013395D01*
X148187226Y-177784315D01*
X148324367Y-177533161D01*
X148424369Y-177265046D01*
X148485196Y-176985428D01*
X148500500Y-176771448D01*
X148500500Y-173628552D01*
X148485196Y-173414572D01*
X148441687Y-173214566D01*
X148424371Y-173134962D01*
X148424370Y-173134960D01*
X148424369Y-173134954D01*
X148324367Y-172866839D01*
X148215158Y-172666839D01*
X148187229Y-172615690D01*
X148187224Y-172615682D01*
X148015745Y-172386612D01*
X148015729Y-172386594D01*
X147813405Y-172184270D01*
X147813387Y-172184254D01*
X147584317Y-172012775D01*
X147584309Y-172012770D01*
X147333166Y-171875635D01*
X147333167Y-171875635D01*
X147225915Y-171835632D01*
X147065046Y-171775631D01*
X147065043Y-171775630D01*
X147065037Y-171775628D01*
X146785433Y-171714804D01*
X146571450Y-171699500D01*
X146571448Y-171699500D01*
X143428552Y-171699500D01*
X143428549Y-171699500D01*
X143214566Y-171714804D01*
X142934962Y-171775628D01*
X142666833Y-171875635D01*
X142415690Y-172012770D01*
X142415682Y-172012775D01*
X142186612Y-172184254D01*
X142186594Y-172184270D01*
X141984270Y-172386594D01*
X141984254Y-172386612D01*
X141812775Y-172615682D01*
X141812770Y-172615690D01*
X141675635Y-172866833D01*
X141575628Y-173134962D01*
X141514804Y-173414566D01*
X141499500Y-173628549D01*
X141499500Y-176771450D01*
X141514804Y-176985433D01*
X141575628Y-177265037D01*
X141675635Y-177533166D01*
X141812770Y-177784309D01*
X141812775Y-177784317D01*
X141984254Y-178013387D01*
X141984270Y-178013405D01*
X142186594Y-178215729D01*
X142186612Y-178215745D01*
X142415682Y-178387224D01*
X142415690Y-178387229D01*
X142666833Y-178524364D01*
X142666832Y-178524364D01*
X142666836Y-178524365D01*
X142666839Y-178524367D01*
X142934954Y-178624369D01*
X142934960Y-178624370D01*
X142934962Y-178624371D01*
X143214566Y-178685195D01*
X143214568Y-178685195D01*
X143214572Y-178685196D01*
X143428552Y-178700500D01*
X144405371Y-178700500D01*
X144472410Y-178720185D01*
X144518165Y-178772989D01*
X144528109Y-178842147D01*
X144499084Y-178905703D01*
X144440306Y-178943477D01*
X144424769Y-178946973D01*
X144271211Y-178971294D01*
X144271209Y-178971294D01*
X143916793Y-179066260D01*
X143574260Y-179197746D01*
X143247343Y-179364320D01*
X142939635Y-179564147D01*
X142654498Y-179795047D01*
X142654490Y-179795054D01*
X142395054Y-180054490D01*
X142395047Y-180054498D01*
X142164147Y-180339635D01*
X141964320Y-180647343D01*
X141797746Y-180974260D01*
X141666260Y-181316793D01*
X141571294Y-181671209D01*
X141571294Y-181671211D01*
X141513898Y-182033594D01*
X141499414Y-182309978D01*
X141494696Y-182400000D01*
X137294823Y-182400000D01*
X137305304Y-182200000D01*
X137286102Y-181833596D01*
X137228705Y-181471206D01*
X137133742Y-181116801D01*
X137002255Y-180774264D01*
X136835682Y-180447348D01*
X136765732Y-180339634D01*
X136635852Y-180139635D01*
X136404952Y-179854498D01*
X136404949Y-179854494D01*
X136145506Y-179595051D01*
X135945789Y-179433323D01*
X135860364Y-179364147D01*
X135552656Y-179164320D01*
X135225739Y-178997746D01*
X134883206Y-178866260D01*
X134883199Y-178866258D01*
X134528794Y-178771295D01*
X134528790Y-178771294D01*
X134528789Y-178771294D01*
X134375231Y-178746973D01*
X134312096Y-178717044D01*
X134275165Y-178657732D01*
X134276163Y-178587870D01*
X134314773Y-178529637D01*
X134378736Y-178501523D01*
X134394629Y-178500500D01*
X135371448Y-178500500D01*
X135585428Y-178485196D01*
X135837635Y-178430332D01*
X135865037Y-178424371D01*
X135865037Y-178424370D01*
X135865046Y-178424369D01*
X136133161Y-178324367D01*
X136384315Y-178187226D01*
X136613395Y-178015739D01*
X136815739Y-177813395D01*
X136987226Y-177584315D01*
X137124367Y-177333161D01*
X137224369Y-177065046D01*
X137285196Y-176785428D01*
X137300500Y-176571448D01*
X137300500Y-173428552D01*
X137285196Y-173214572D01*
X137267876Y-173134954D01*
X137224371Y-172934962D01*
X137224370Y-172934960D01*
X137224369Y-172934954D01*
X137124367Y-172666839D01*
X137096437Y-172615690D01*
X136987229Y-172415690D01*
X136987224Y-172415682D01*
X136815745Y-172186612D01*
X136815729Y-172186594D01*
X136613405Y-171984270D01*
X136613387Y-171984254D01*
X136384317Y-171812775D01*
X136384309Y-171812770D01*
X136133166Y-171675635D01*
X136133167Y-171675635D01*
X136025915Y-171635632D01*
X135865046Y-171575631D01*
X135865043Y-171575630D01*
X135865037Y-171575628D01*
X135585433Y-171514804D01*
X135371450Y-171499500D01*
X135371448Y-171499500D01*
X132228552Y-171499500D01*
X132228549Y-171499500D01*
X132014566Y-171514804D01*
X131734962Y-171575628D01*
X131466833Y-171675635D01*
X131215690Y-171812770D01*
X131215682Y-171812775D01*
X130986612Y-171984254D01*
X130986594Y-171984270D01*
X130784270Y-172186594D01*
X130784254Y-172186612D01*
X130612775Y-172415682D01*
X130612770Y-172415690D01*
X130475635Y-172666833D01*
X130375628Y-172934962D01*
X130314804Y-173214566D01*
X130299500Y-173428549D01*
X130299500Y-176571450D01*
X130314804Y-176785433D01*
X130375628Y-177065037D01*
X130375630Y-177065043D01*
X130375631Y-177065046D01*
X130475633Y-177333161D01*
X130475635Y-177333166D01*
X130612770Y-177584309D01*
X130612775Y-177584317D01*
X130784254Y-177813387D01*
X130784270Y-177813405D01*
X130986594Y-178015729D01*
X130986612Y-178015745D01*
X131215682Y-178187224D01*
X131215690Y-178187229D01*
X131466833Y-178324364D01*
X131466832Y-178324364D01*
X131466836Y-178324365D01*
X131466839Y-178324367D01*
X131734954Y-178424369D01*
X131734960Y-178424370D01*
X131734962Y-178424371D01*
X132014566Y-178485195D01*
X132014568Y-178485195D01*
X132014572Y-178485196D01*
X132228552Y-178500500D01*
X133205371Y-178500500D01*
X133272410Y-178520185D01*
X133318165Y-178572989D01*
X133328109Y-178642147D01*
X133299084Y-178705703D01*
X133240306Y-178743477D01*
X133224769Y-178746973D01*
X133071211Y-178771294D01*
X133071209Y-178771294D01*
X132716793Y-178866260D01*
X132374260Y-178997746D01*
X132047343Y-179164320D01*
X131739635Y-179364147D01*
X131454498Y-179595047D01*
X131454490Y-179595054D01*
X131195054Y-179854490D01*
X131195047Y-179854498D01*
X130964147Y-180139635D01*
X130764320Y-180447343D01*
X130597746Y-180774260D01*
X130466260Y-181116793D01*
X130371294Y-181471209D01*
X130371294Y-181471211D01*
X130325992Y-181757240D01*
X130313898Y-181833596D01*
X130294696Y-182200000D01*
X125294823Y-182200000D01*
X125286102Y-182033596D01*
X125228705Y-181671206D01*
X125133742Y-181316801D01*
X125002255Y-180974264D01*
X124835682Y-180647348D01*
X124835679Y-180647343D01*
X124635852Y-180339635D01*
X124404952Y-180054498D01*
X124404949Y-180054494D01*
X124145506Y-179795051D01*
X124113010Y-179768736D01*
X123860364Y-179564147D01*
X123552656Y-179364320D01*
X123225739Y-179197746D01*
X122883206Y-179066260D01*
X122883199Y-179066258D01*
X122528794Y-178971295D01*
X122528790Y-178971294D01*
X122528789Y-178971294D01*
X122375231Y-178946973D01*
X122312096Y-178917044D01*
X122275165Y-178857732D01*
X122276163Y-178787870D01*
X122314773Y-178729637D01*
X122378736Y-178701523D01*
X122394629Y-178700500D01*
X123371448Y-178700500D01*
X123585428Y-178685196D01*
X123711679Y-178657732D01*
X123865037Y-178624371D01*
X123865037Y-178624370D01*
X123865046Y-178624369D01*
X124133161Y-178524367D01*
X124384315Y-178387226D01*
X124613395Y-178215739D01*
X124815739Y-178013395D01*
X124987226Y-177784315D01*
X125124367Y-177533161D01*
X125224369Y-177265046D01*
X125285196Y-176985428D01*
X125300500Y-176771448D01*
X125300500Y-173628552D01*
X125285196Y-173414572D01*
X125241687Y-173214566D01*
X125224371Y-173134962D01*
X125224370Y-173134960D01*
X125224369Y-173134954D01*
X125124367Y-172866839D01*
X125015158Y-172666839D01*
X124987229Y-172615690D01*
X124987224Y-172615682D01*
X124815745Y-172386612D01*
X124815729Y-172386594D01*
X124613405Y-172184270D01*
X124613387Y-172184254D01*
X124384317Y-172012775D01*
X124384309Y-172012770D01*
X124133166Y-171875635D01*
X124133167Y-171875635D01*
X124025915Y-171835632D01*
X123865046Y-171775631D01*
X123865043Y-171775630D01*
X123865037Y-171775628D01*
X123585433Y-171714804D01*
X123371450Y-171699500D01*
X123371448Y-171699500D01*
X120228552Y-171699500D01*
X120228549Y-171699500D01*
X120014566Y-171714804D01*
X119734962Y-171775628D01*
X119466833Y-171875635D01*
X119215690Y-172012770D01*
X119215682Y-172012775D01*
X118986612Y-172184254D01*
X118986594Y-172184270D01*
X118784270Y-172386594D01*
X118784254Y-172386612D01*
X118612775Y-172615682D01*
X118612770Y-172615690D01*
X118475635Y-172866833D01*
X118375628Y-173134962D01*
X118314804Y-173414566D01*
X118299500Y-173628549D01*
X118299500Y-176771450D01*
X118314804Y-176985433D01*
X118375628Y-177265037D01*
X118475635Y-177533166D01*
X118612770Y-177784309D01*
X118612775Y-177784317D01*
X118784254Y-178013387D01*
X118784270Y-178013405D01*
X118986594Y-178215729D01*
X118986612Y-178215745D01*
X119215682Y-178387224D01*
X119215690Y-178387229D01*
X119466833Y-178524364D01*
X119466832Y-178524364D01*
X119466836Y-178524365D01*
X119466839Y-178524367D01*
X119734954Y-178624369D01*
X119734960Y-178624370D01*
X119734962Y-178624371D01*
X120014566Y-178685195D01*
X120014568Y-178685195D01*
X120014572Y-178685196D01*
X120228552Y-178700500D01*
X121205371Y-178700500D01*
X121272410Y-178720185D01*
X121318165Y-178772989D01*
X121328109Y-178842147D01*
X121299084Y-178905703D01*
X121240306Y-178943477D01*
X121224769Y-178946973D01*
X121071211Y-178971294D01*
X121071209Y-178971294D01*
X120716793Y-179066260D01*
X120374260Y-179197746D01*
X120047343Y-179364320D01*
X119739635Y-179564147D01*
X119454498Y-179795047D01*
X119454490Y-179795054D01*
X119195054Y-180054490D01*
X119195047Y-180054498D01*
X118964147Y-180339635D01*
X118764320Y-180647343D01*
X118597746Y-180974260D01*
X118466260Y-181316793D01*
X118371294Y-181671209D01*
X118371294Y-181671211D01*
X118313898Y-182033594D01*
X118299414Y-182309978D01*
X118294696Y-182400000D01*
X114305304Y-182400000D01*
X114286102Y-182033596D01*
X114228705Y-181671206D01*
X114133742Y-181316801D01*
X114002255Y-180974264D01*
X113835682Y-180647348D01*
X113835679Y-180647343D01*
X113635852Y-180339635D01*
X113404952Y-180054498D01*
X113404949Y-180054494D01*
X113145506Y-179795051D01*
X113113010Y-179768736D01*
X112860364Y-179564147D01*
X112552656Y-179364320D01*
X112225739Y-179197746D01*
X111883206Y-179066260D01*
X111883199Y-179066258D01*
X111528794Y-178971295D01*
X111528790Y-178971294D01*
X111528789Y-178971294D01*
X111375231Y-178946973D01*
X111312096Y-178917044D01*
X111275165Y-178857732D01*
X111276163Y-178787870D01*
X111314773Y-178729637D01*
X111378736Y-178701523D01*
X111394629Y-178700500D01*
X112371448Y-178700500D01*
X112585428Y-178685196D01*
X112711679Y-178657732D01*
X112865037Y-178624371D01*
X112865037Y-178624370D01*
X112865046Y-178624369D01*
X113133161Y-178524367D01*
X113384315Y-178387226D01*
X113613395Y-178215739D01*
X113815739Y-178013395D01*
X113987226Y-177784315D01*
X114124367Y-177533161D01*
X114224369Y-177265046D01*
X114285196Y-176985428D01*
X114300500Y-176771448D01*
X114300500Y-173628552D01*
X114285196Y-173414572D01*
X114241687Y-173214566D01*
X114224371Y-173134962D01*
X114224370Y-173134960D01*
X114224369Y-173134954D01*
X114124367Y-172866839D01*
X114015158Y-172666839D01*
X113987229Y-172615690D01*
X113987224Y-172615682D01*
X113815745Y-172386612D01*
X113815729Y-172386594D01*
X113613405Y-172184270D01*
X113613387Y-172184254D01*
X113384317Y-172012775D01*
X113384309Y-172012770D01*
X113133166Y-171875635D01*
X113133167Y-171875635D01*
X113025915Y-171835632D01*
X112865046Y-171775631D01*
X112865043Y-171775630D01*
X112865037Y-171775628D01*
X112585433Y-171714804D01*
X112371450Y-171699500D01*
X112371448Y-171699500D01*
X109228552Y-171699500D01*
X109228549Y-171699500D01*
X109014566Y-171714804D01*
X108734962Y-171775628D01*
X108466833Y-171875635D01*
X108215690Y-172012770D01*
X108215682Y-172012775D01*
X107986612Y-172184254D01*
X107986594Y-172184270D01*
X107784270Y-172386594D01*
X107784254Y-172386612D01*
X107612775Y-172615682D01*
X107612770Y-172615690D01*
X107475635Y-172866833D01*
X107375628Y-173134962D01*
X107314804Y-173414566D01*
X107299500Y-173628549D01*
X107299500Y-176771450D01*
X107314804Y-176985433D01*
X107375628Y-177265037D01*
X107475635Y-177533166D01*
X107612770Y-177784309D01*
X107612775Y-177784317D01*
X107784254Y-178013387D01*
X107784270Y-178013405D01*
X107986594Y-178215729D01*
X107986612Y-178215745D01*
X108215682Y-178387224D01*
X108215690Y-178387229D01*
X108466833Y-178524364D01*
X108466832Y-178524364D01*
X108466836Y-178524365D01*
X108466839Y-178524367D01*
X108734954Y-178624369D01*
X108734960Y-178624370D01*
X108734962Y-178624371D01*
X109014566Y-178685195D01*
X109014568Y-178685195D01*
X109014572Y-178685196D01*
X109228552Y-178700500D01*
X110205371Y-178700500D01*
X110272410Y-178720185D01*
X110318165Y-178772989D01*
X110328109Y-178842147D01*
X110299084Y-178905703D01*
X110240306Y-178943477D01*
X110224769Y-178946973D01*
X110071211Y-178971294D01*
X110071209Y-178971294D01*
X109716793Y-179066260D01*
X109374260Y-179197746D01*
X109047343Y-179364320D01*
X108739635Y-179564147D01*
X108454498Y-179795047D01*
X108454490Y-179795054D01*
X108195054Y-180054490D01*
X108195047Y-180054498D01*
X107964147Y-180339635D01*
X107764320Y-180647343D01*
X107597746Y-180974260D01*
X107466260Y-181316793D01*
X107371294Y-181671209D01*
X107371294Y-181671211D01*
X107313898Y-182033594D01*
X107299414Y-182309978D01*
X107294696Y-182400000D01*
X104762561Y-182400000D01*
X104727621Y-182142061D01*
X104631686Y-181721741D01*
X104498457Y-181311703D01*
X104498454Y-181311695D01*
X104329014Y-180915269D01*
X104329010Y-180915261D01*
X104124705Y-180535600D01*
X103887200Y-180175792D01*
X103887199Y-180175791D01*
X103618391Y-179838717D01*
X103567774Y-179785776D01*
X101686894Y-181666656D01*
X101574969Y-181529082D01*
X101360010Y-181328324D01*
X101335453Y-181310990D01*
X103213121Y-179433323D01*
X102995772Y-179243430D01*
X102995755Y-179243417D01*
X102646975Y-178990013D01*
X102276859Y-178768879D01*
X102276853Y-178768876D01*
X101888430Y-178581821D01*
X101888416Y-178581815D01*
X101484790Y-178430332D01*
X101484765Y-178430324D01*
X101069183Y-178315630D01*
X100644976Y-178238648D01*
X100215564Y-178200000D01*
X99784435Y-178200000D01*
X99355023Y-178238648D01*
X98930816Y-178315630D01*
X98515234Y-178430324D01*
X98515209Y-178430332D01*
X98111583Y-178581815D01*
X98111569Y-178581821D01*
X97723146Y-178768876D01*
X97723140Y-178768879D01*
X97353024Y-178990013D01*
X97004235Y-179243423D01*
X96786877Y-179433322D01*
X96786877Y-179433323D01*
X98664545Y-181310991D01*
X98639990Y-181328324D01*
X98425031Y-181529082D01*
X98313104Y-181666657D01*
X96432224Y-179785777D01*
X96432223Y-179785777D01*
X96381624Y-179838699D01*
X96381612Y-179838712D01*
X96112800Y-180175791D01*
X96112799Y-180175792D01*
X95875294Y-180535600D01*
X95670989Y-180915261D01*
X95670985Y-180915269D01*
X95501545Y-181311695D01*
X95501542Y-181311703D01*
X95368313Y-181721741D01*
X95272378Y-182142061D01*
X95247378Y-182326623D01*
X95218872Y-182390413D01*
X95160404Y-182428666D01*
X95090537Y-182429236D01*
X95031453Y-182391943D01*
X95001910Y-182328626D01*
X95000500Y-182309978D01*
X95000500Y-168999999D01*
X148418525Y-168999999D01*
X148425403Y-169052242D01*
X148426464Y-169068428D01*
X148426464Y-169075504D01*
X148426465Y-169075513D01*
X148428296Y-169082348D01*
X148431458Y-169098245D01*
X148438338Y-169150498D01*
X148458505Y-169199186D01*
X148463718Y-169214540D01*
X148465551Y-169221381D01*
X148465551Y-169221382D01*
X148469085Y-169227502D01*
X148476259Y-169242047D01*
X148489169Y-169273215D01*
X148496428Y-169290738D01*
X148528508Y-169332545D01*
X148537514Y-169346023D01*
X148539881Y-169350122D01*
X148541058Y-169352161D01*
X148546052Y-169357154D01*
X148556750Y-169369352D01*
X148588832Y-169411162D01*
X148588833Y-169411163D01*
X148588835Y-169411165D01*
X148630653Y-169443253D01*
X148642839Y-169453941D01*
X148647841Y-169458943D01*
X148647843Y-169458944D01*
X148653964Y-169462478D01*
X148667450Y-169471489D01*
X148667453Y-169471491D01*
X148709262Y-169503572D01*
X148757948Y-169523738D01*
X148772488Y-169530908D01*
X148778623Y-169534450D01*
X148778627Y-169534451D01*
X148785455Y-169536281D01*
X148800812Y-169541494D01*
X148831169Y-169554068D01*
X148849503Y-169561662D01*
X148901755Y-169568541D01*
X148917652Y-169571703D01*
X148924493Y-169573536D01*
X148924495Y-169573536D01*
X148931570Y-169573536D01*
X148947755Y-169574597D01*
X148999999Y-169581475D01*
X149000000Y-169581475D01*
X149000001Y-169581475D01*
X149052245Y-169574597D01*
X149068430Y-169573536D01*
X149075508Y-169573536D01*
X149079751Y-169572398D01*
X149082338Y-169571705D01*
X149098244Y-169568541D01*
X149150497Y-169561662D01*
X149199202Y-169541487D01*
X149214551Y-169536278D01*
X149221377Y-169534450D01*
X149227504Y-169530912D01*
X149242039Y-169523743D01*
X149290738Y-169503572D01*
X149332558Y-169471482D01*
X149346036Y-169462478D01*
X149352159Y-169458943D01*
X149357161Y-169453940D01*
X149369342Y-169443256D01*
X149411165Y-169411165D01*
X149443256Y-169369342D01*
X149453940Y-169357161D01*
X149458943Y-169352159D01*
X149462480Y-169346031D01*
X149471482Y-169332558D01*
X149503572Y-169290738D01*
X149523743Y-169242039D01*
X149530914Y-169227502D01*
X149534450Y-169221377D01*
X149536278Y-169214551D01*
X149541487Y-169199202D01*
X149561662Y-169150497D01*
X149568541Y-169098241D01*
X149571703Y-169082348D01*
X149573536Y-169075507D01*
X149573997Y-169061379D01*
X149574989Y-169049262D01*
X149581475Y-169000000D01*
X149574990Y-168950742D01*
X149573996Y-168938618D01*
X149573536Y-168924493D01*
X149571701Y-168917645D01*
X149568541Y-168901754D01*
X149561662Y-168849503D01*
X149541491Y-168800807D01*
X149536283Y-168785463D01*
X149534450Y-168778623D01*
X149534445Y-168778615D01*
X149530912Y-168772495D01*
X149523738Y-168757948D01*
X149503571Y-168709261D01*
X149471492Y-168667455D01*
X149462481Y-168653969D01*
X149459836Y-168649388D01*
X149458943Y-168647841D01*
X149453940Y-168642838D01*
X149443245Y-168630643D01*
X149411164Y-168588834D01*
X149369351Y-168556749D01*
X149357158Y-168546055D01*
X149352162Y-168541059D01*
X149352159Y-168541057D01*
X149346023Y-168537514D01*
X149332551Y-168528512D01*
X149290738Y-168496428D01*
X149273215Y-168489169D01*
X149242047Y-168476259D01*
X149227502Y-168469085D01*
X149221381Y-168465551D01*
X149214540Y-168463718D01*
X149199186Y-168458505D01*
X149150498Y-168438338D01*
X149098245Y-168431458D01*
X149082348Y-168428296D01*
X149075513Y-168426465D01*
X149075509Y-168426464D01*
X149075507Y-168426464D01*
X149075504Y-168426464D01*
X149068430Y-168426464D01*
X149052245Y-168425403D01*
X149000001Y-168418525D01*
X148999999Y-168418525D01*
X148947755Y-168425403D01*
X148931570Y-168426464D01*
X148924493Y-168426464D01*
X148917645Y-168428298D01*
X148901754Y-168431458D01*
X148849501Y-168438338D01*
X148800817Y-168458504D01*
X148785463Y-168463717D01*
X148778622Y-168465550D01*
X148778615Y-168465553D01*
X148772483Y-168469093D01*
X148757948Y-168476261D01*
X148709263Y-168496428D01*
X148709259Y-168496430D01*
X148667452Y-168528509D01*
X148653979Y-168537512D01*
X148647840Y-168541057D01*
X148647838Y-168541058D01*
X148642830Y-168546066D01*
X148630645Y-168556752D01*
X148588834Y-168588834D01*
X148556752Y-168630645D01*
X148546066Y-168642830D01*
X148541058Y-168647838D01*
X148541057Y-168647840D01*
X148537512Y-168653979D01*
X148528509Y-168667452D01*
X148496430Y-168709259D01*
X148496428Y-168709263D01*
X148476261Y-168757948D01*
X148469093Y-168772483D01*
X148465553Y-168778615D01*
X148465550Y-168778622D01*
X148463717Y-168785463D01*
X148458504Y-168800817D01*
X148438338Y-168849501D01*
X148431458Y-168901754D01*
X148428298Y-168917645D01*
X148426464Y-168924492D01*
X148426464Y-168931570D01*
X148425403Y-168947755D01*
X148418525Y-168999998D01*
X148418525Y-168999999D01*
X95000500Y-168999999D01*
X95000500Y-168000000D01*
X114094540Y-168000000D01*
X114114326Y-168188256D01*
X114114327Y-168188259D01*
X114172818Y-168368277D01*
X114172821Y-168368284D01*
X114267467Y-168532216D01*
X114377094Y-168653969D01*
X114394129Y-168672888D01*
X114547265Y-168784148D01*
X114547270Y-168784151D01*
X114720192Y-168861142D01*
X114720197Y-168861144D01*
X114905354Y-168900500D01*
X114905355Y-168900500D01*
X115094644Y-168900500D01*
X115094646Y-168900500D01*
X115279803Y-168861144D01*
X115452730Y-168784151D01*
X115605871Y-168672888D01*
X115732533Y-168532216D01*
X115827179Y-168368284D01*
X115885674Y-168188256D01*
X115905460Y-168000000D01*
X115902990Y-167976500D01*
X117094541Y-167976500D01*
X117114327Y-168164756D01*
X117114328Y-168164759D01*
X117172819Y-168344777D01*
X117172822Y-168344784D01*
X117267468Y-168508716D01*
X117310720Y-168556752D01*
X117394130Y-168649388D01*
X117547266Y-168760648D01*
X117547271Y-168760651D01*
X117720193Y-168837642D01*
X117720198Y-168837644D01*
X117905355Y-168877000D01*
X117905356Y-168877000D01*
X118094645Y-168877000D01*
X118094647Y-168877000D01*
X118279804Y-168837644D01*
X118452731Y-168760651D01*
X118605872Y-168649388D01*
X118732534Y-168508716D01*
X118827180Y-168344784D01*
X118885675Y-168164756D01*
X118905461Y-167976500D01*
X137094539Y-167976500D01*
X137114325Y-168164756D01*
X137114326Y-168164759D01*
X137172817Y-168344777D01*
X137172820Y-168344784D01*
X137267466Y-168508716D01*
X137310718Y-168556752D01*
X137394128Y-168649388D01*
X137547264Y-168760648D01*
X137547269Y-168760651D01*
X137720191Y-168837642D01*
X137720196Y-168837644D01*
X137905353Y-168877000D01*
X137905354Y-168877000D01*
X138094643Y-168877000D01*
X138094645Y-168877000D01*
X138279802Y-168837644D01*
X138452729Y-168760651D01*
X138605870Y-168649388D01*
X138732532Y-168508716D01*
X138827178Y-168344784D01*
X138885673Y-168164756D01*
X138905459Y-167976500D01*
X140094541Y-167976500D01*
X140114327Y-168164756D01*
X140114328Y-168164759D01*
X140172819Y-168344777D01*
X140172822Y-168344784D01*
X140267468Y-168508716D01*
X140310720Y-168556752D01*
X140394130Y-168649388D01*
X140547266Y-168760648D01*
X140547271Y-168760651D01*
X140720193Y-168837642D01*
X140720198Y-168837644D01*
X140905355Y-168877000D01*
X140905356Y-168877000D01*
X141094645Y-168877000D01*
X141094647Y-168877000D01*
X141279804Y-168837644D01*
X141452731Y-168760651D01*
X141605872Y-168649388D01*
X141732534Y-168508716D01*
X141827180Y-168344784D01*
X141885675Y-168164756D01*
X141905461Y-167976500D01*
X141885675Y-167788244D01*
X141827180Y-167608216D01*
X141732534Y-167444284D01*
X141605872Y-167303612D01*
X141605871Y-167303611D01*
X141452735Y-167192351D01*
X141452730Y-167192348D01*
X141279808Y-167115357D01*
X141279803Y-167115355D01*
X141134002Y-167084365D01*
X141094647Y-167076000D01*
X140905355Y-167076000D01*
X140872898Y-167082898D01*
X140720198Y-167115355D01*
X140720193Y-167115357D01*
X140547271Y-167192348D01*
X140547266Y-167192351D01*
X140394130Y-167303611D01*
X140267467Y-167444285D01*
X140172822Y-167608215D01*
X140172819Y-167608222D01*
X140114328Y-167788240D01*
X140114327Y-167788244D01*
X140094541Y-167976500D01*
X138905459Y-167976500D01*
X138885673Y-167788244D01*
X138827178Y-167608216D01*
X138732532Y-167444284D01*
X138605870Y-167303612D01*
X138605869Y-167303611D01*
X138452733Y-167192351D01*
X138452728Y-167192348D01*
X138279806Y-167115357D01*
X138279801Y-167115355D01*
X138134000Y-167084365D01*
X138094645Y-167076000D01*
X137905353Y-167076000D01*
X137872896Y-167082898D01*
X137720196Y-167115355D01*
X137720191Y-167115357D01*
X137547269Y-167192348D01*
X137547264Y-167192351D01*
X137394128Y-167303611D01*
X137267465Y-167444285D01*
X137172820Y-167608215D01*
X137172817Y-167608222D01*
X137114326Y-167788240D01*
X137114325Y-167788244D01*
X137094539Y-167976500D01*
X118905461Y-167976500D01*
X118885675Y-167788244D01*
X118827180Y-167608216D01*
X118732534Y-167444284D01*
X118605872Y-167303612D01*
X118605871Y-167303611D01*
X118452735Y-167192351D01*
X118452730Y-167192348D01*
X118279808Y-167115357D01*
X118279803Y-167115355D01*
X118134002Y-167084365D01*
X118094647Y-167076000D01*
X117905355Y-167076000D01*
X117872898Y-167082898D01*
X117720198Y-167115355D01*
X117720193Y-167115357D01*
X117547271Y-167192348D01*
X117547266Y-167192351D01*
X117394130Y-167303611D01*
X117267467Y-167444285D01*
X117172822Y-167608215D01*
X117172819Y-167608222D01*
X117114328Y-167788240D01*
X117114327Y-167788244D01*
X117094541Y-167976500D01*
X115902990Y-167976500D01*
X115885674Y-167811744D01*
X115827179Y-167631716D01*
X115732533Y-167467784D01*
X115605871Y-167327112D01*
X115573525Y-167303611D01*
X115452734Y-167215851D01*
X115452729Y-167215848D01*
X115279807Y-167138857D01*
X115279802Y-167138855D01*
X115134001Y-167107865D01*
X115094646Y-167099500D01*
X114905354Y-167099500D01*
X114872897Y-167106398D01*
X114720197Y-167138855D01*
X114720192Y-167138857D01*
X114547270Y-167215848D01*
X114547265Y-167215851D01*
X114394129Y-167327111D01*
X114267466Y-167467785D01*
X114172821Y-167631715D01*
X114172818Y-167631722D01*
X114114327Y-167811740D01*
X114114326Y-167811744D01*
X114094540Y-168000000D01*
X95000500Y-168000000D01*
X95000500Y-165000000D01*
X111094540Y-165000000D01*
X111114326Y-165188256D01*
X111114327Y-165188259D01*
X111172818Y-165368277D01*
X111172821Y-165368284D01*
X111267467Y-165532216D01*
X111394129Y-165672888D01*
X111547265Y-165784148D01*
X111547270Y-165784151D01*
X111720192Y-165861142D01*
X111720197Y-165861144D01*
X111905354Y-165900500D01*
X111905355Y-165900500D01*
X112094644Y-165900500D01*
X112094646Y-165900500D01*
X112279803Y-165861144D01*
X112452730Y-165784151D01*
X112605871Y-165672888D01*
X112732533Y-165532216D01*
X112827179Y-165368284D01*
X112885674Y-165188256D01*
X112905460Y-165000000D01*
X112896253Y-164912401D01*
X134094540Y-164912401D01*
X134114326Y-165100657D01*
X134114327Y-165100660D01*
X134172818Y-165280678D01*
X134172821Y-165280685D01*
X134267467Y-165444617D01*
X134346340Y-165532214D01*
X134394129Y-165585289D01*
X134547265Y-165696549D01*
X134547270Y-165696552D01*
X134720192Y-165773543D01*
X134720197Y-165773545D01*
X134905354Y-165812901D01*
X134905355Y-165812901D01*
X135094644Y-165812901D01*
X135094646Y-165812901D01*
X135279803Y-165773545D01*
X135452730Y-165696552D01*
X135605871Y-165585289D01*
X135732533Y-165444617D01*
X135827179Y-165280685D01*
X135885674Y-165100657D01*
X135905460Y-164912401D01*
X135885674Y-164724145D01*
X135827179Y-164544117D01*
X135732533Y-164380185D01*
X135605871Y-164239513D01*
X135573303Y-164215851D01*
X135452734Y-164128252D01*
X135452729Y-164128249D01*
X135279807Y-164051258D01*
X135279802Y-164051256D01*
X135134001Y-164020266D01*
X135094646Y-164011901D01*
X134905354Y-164011901D01*
X134872897Y-164018799D01*
X134720197Y-164051256D01*
X134720192Y-164051258D01*
X134547270Y-164128249D01*
X134547265Y-164128252D01*
X134394129Y-164239512D01*
X134267466Y-164380186D01*
X134172821Y-164544116D01*
X134172818Y-164544123D01*
X134144358Y-164631716D01*
X134114326Y-164724145D01*
X134094540Y-164912401D01*
X112896253Y-164912401D01*
X112885674Y-164811744D01*
X112827179Y-164631716D01*
X112732533Y-164467784D01*
X112605871Y-164327112D01*
X112605870Y-164327111D01*
X112452734Y-164215851D01*
X112452729Y-164215848D01*
X112279807Y-164138857D01*
X112279802Y-164138855D01*
X112134001Y-164107865D01*
X112094646Y-164099500D01*
X111905354Y-164099500D01*
X111872897Y-164106398D01*
X111720197Y-164138855D01*
X111720192Y-164138857D01*
X111547270Y-164215848D01*
X111547265Y-164215851D01*
X111394129Y-164327111D01*
X111267466Y-164467785D01*
X111172821Y-164631715D01*
X111172818Y-164631722D01*
X111114327Y-164811740D01*
X111114326Y-164811744D01*
X111094540Y-165000000D01*
X95000500Y-165000000D01*
X95000500Y-161629887D01*
X116853009Y-161629887D01*
X116872795Y-161818143D01*
X116872796Y-161818146D01*
X116931287Y-161998164D01*
X116931290Y-161998171D01*
X117025936Y-162162103D01*
X117134085Y-162282214D01*
X117152598Y-162302775D01*
X117305734Y-162414035D01*
X117305739Y-162414038D01*
X117478661Y-162491029D01*
X117478666Y-162491031D01*
X117663823Y-162530387D01*
X117663824Y-162530387D01*
X117853113Y-162530387D01*
X117853115Y-162530387D01*
X118038272Y-162491031D01*
X118211199Y-162414038D01*
X118236173Y-162395892D01*
X118330747Y-162327182D01*
X118396553Y-162303702D01*
X118454069Y-162314221D01*
X118463673Y-162318497D01*
X118648830Y-162357853D01*
X118648831Y-162357853D01*
X118838120Y-162357853D01*
X118838122Y-162357853D01*
X119023279Y-162318497D01*
X119196206Y-162241504D01*
X119349347Y-162130241D01*
X119476009Y-161989569D01*
X119570655Y-161825637D01*
X119595231Y-161750000D01*
X139844540Y-161750000D01*
X139864326Y-161938256D01*
X139864327Y-161938259D01*
X139922818Y-162118277D01*
X139922821Y-162118284D01*
X140017467Y-162282216D01*
X140046285Y-162314221D01*
X140144129Y-162422888D01*
X140297265Y-162534148D01*
X140297270Y-162534151D01*
X140470192Y-162611142D01*
X140470197Y-162611144D01*
X140655354Y-162650500D01*
X140655355Y-162650500D01*
X140844644Y-162650500D01*
X140844646Y-162650500D01*
X141029803Y-162611144D01*
X141199566Y-162535559D01*
X141268813Y-162526275D01*
X141300430Y-162535557D01*
X141470197Y-162611144D01*
X141655354Y-162650500D01*
X141655355Y-162650500D01*
X141844644Y-162650500D01*
X141844646Y-162650500D01*
X142029803Y-162611144D01*
X142202730Y-162534151D01*
X142355871Y-162422888D01*
X142482533Y-162282216D01*
X142577179Y-162118284D01*
X142635674Y-161938256D01*
X142655460Y-161750000D01*
X142635674Y-161561744D01*
X142577179Y-161381716D01*
X142482533Y-161217784D01*
X142355871Y-161077112D01*
X142355870Y-161077111D01*
X142202734Y-160965851D01*
X142202729Y-160965848D01*
X142029807Y-160888857D01*
X142029802Y-160888855D01*
X141884001Y-160857865D01*
X141844646Y-160849500D01*
X141655354Y-160849500D01*
X141622897Y-160856398D01*
X141470197Y-160888855D01*
X141470192Y-160888857D01*
X141300436Y-160964439D01*
X141231186Y-160973724D01*
X141199564Y-160964439D01*
X141029807Y-160888857D01*
X141029802Y-160888855D01*
X140884001Y-160857865D01*
X140844646Y-160849500D01*
X140655354Y-160849500D01*
X140622897Y-160856398D01*
X140470197Y-160888855D01*
X140470192Y-160888857D01*
X140297270Y-160965848D01*
X140297265Y-160965851D01*
X140144129Y-161077111D01*
X140017466Y-161217785D01*
X139922821Y-161381715D01*
X139922818Y-161381722D01*
X139864327Y-161561740D01*
X139864326Y-161561744D01*
X139844540Y-161750000D01*
X119595231Y-161750000D01*
X119629150Y-161645609D01*
X119648936Y-161457353D01*
X119629150Y-161269097D01*
X119570655Y-161089069D01*
X119476009Y-160925137D01*
X119349347Y-160784465D01*
X119327709Y-160768744D01*
X119196210Y-160673204D01*
X119196205Y-160673201D01*
X119023283Y-160596210D01*
X119023278Y-160596208D01*
X118877477Y-160565218D01*
X118838122Y-160556853D01*
X118648830Y-160556853D01*
X118616373Y-160563751D01*
X118463673Y-160596208D01*
X118463668Y-160596210D01*
X118290747Y-160673201D01*
X118171198Y-160760058D01*
X118105391Y-160783537D01*
X118047882Y-160773021D01*
X118038273Y-160768743D01*
X118038271Y-160768742D01*
X117892470Y-160737752D01*
X117853115Y-160729387D01*
X117663823Y-160729387D01*
X117631366Y-160736285D01*
X117478666Y-160768742D01*
X117478661Y-160768744D01*
X117305739Y-160845735D01*
X117305734Y-160845738D01*
X117152598Y-160956998D01*
X117025935Y-161097672D01*
X116931290Y-161261602D01*
X116931287Y-161261609D01*
X116872796Y-161441627D01*
X116872795Y-161441631D01*
X116853009Y-161629887D01*
X95000500Y-161629887D01*
X95000500Y-153951000D01*
X96003922Y-153951000D01*
X96024517Y-154186403D01*
X96024519Y-154186413D01*
X96085675Y-154414655D01*
X96085677Y-154414659D01*
X96085678Y-154414663D01*
X96128223Y-154505901D01*
X96185546Y-154628830D01*
X96185548Y-154628834D01*
X96293862Y-154783521D01*
X96321082Y-154822396D01*
X96321087Y-154822402D01*
X96443011Y-154944326D01*
X96476496Y-155005649D01*
X96471512Y-155075341D01*
X96429640Y-155131274D01*
X96398664Y-155148189D01*
X96267250Y-155197203D01*
X96267245Y-155197206D01*
X96152036Y-155283452D01*
X96152033Y-155283455D01*
X96065787Y-155398664D01*
X96065783Y-155398671D01*
X96015489Y-155533517D01*
X96009082Y-155593116D01*
X96009082Y-155593123D01*
X96009081Y-155593135D01*
X96009081Y-157388870D01*
X96009082Y-157388876D01*
X96015489Y-157448483D01*
X96065783Y-157583328D01*
X96065787Y-157583335D01*
X96152033Y-157698544D01*
X96152036Y-157698547D01*
X96267245Y-157784793D01*
X96267252Y-157784797D01*
X96402098Y-157835091D01*
X96402097Y-157835091D01*
X96409025Y-157835835D01*
X96461708Y-157841500D01*
X98257453Y-157841499D01*
X98317064Y-157835091D01*
X98451912Y-157784796D01*
X98567127Y-157698546D01*
X98653377Y-157583331D01*
X98703672Y-157448483D01*
X98710081Y-157388873D01*
X98710081Y-156500000D01*
X109594540Y-156500000D01*
X109614326Y-156688256D01*
X109614327Y-156688259D01*
X109672818Y-156868277D01*
X109672821Y-156868284D01*
X109767467Y-157032216D01*
X109894129Y-157172888D01*
X110047265Y-157284148D01*
X110047270Y-157284151D01*
X110220192Y-157361142D01*
X110220197Y-157361144D01*
X110405354Y-157400500D01*
X110405355Y-157400500D01*
X110594644Y-157400500D01*
X110594646Y-157400500D01*
X110779803Y-157361144D01*
X110952730Y-157284151D01*
X111105871Y-157172888D01*
X111232533Y-157032216D01*
X111251133Y-157000000D01*
X153594540Y-157000000D01*
X153614326Y-157188256D01*
X153614327Y-157188259D01*
X153672818Y-157368277D01*
X153672821Y-157368284D01*
X153767467Y-157532216D01*
X153813495Y-157583335D01*
X153894129Y-157672888D01*
X154047265Y-157784148D01*
X154047270Y-157784151D01*
X154220192Y-157861142D01*
X154220197Y-157861144D01*
X154405354Y-157900500D01*
X154405355Y-157900500D01*
X154594644Y-157900500D01*
X154594646Y-157900500D01*
X154779803Y-157861144D01*
X154952730Y-157784151D01*
X155105871Y-157672888D01*
X155232533Y-157532216D01*
X155327179Y-157368284D01*
X155385674Y-157188256D01*
X155405460Y-157000000D01*
X155385674Y-156811744D01*
X155327179Y-156631716D01*
X155286929Y-156562001D01*
X155270456Y-156494100D01*
X155286928Y-156438002D01*
X155327179Y-156368287D01*
X155385674Y-156188259D01*
X155405460Y-156000003D01*
X155385674Y-155811747D01*
X155327179Y-155631719D01*
X155308577Y-155599500D01*
X155286927Y-155562000D01*
X155270454Y-155494100D01*
X155286928Y-155438000D01*
X155327179Y-155368284D01*
X155385674Y-155188256D01*
X155405460Y-155000000D01*
X155385674Y-154811744D01*
X155327179Y-154631716D01*
X155286927Y-154561999D01*
X155270454Y-154494101D01*
X155286927Y-154438001D01*
X155327179Y-154368284D01*
X155385674Y-154188256D01*
X155404247Y-154011536D01*
X155430832Y-153946924D01*
X155488129Y-153906939D01*
X155527568Y-153900500D01*
X155594644Y-153900500D01*
X155594646Y-153900500D01*
X155779803Y-153861144D01*
X155952730Y-153784151D01*
X156105871Y-153672888D01*
X156232533Y-153532216D01*
X156327179Y-153368284D01*
X156385674Y-153188256D01*
X156405460Y-153000000D01*
X156385674Y-152811744D01*
X156327179Y-152631716D01*
X156232533Y-152467784D01*
X156105871Y-152327112D01*
X156105870Y-152327111D01*
X155952734Y-152215851D01*
X155952729Y-152215848D01*
X155779807Y-152138857D01*
X155779802Y-152138855D01*
X155634001Y-152107865D01*
X155594646Y-152099500D01*
X155405354Y-152099500D01*
X155372897Y-152106398D01*
X155220197Y-152138855D01*
X155220192Y-152138857D01*
X155050436Y-152214439D01*
X154981186Y-152223724D01*
X154949564Y-152214439D01*
X154779807Y-152138857D01*
X154779802Y-152138855D01*
X154634001Y-152107865D01*
X154594646Y-152099500D01*
X154405354Y-152099500D01*
X154372897Y-152106398D01*
X154220197Y-152138855D01*
X154220192Y-152138857D01*
X154047270Y-152215848D01*
X154047265Y-152215851D01*
X153894129Y-152327111D01*
X153767466Y-152467785D01*
X153672821Y-152631715D01*
X153672818Y-152631722D01*
X153614327Y-152811740D01*
X153614326Y-152811744D01*
X153594540Y-153000000D01*
X153614326Y-153188256D01*
X153614327Y-153188259D01*
X153672818Y-153368277D01*
X153672820Y-153368281D01*
X153672821Y-153368284D01*
X153702836Y-153420271D01*
X153713072Y-153438001D01*
X153729543Y-153505901D01*
X153713072Y-153561998D01*
X153696416Y-153590849D01*
X153672820Y-153631718D01*
X153672818Y-153631722D01*
X153614327Y-153811740D01*
X153614326Y-153811744D01*
X153594540Y-154000000D01*
X153614326Y-154188256D01*
X153614327Y-154188259D01*
X153672818Y-154368277D01*
X153672820Y-154368281D01*
X153672821Y-154368284D01*
X153713071Y-154437999D01*
X153713072Y-154438001D01*
X153729543Y-154505901D01*
X153713072Y-154561999D01*
X153672820Y-154631718D01*
X153672818Y-154631722D01*
X153636572Y-154743277D01*
X153614326Y-154811744D01*
X153594540Y-155000000D01*
X153614326Y-155188256D01*
X153614327Y-155188259D01*
X153672821Y-155368285D01*
X153713071Y-155438000D01*
X153729544Y-155505900D01*
X153713073Y-155561998D01*
X153672819Y-155631722D01*
X153614327Y-155811743D01*
X153614326Y-155811747D01*
X153594540Y-156000003D01*
X153614326Y-156188259D01*
X153614327Y-156188262D01*
X153672818Y-156368280D01*
X153672821Y-156368287D01*
X153713070Y-156438000D01*
X153729543Y-156505900D01*
X153713071Y-156561999D01*
X153672820Y-156631716D01*
X153614327Y-156811740D01*
X153614326Y-156811744D01*
X153594540Y-157000000D01*
X111251133Y-157000000D01*
X111327179Y-156868284D01*
X111385674Y-156688256D01*
X111405460Y-156500000D01*
X111385674Y-156311744D01*
X111327179Y-156131716D01*
X111232533Y-155967784D01*
X111105871Y-155827112D01*
X111084723Y-155811747D01*
X110952734Y-155715851D01*
X110952729Y-155715848D01*
X110779807Y-155638857D01*
X110779802Y-155638855D01*
X110634001Y-155607865D01*
X110594646Y-155599500D01*
X110405354Y-155599500D01*
X110372897Y-155606398D01*
X110220197Y-155638855D01*
X110220192Y-155638857D01*
X110047270Y-155715848D01*
X110047265Y-155715851D01*
X109894129Y-155827111D01*
X109767466Y-155967785D01*
X109672821Y-156131715D01*
X109672818Y-156131722D01*
X109614327Y-156311740D01*
X109614326Y-156311744D01*
X109594540Y-156500000D01*
X98710081Y-156500000D01*
X98710080Y-155593128D01*
X98703672Y-155533517D01*
X98691171Y-155500001D01*
X98653378Y-155398671D01*
X98653374Y-155398664D01*
X98567128Y-155283455D01*
X98567125Y-155283452D01*
X98451916Y-155197206D01*
X98451909Y-155197202D01*
X98320498Y-155148189D01*
X98264564Y-155106318D01*
X98240147Y-155040853D01*
X98254999Y-154972580D01*
X98276144Y-154944332D01*
X98398076Y-154822401D01*
X98533616Y-154628830D01*
X98633484Y-154414663D01*
X98694644Y-154186408D01*
X98715240Y-153951000D01*
X98694644Y-153715592D01*
X98633484Y-153487337D01*
X98533616Y-153273171D01*
X98474161Y-153188259D01*
X98398075Y-153079597D01*
X98318478Y-153000000D01*
X112094540Y-153000000D01*
X112114326Y-153188256D01*
X112114327Y-153188259D01*
X112172818Y-153368277D01*
X112172820Y-153368281D01*
X112172821Y-153368284D01*
X112267467Y-153532216D01*
X112357059Y-153631718D01*
X112394129Y-153672888D01*
X112547265Y-153784148D01*
X112547270Y-153784151D01*
X112720192Y-153861142D01*
X112720197Y-153861144D01*
X112905354Y-153900500D01*
X112905355Y-153900500D01*
X113094644Y-153900500D01*
X113094646Y-153900500D01*
X113279803Y-153861144D01*
X113405041Y-153805383D01*
X113474288Y-153796098D01*
X113537565Y-153825726D01*
X113574779Y-153884861D01*
X113574115Y-153954727D01*
X113562864Y-153980660D01*
X113547821Y-154006716D01*
X113547818Y-154006722D01*
X113489327Y-154186740D01*
X113489326Y-154186744D01*
X113469540Y-154375000D01*
X113489326Y-154563256D01*
X113489327Y-154563259D01*
X113547818Y-154743277D01*
X113547821Y-154743284D01*
X113642467Y-154907216D01*
X113731097Y-155005649D01*
X113769129Y-155047888D01*
X113922265Y-155159148D01*
X113922270Y-155159151D01*
X114095192Y-155236142D01*
X114095197Y-155236144D01*
X114280354Y-155275500D01*
X114280355Y-155275500D01*
X114469644Y-155275500D01*
X114469646Y-155275500D01*
X114654803Y-155236144D01*
X114827730Y-155159151D01*
X114980871Y-155047888D01*
X115107533Y-154907216D01*
X115202179Y-154743284D01*
X115260674Y-154563256D01*
X115280460Y-154375000D01*
X115260674Y-154186744D01*
X115202179Y-154006716D01*
X115107533Y-153842784D01*
X114980871Y-153702112D01*
X114980870Y-153702111D01*
X114827734Y-153590851D01*
X114827729Y-153590848D01*
X114654807Y-153513857D01*
X114654802Y-153513855D01*
X114509001Y-153482865D01*
X114469646Y-153474500D01*
X114280354Y-153474500D01*
X114247897Y-153481398D01*
X114095197Y-153513855D01*
X114095192Y-153513857D01*
X113969960Y-153569615D01*
X113900710Y-153578900D01*
X113837433Y-153549272D01*
X113800220Y-153490137D01*
X113800885Y-153420271D01*
X113812138Y-153394335D01*
X113827179Y-153368284D01*
X113885674Y-153188256D01*
X113905460Y-153000000D01*
X113885674Y-152811744D01*
X113827179Y-152631716D01*
X113732533Y-152467784D01*
X113605871Y-152327112D01*
X113605870Y-152327111D01*
X113452734Y-152215851D01*
X113452729Y-152215848D01*
X113279807Y-152138857D01*
X113279802Y-152138855D01*
X113134001Y-152107865D01*
X113094646Y-152099500D01*
X112905354Y-152099500D01*
X112872897Y-152106398D01*
X112720197Y-152138855D01*
X112720192Y-152138857D01*
X112547270Y-152215848D01*
X112547265Y-152215851D01*
X112394129Y-152327111D01*
X112267466Y-152467785D01*
X112172821Y-152631715D01*
X112172818Y-152631722D01*
X112114327Y-152811740D01*
X112114326Y-152811744D01*
X112094540Y-153000000D01*
X98318478Y-153000000D01*
X98230983Y-152912506D01*
X98230976Y-152912501D01*
X98037415Y-152776967D01*
X98037411Y-152776965D01*
X98037409Y-152776964D01*
X97823244Y-152677097D01*
X97823240Y-152677096D01*
X97823236Y-152677094D01*
X97594994Y-152615938D01*
X97594984Y-152615936D01*
X97359582Y-152595341D01*
X97359580Y-152595341D01*
X97124177Y-152615936D01*
X97124167Y-152615938D01*
X96895925Y-152677094D01*
X96895916Y-152677098D01*
X96681752Y-152776964D01*
X96681750Y-152776965D01*
X96488178Y-152912505D01*
X96321086Y-153079597D01*
X96185546Y-153273169D01*
X96185545Y-153273171D01*
X96085679Y-153487335D01*
X96085675Y-153487344D01*
X96024519Y-153715586D01*
X96024517Y-153715596D01*
X96003922Y-153950999D01*
X96003922Y-153951000D01*
X95000500Y-153951000D01*
X95000500Y-146585000D01*
X96003922Y-146585000D01*
X96024517Y-146820403D01*
X96024519Y-146820413D01*
X96085675Y-147048655D01*
X96085677Y-147048659D01*
X96085678Y-147048663D01*
X96117644Y-147117214D01*
X96185546Y-147262830D01*
X96185548Y-147262834D01*
X96321082Y-147456395D01*
X96321087Y-147456402D01*
X96488178Y-147623493D01*
X96488184Y-147623498D01*
X96674175Y-147753730D01*
X96717800Y-147808307D01*
X96724994Y-147877805D01*
X96693471Y-147940160D01*
X96674176Y-147956880D01*
X96488503Y-148086890D01*
X96488501Y-148086891D01*
X96321472Y-148253920D01*
X96321467Y-148253926D01*
X96185981Y-148447420D01*
X96185980Y-148447422D01*
X96086151Y-148661507D01*
X96086148Y-148661513D01*
X96028945Y-148874999D01*
X96028945Y-148875000D01*
X96925895Y-148875000D01*
X96900088Y-148915156D01*
X96859581Y-149053111D01*
X96859581Y-149196889D01*
X96900088Y-149334844D01*
X96925895Y-149375000D01*
X96028945Y-149375000D01*
X96086148Y-149588486D01*
X96086151Y-149588492D01*
X96185980Y-149802578D01*
X96321475Y-149996082D01*
X96488498Y-150163105D01*
X96682002Y-150298600D01*
X96896088Y-150398429D01*
X96896097Y-150398433D01*
X97109581Y-150455634D01*
X97109581Y-149560501D01*
X97217266Y-149609680D01*
X97323818Y-149625000D01*
X97395344Y-149625000D01*
X97501896Y-149609680D01*
X97609581Y-149560501D01*
X97609581Y-150455633D01*
X97823064Y-150398433D01*
X97823073Y-150398429D01*
X98037159Y-150298600D01*
X98230663Y-150163105D01*
X98397686Y-149996082D01*
X98533181Y-149802578D01*
X98633010Y-149588492D01*
X98633013Y-149588486D01*
X98690217Y-149375000D01*
X97793267Y-149375000D01*
X97819074Y-149334844D01*
X97859581Y-149196889D01*
X97859581Y-149053111D01*
X97819074Y-148915156D01*
X97793267Y-148875000D01*
X98690217Y-148875000D01*
X98690216Y-148874999D01*
X98633013Y-148661513D01*
X98633010Y-148661507D01*
X98533181Y-148447422D01*
X98533180Y-148447420D01*
X98397694Y-148253926D01*
X98397689Y-148253920D01*
X98230659Y-148086890D01*
X98044986Y-147956879D01*
X98001361Y-147902302D01*
X97994169Y-147832804D01*
X98025691Y-147770449D01*
X98044987Y-147753730D01*
X98230982Y-147623495D01*
X98398076Y-147456401D01*
X98533616Y-147262830D01*
X98633484Y-147048663D01*
X98694644Y-146820408D01*
X98715240Y-146585000D01*
X100829922Y-146585000D01*
X100850517Y-146820403D01*
X100850519Y-146820413D01*
X100911675Y-147048655D01*
X100911677Y-147048659D01*
X100911678Y-147048663D01*
X100943644Y-147117214D01*
X101011546Y-147262830D01*
X101011548Y-147262834D01*
X101147082Y-147456395D01*
X101147087Y-147456402D01*
X101314178Y-147623493D01*
X101314184Y-147623498D01*
X101500175Y-147753730D01*
X101543800Y-147808307D01*
X101550994Y-147877805D01*
X101519471Y-147940160D01*
X101500176Y-147956880D01*
X101314503Y-148086890D01*
X101314501Y-148086891D01*
X101147472Y-148253920D01*
X101147467Y-148253926D01*
X101011981Y-148447420D01*
X101011980Y-148447422D01*
X100912151Y-148661507D01*
X100912148Y-148661513D01*
X100854945Y-148874999D01*
X100854945Y-148875000D01*
X101751895Y-148875000D01*
X101726088Y-148915156D01*
X101685581Y-149053111D01*
X101685581Y-149196889D01*
X101726088Y-149334844D01*
X101751895Y-149375000D01*
X100854945Y-149375000D01*
X100912148Y-149588486D01*
X100912151Y-149588492D01*
X101011980Y-149802578D01*
X101147475Y-149996082D01*
X101314498Y-150163105D01*
X101508002Y-150298600D01*
X101722088Y-150398429D01*
X101722097Y-150398433D01*
X101935581Y-150455634D01*
X101935581Y-149560501D01*
X102043266Y-149609680D01*
X102149818Y-149625000D01*
X102221344Y-149625000D01*
X102327896Y-149609680D01*
X102435581Y-149560501D01*
X102435581Y-150455633D01*
X102649064Y-150398433D01*
X102649073Y-150398429D01*
X102863159Y-150298600D01*
X103056663Y-150163105D01*
X103223686Y-149996082D01*
X103359181Y-149802578D01*
X103459010Y-149588492D01*
X103459013Y-149588486D01*
X103516217Y-149375000D01*
X102619267Y-149375000D01*
X102645074Y-149334844D01*
X102685581Y-149196889D01*
X102685581Y-149053111D01*
X102645074Y-148915156D01*
X102619267Y-148875000D01*
X103516217Y-148875000D01*
X103516216Y-148874999D01*
X103459013Y-148661513D01*
X103459010Y-148661507D01*
X103359181Y-148447422D01*
X103359180Y-148447420D01*
X103223694Y-148253926D01*
X103223689Y-148253920D01*
X103056659Y-148086890D01*
X102870986Y-147956879D01*
X102827361Y-147902302D01*
X102820169Y-147832804D01*
X102851691Y-147770449D01*
X102870987Y-147753730D01*
X103056982Y-147623495D01*
X103224076Y-147456401D01*
X103359616Y-147262830D01*
X103459484Y-147048663D01*
X103467084Y-147020300D01*
X103503449Y-146960640D01*
X103566295Y-146930110D01*
X103635671Y-146938404D01*
X103689549Y-146982889D01*
X103694244Y-146990389D01*
X103767467Y-147117216D01*
X103894129Y-147257888D01*
X104047265Y-147369148D01*
X104047270Y-147369151D01*
X104220192Y-147446142D01*
X104220197Y-147446144D01*
X104405354Y-147485500D01*
X104405355Y-147485500D01*
X104594644Y-147485500D01*
X104594646Y-147485500D01*
X104779803Y-147446144D01*
X104952730Y-147369151D01*
X105105871Y-147257888D01*
X105232533Y-147117216D01*
X105327179Y-146953284D01*
X105385674Y-146773256D01*
X105405460Y-146585000D01*
X107509540Y-146585000D01*
X107529326Y-146773256D01*
X107529327Y-146773259D01*
X107587818Y-146953277D01*
X107587821Y-146953284D01*
X107682467Y-147117216D01*
X107809129Y-147257888D01*
X107962265Y-147369148D01*
X107962270Y-147369151D01*
X108135192Y-147446142D01*
X108135197Y-147446144D01*
X108320354Y-147485500D01*
X108320355Y-147485500D01*
X108509644Y-147485500D01*
X108509646Y-147485500D01*
X108694803Y-147446144D01*
X108867730Y-147369151D01*
X109020871Y-147257888D01*
X109147533Y-147117216D01*
X109242179Y-146953284D01*
X109300674Y-146773256D01*
X109320460Y-146585000D01*
X109300674Y-146396744D01*
X109242179Y-146216716D01*
X109147533Y-146052784D01*
X109100006Y-146000000D01*
X128094540Y-146000000D01*
X128114326Y-146188256D01*
X128114327Y-146188259D01*
X128172818Y-146368277D01*
X128172821Y-146368284D01*
X128267467Y-146532216D01*
X128394129Y-146672888D01*
X128547265Y-146784148D01*
X128547270Y-146784151D01*
X128720192Y-146861142D01*
X128720197Y-146861144D01*
X128905354Y-146900500D01*
X128905355Y-146900500D01*
X129094644Y-146900500D01*
X129094646Y-146900500D01*
X129279803Y-146861144D01*
X129452730Y-146784151D01*
X129605871Y-146672888D01*
X129732533Y-146532216D01*
X129827179Y-146368284D01*
X129885674Y-146188256D01*
X129905460Y-146000000D01*
X129885674Y-145811744D01*
X129827179Y-145631716D01*
X129732533Y-145467784D01*
X129605871Y-145327112D01*
X129605870Y-145327111D01*
X129452734Y-145215851D01*
X129452729Y-145215848D01*
X129279807Y-145138857D01*
X129279802Y-145138855D01*
X129134001Y-145107865D01*
X129094646Y-145099500D01*
X128905354Y-145099500D01*
X128872897Y-145106398D01*
X128720197Y-145138855D01*
X128720192Y-145138857D01*
X128547270Y-145215848D01*
X128547265Y-145215851D01*
X128394129Y-145327111D01*
X128267466Y-145467785D01*
X128172821Y-145631715D01*
X128172818Y-145631722D01*
X128142882Y-145723857D01*
X128114326Y-145811744D01*
X128094540Y-146000000D01*
X109100006Y-146000000D01*
X109020871Y-145912112D01*
X109020870Y-145912111D01*
X108867734Y-145800851D01*
X108867729Y-145800848D01*
X108694807Y-145723857D01*
X108694802Y-145723855D01*
X108549001Y-145692865D01*
X108509646Y-145684500D01*
X108320354Y-145684500D01*
X108287897Y-145691398D01*
X108135197Y-145723855D01*
X108135192Y-145723857D01*
X107962270Y-145800848D01*
X107962265Y-145800851D01*
X107809129Y-145912111D01*
X107682466Y-146052785D01*
X107587821Y-146216715D01*
X107587818Y-146216722D01*
X107538573Y-146368284D01*
X107529326Y-146396744D01*
X107509540Y-146585000D01*
X105405460Y-146585000D01*
X105385674Y-146396744D01*
X105327179Y-146216716D01*
X105232533Y-146052784D01*
X105105871Y-145912112D01*
X105105870Y-145912111D01*
X104952734Y-145800851D01*
X104952729Y-145800848D01*
X104779807Y-145723857D01*
X104779802Y-145723855D01*
X104634001Y-145692865D01*
X104594646Y-145684500D01*
X104405354Y-145684500D01*
X104372897Y-145691398D01*
X104220197Y-145723855D01*
X104220192Y-145723857D01*
X104047270Y-145800848D01*
X104047265Y-145800851D01*
X103894129Y-145912111D01*
X103767465Y-146052785D01*
X103694246Y-146179606D01*
X103643679Y-146227822D01*
X103575072Y-146241045D01*
X103510207Y-146215077D01*
X103469679Y-146158162D01*
X103467084Y-146149700D01*
X103459485Y-146121342D01*
X103459484Y-146121337D01*
X103359616Y-145907171D01*
X103285171Y-145800851D01*
X103224075Y-145713597D01*
X103056983Y-145546506D01*
X103056977Y-145546501D01*
X102871423Y-145416575D01*
X102827798Y-145361998D01*
X102820604Y-145292500D01*
X102852127Y-145230145D01*
X102871423Y-145213425D01*
X102977918Y-145138856D01*
X103056982Y-145083495D01*
X103224076Y-144916401D01*
X103359616Y-144722830D01*
X103459484Y-144508663D01*
X103520644Y-144280408D01*
X103541240Y-144045000D01*
X103522487Y-143830661D01*
X103536253Y-143762163D01*
X103584868Y-143711980D01*
X103652897Y-143696046D01*
X103718741Y-143719421D01*
X103753402Y-143757855D01*
X103767467Y-143782216D01*
X103873971Y-143900500D01*
X103894129Y-143922888D01*
X104047265Y-144034148D01*
X104047270Y-144034151D01*
X104220192Y-144111142D01*
X104220197Y-144111144D01*
X104405354Y-144150500D01*
X104405355Y-144150500D01*
X104594644Y-144150500D01*
X104594646Y-144150500D01*
X104779803Y-144111144D01*
X104928363Y-144045000D01*
X107549540Y-144045000D01*
X107569326Y-144233256D01*
X107569327Y-144233259D01*
X107627818Y-144413277D01*
X107627821Y-144413284D01*
X107722467Y-144577216D01*
X107849129Y-144717888D01*
X108002265Y-144829148D01*
X108002270Y-144829151D01*
X108175192Y-144906142D01*
X108175197Y-144906144D01*
X108360354Y-144945500D01*
X108360355Y-144945500D01*
X108549644Y-144945500D01*
X108549646Y-144945500D01*
X108734803Y-144906144D01*
X108907730Y-144829151D01*
X109060871Y-144717888D01*
X109187533Y-144577216D01*
X109282179Y-144413284D01*
X109340674Y-144233256D01*
X109360460Y-144045000D01*
X109340674Y-143856744D01*
X109282179Y-143676716D01*
X109187533Y-143512784D01*
X109060871Y-143372112D01*
X109060870Y-143372111D01*
X108907734Y-143260851D01*
X108907729Y-143260848D01*
X108734807Y-143183857D01*
X108734802Y-143183855D01*
X108589001Y-143152865D01*
X108549646Y-143144500D01*
X108360354Y-143144500D01*
X108327897Y-143151398D01*
X108175197Y-143183855D01*
X108175192Y-143183857D01*
X108002270Y-143260848D01*
X108002265Y-143260851D01*
X107849129Y-143372111D01*
X107722466Y-143512785D01*
X107627821Y-143676715D01*
X107627818Y-143676722D01*
X107584645Y-143809596D01*
X107569326Y-143856744D01*
X107549540Y-144045000D01*
X104928363Y-144045000D01*
X104952730Y-144034151D01*
X105105871Y-143922888D01*
X105232533Y-143782216D01*
X105327179Y-143618284D01*
X105385674Y-143438256D01*
X105405460Y-143250000D01*
X105385674Y-143061744D01*
X105365612Y-143000000D01*
X120844540Y-143000000D01*
X120864326Y-143188256D01*
X120864327Y-143188259D01*
X120922818Y-143368277D01*
X120922821Y-143368284D01*
X121017467Y-143532216D01*
X121144129Y-143672888D01*
X121297265Y-143784148D01*
X121297270Y-143784151D01*
X121470192Y-143861142D01*
X121470197Y-143861144D01*
X121655354Y-143900500D01*
X121655355Y-143900500D01*
X121844644Y-143900500D01*
X121844646Y-143900500D01*
X122029803Y-143861144D01*
X122202730Y-143784151D01*
X122355871Y-143672888D01*
X122482533Y-143532216D01*
X122577179Y-143368284D01*
X122635674Y-143188256D01*
X122655460Y-143000000D01*
X122635674Y-142811744D01*
X122577179Y-142631716D01*
X122482533Y-142467784D01*
X122355871Y-142327112D01*
X122307296Y-142291820D01*
X122202734Y-142215851D01*
X122202729Y-142215848D01*
X122029807Y-142138857D01*
X122029802Y-142138855D01*
X121884001Y-142107865D01*
X121844646Y-142099500D01*
X121655354Y-142099500D01*
X121622897Y-142106398D01*
X121470197Y-142138855D01*
X121470192Y-142138857D01*
X121297270Y-142215848D01*
X121297265Y-142215851D01*
X121144129Y-142327111D01*
X121017466Y-142467785D01*
X120922821Y-142631715D01*
X120922818Y-142631722D01*
X120867979Y-142800500D01*
X120864326Y-142811744D01*
X120844540Y-143000000D01*
X105365612Y-143000000D01*
X105327179Y-142881716D01*
X105232533Y-142717784D01*
X105105871Y-142577112D01*
X105105870Y-142577111D01*
X104952734Y-142465851D01*
X104952729Y-142465848D01*
X104779807Y-142388857D01*
X104779802Y-142388855D01*
X104634001Y-142357865D01*
X104594646Y-142349500D01*
X104405354Y-142349500D01*
X104372897Y-142356398D01*
X104220197Y-142388855D01*
X104220192Y-142388857D01*
X104047270Y-142465848D01*
X104047265Y-142465851D01*
X103894129Y-142577111D01*
X103767466Y-142717785D01*
X103672821Y-142881715D01*
X103672818Y-142881722D01*
X103617598Y-143051673D01*
X103614326Y-143061744D01*
X103601029Y-143188259D01*
X103594540Y-143250000D01*
X103601342Y-143314723D01*
X103588772Y-143383453D01*
X103541039Y-143434476D01*
X103473299Y-143451593D01*
X103407058Y-143429370D01*
X103365638Y-143380085D01*
X103359617Y-143367173D01*
X103359615Y-143367169D01*
X103224077Y-143173600D01*
X103194977Y-143144500D01*
X103102148Y-143051671D01*
X103068665Y-142990351D01*
X103073649Y-142920659D01*
X103115520Y-142864725D01*
X103146496Y-142847810D01*
X103277912Y-142798796D01*
X103393127Y-142712546D01*
X103479377Y-142597331D01*
X103529672Y-142462483D01*
X103536081Y-142402873D01*
X103536081Y-142000000D01*
X145094540Y-142000000D01*
X145114326Y-142188256D01*
X145114327Y-142188259D01*
X145172818Y-142368277D01*
X145172821Y-142368284D01*
X145267467Y-142532216D01*
X145357063Y-142631722D01*
X145394129Y-142672888D01*
X145547265Y-142784148D01*
X145547270Y-142784151D01*
X145720192Y-142861142D01*
X145720197Y-142861144D01*
X145905354Y-142900500D01*
X145905355Y-142900500D01*
X146094644Y-142900500D01*
X146094646Y-142900500D01*
X146279803Y-142861144D01*
X146452730Y-142784151D01*
X146605871Y-142672888D01*
X146732533Y-142532216D01*
X146827179Y-142368284D01*
X146833812Y-142347870D01*
X147389500Y-142347870D01*
X147389501Y-142347876D01*
X147395908Y-142407483D01*
X147446202Y-142542328D01*
X147446206Y-142542335D01*
X147532452Y-142657544D01*
X147532455Y-142657547D01*
X147647664Y-142743793D01*
X147647671Y-142743797D01*
X147782517Y-142794091D01*
X147782516Y-142794091D01*
X147789444Y-142794835D01*
X147842127Y-142800500D01*
X149537872Y-142800499D01*
X149597483Y-142794091D01*
X149732331Y-142743796D01*
X149847546Y-142657546D01*
X149933796Y-142542331D01*
X149984091Y-142407483D01*
X149990500Y-142347873D01*
X149990500Y-141500001D01*
X155004532Y-141500001D01*
X155024364Y-141726686D01*
X155024366Y-141726697D01*
X155083258Y-141946488D01*
X155083261Y-141946497D01*
X155179431Y-142152732D01*
X155179432Y-142152734D01*
X155309954Y-142339141D01*
X155470858Y-142500045D01*
X155470861Y-142500047D01*
X155657266Y-142630568D01*
X155863504Y-142726739D01*
X156083308Y-142785635D01*
X156245230Y-142799801D01*
X156309998Y-142805468D01*
X156310000Y-142805468D01*
X156310002Y-142805468D01*
X156366807Y-142800498D01*
X156536692Y-142785635D01*
X156756496Y-142726739D01*
X156962734Y-142630568D01*
X157149139Y-142500047D01*
X157310047Y-142339139D01*
X157343180Y-142291819D01*
X157397755Y-142248194D01*
X157467254Y-142241000D01*
X157517639Y-142262623D01*
X157547266Y-142284148D01*
X157547270Y-142284151D01*
X157720192Y-142361142D01*
X157720197Y-142361144D01*
X157905354Y-142400500D01*
X157905355Y-142400500D01*
X158094644Y-142400500D01*
X158094646Y-142400500D01*
X158279803Y-142361144D01*
X158452730Y-142284151D01*
X158605871Y-142172888D01*
X158732533Y-142032216D01*
X158827179Y-141868284D01*
X158885674Y-141688256D01*
X158905460Y-141500000D01*
X158885674Y-141311744D01*
X158827179Y-141131716D01*
X158732533Y-140967784D01*
X158605871Y-140827112D01*
X158584713Y-140811740D01*
X158500173Y-140750318D01*
X158457507Y-140694988D01*
X158451528Y-140625375D01*
X158484134Y-140563580D01*
X158500173Y-140549682D01*
X158568620Y-140499952D01*
X158605871Y-140472888D01*
X158732533Y-140332216D01*
X158827179Y-140168284D01*
X158885674Y-139988256D01*
X158905460Y-139800000D01*
X158885674Y-139611744D01*
X158827179Y-139431716D01*
X158732533Y-139267784D01*
X158605871Y-139127112D01*
X158584398Y-139111511D01*
X158452734Y-139015851D01*
X158452729Y-139015848D01*
X158279807Y-138938857D01*
X158279802Y-138938855D01*
X158134001Y-138907865D01*
X158094646Y-138899500D01*
X157905354Y-138899500D01*
X157872897Y-138906398D01*
X157720197Y-138938855D01*
X157720192Y-138938857D01*
X157547270Y-139015848D01*
X157547265Y-139015851D01*
X157394129Y-139127111D01*
X157267467Y-139267783D01*
X157257387Y-139285243D01*
X157206819Y-139333458D01*
X157138212Y-139346680D01*
X157073347Y-139320712D01*
X157042613Y-139285243D01*
X157039167Y-139279274D01*
X157032533Y-139267784D01*
X156905871Y-139127112D01*
X156884398Y-139111511D01*
X156752734Y-139015851D01*
X156752729Y-139015848D01*
X156579807Y-138938857D01*
X156579802Y-138938855D01*
X156434001Y-138907865D01*
X156394646Y-138899500D01*
X156205354Y-138899500D01*
X156172897Y-138906398D01*
X156020197Y-138938855D01*
X156020192Y-138938857D01*
X155847270Y-139015848D01*
X155847265Y-139015851D01*
X155694129Y-139127111D01*
X155567466Y-139267785D01*
X155472821Y-139431715D01*
X155472818Y-139431722D01*
X155415476Y-139608204D01*
X155414326Y-139611744D01*
X155394540Y-139800000D01*
X155414326Y-139988256D01*
X155414327Y-139988259D01*
X155472818Y-140168277D01*
X155472823Y-140168289D01*
X155551806Y-140305092D01*
X155568279Y-140372992D01*
X155545426Y-140439019D01*
X155515543Y-140468665D01*
X155470860Y-140499952D01*
X155309954Y-140660858D01*
X155179432Y-140847265D01*
X155179431Y-140847267D01*
X155083261Y-141053502D01*
X155083258Y-141053511D01*
X155024366Y-141273302D01*
X155024364Y-141273313D01*
X155004532Y-141499998D01*
X155004532Y-141500001D01*
X149990500Y-141500001D01*
X149990499Y-140652128D01*
X149984091Y-140592517D01*
X149973298Y-140563580D01*
X149933797Y-140457671D01*
X149933793Y-140457664D01*
X149847547Y-140342455D01*
X149847544Y-140342452D01*
X149732335Y-140256206D01*
X149732328Y-140256202D01*
X149597482Y-140205908D01*
X149597483Y-140205908D01*
X149537883Y-140199501D01*
X149537881Y-140199500D01*
X149537873Y-140199500D01*
X149537864Y-140199500D01*
X147842129Y-140199500D01*
X147842123Y-140199501D01*
X147782516Y-140205908D01*
X147647671Y-140256202D01*
X147647664Y-140256206D01*
X147532455Y-140342452D01*
X147532452Y-140342455D01*
X147446206Y-140457664D01*
X147446202Y-140457671D01*
X147395908Y-140592517D01*
X147389501Y-140652116D01*
X147389501Y-140652123D01*
X147389500Y-140652135D01*
X147389500Y-142347870D01*
X146833812Y-142347870D01*
X146885674Y-142188256D01*
X146905460Y-142000000D01*
X146885674Y-141811744D01*
X146827179Y-141631716D01*
X146732533Y-141467784D01*
X146605871Y-141327112D01*
X146584719Y-141311744D01*
X146452734Y-141215851D01*
X146452729Y-141215848D01*
X146279807Y-141138857D01*
X146279802Y-141138855D01*
X146134001Y-141107865D01*
X146094646Y-141099500D01*
X145905354Y-141099500D01*
X145872897Y-141106398D01*
X145720197Y-141138855D01*
X145720192Y-141138857D01*
X145547270Y-141215848D01*
X145547265Y-141215851D01*
X145394129Y-141327111D01*
X145267466Y-141467785D01*
X145172821Y-141631715D01*
X145172818Y-141631722D01*
X145114327Y-141811740D01*
X145114326Y-141811744D01*
X145094540Y-142000000D01*
X103536081Y-142000000D01*
X103536080Y-141000000D01*
X112844540Y-141000000D01*
X112864326Y-141188256D01*
X112864327Y-141188259D01*
X112922818Y-141368277D01*
X112922821Y-141368284D01*
X113017467Y-141532216D01*
X113107063Y-141631722D01*
X113144129Y-141672888D01*
X113297265Y-141784148D01*
X113297270Y-141784151D01*
X113470192Y-141861142D01*
X113470197Y-141861144D01*
X113655354Y-141900500D01*
X113655355Y-141900500D01*
X113844644Y-141900500D01*
X113844646Y-141900500D01*
X114029803Y-141861144D01*
X114202730Y-141784151D01*
X114355871Y-141672888D01*
X114482533Y-141532216D01*
X114577179Y-141368284D01*
X114635674Y-141188256D01*
X114655460Y-141000000D01*
X114635674Y-140811744D01*
X114577179Y-140631716D01*
X114536927Y-140561999D01*
X114520454Y-140494101D01*
X114536927Y-140438001D01*
X114577179Y-140368284D01*
X114635674Y-140188256D01*
X114647218Y-140078419D01*
X126366121Y-140078419D01*
X126385907Y-140266675D01*
X126385908Y-140266678D01*
X126444399Y-140446696D01*
X126444402Y-140446703D01*
X126539048Y-140610635D01*
X126665710Y-140751307D01*
X126818846Y-140862567D01*
X126818851Y-140862570D01*
X126991773Y-140939561D01*
X126991778Y-140939563D01*
X127176935Y-140978919D01*
X127176936Y-140978919D01*
X127366225Y-140978919D01*
X127366227Y-140978919D01*
X127551384Y-140939563D01*
X127724311Y-140862570D01*
X127877452Y-140751307D01*
X128004114Y-140610635D01*
X128098760Y-140446703D01*
X128157255Y-140266675D01*
X128177041Y-140078419D01*
X128157255Y-139890163D01*
X128098760Y-139710135D01*
X128004114Y-139546203D01*
X127877452Y-139405531D01*
X127858183Y-139391531D01*
X127724315Y-139294270D01*
X127724310Y-139294267D01*
X127551388Y-139217276D01*
X127551383Y-139217274D01*
X127405582Y-139186284D01*
X127366227Y-139177919D01*
X127176935Y-139177919D01*
X127144478Y-139184817D01*
X126991778Y-139217274D01*
X126991773Y-139217276D01*
X126818851Y-139294267D01*
X126818846Y-139294270D01*
X126665710Y-139405530D01*
X126539047Y-139546204D01*
X126444402Y-139710134D01*
X126444399Y-139710141D01*
X126390457Y-139876159D01*
X126385907Y-139890163D01*
X126366121Y-140078419D01*
X114647218Y-140078419D01*
X114655460Y-140000000D01*
X114635674Y-139811744D01*
X114577179Y-139631716D01*
X114482533Y-139467784D01*
X114355871Y-139327112D01*
X114355870Y-139327111D01*
X114202734Y-139215851D01*
X114202729Y-139215848D01*
X114029807Y-139138857D01*
X114029802Y-139138855D01*
X113884001Y-139107865D01*
X113844646Y-139099500D01*
X113655354Y-139099500D01*
X113622897Y-139106398D01*
X113470197Y-139138855D01*
X113470192Y-139138857D01*
X113297270Y-139215848D01*
X113297265Y-139215851D01*
X113144129Y-139327111D01*
X113017466Y-139467785D01*
X112922821Y-139631715D01*
X112922818Y-139631722D01*
X112868142Y-139800000D01*
X112864326Y-139811744D01*
X112844540Y-140000000D01*
X112864326Y-140188256D01*
X112864327Y-140188259D01*
X112922818Y-140368277D01*
X112922820Y-140368281D01*
X112922821Y-140368284D01*
X112948444Y-140412664D01*
X112963072Y-140438001D01*
X112979543Y-140505901D01*
X112963072Y-140561998D01*
X112937018Y-140607127D01*
X112922820Y-140631718D01*
X112922818Y-140631722D01*
X112883963Y-140751307D01*
X112864326Y-140811744D01*
X112844540Y-141000000D01*
X103536080Y-141000000D01*
X103536080Y-140607128D01*
X103529672Y-140547517D01*
X103514150Y-140505901D01*
X103479378Y-140412671D01*
X103479374Y-140412664D01*
X103393128Y-140297455D01*
X103393125Y-140297452D01*
X103277916Y-140211206D01*
X103277909Y-140211202D01*
X103171433Y-140171489D01*
X103115499Y-140129617D01*
X103091445Y-140068268D01*
X103091040Y-140064421D01*
X103091041Y-140064419D01*
X103071255Y-139876163D01*
X103012760Y-139696135D01*
X102918114Y-139532203D01*
X102791452Y-139391531D01*
X102791451Y-139391530D01*
X102638315Y-139280270D01*
X102638310Y-139280267D01*
X102465388Y-139203276D01*
X102465383Y-139203274D01*
X102319582Y-139172284D01*
X102280227Y-139163919D01*
X102090935Y-139163919D01*
X102058478Y-139170817D01*
X101905778Y-139203274D01*
X101905773Y-139203276D01*
X101732851Y-139280267D01*
X101732846Y-139280270D01*
X101579710Y-139391530D01*
X101453047Y-139532204D01*
X101358402Y-139696134D01*
X101358399Y-139696141D01*
X101304787Y-139861144D01*
X101299907Y-139876163D01*
X101291920Y-139952159D01*
X101279716Y-140068269D01*
X101253131Y-140132883D01*
X101199729Y-140171489D01*
X101093250Y-140211203D01*
X101093245Y-140211206D01*
X100978036Y-140297452D01*
X100978033Y-140297455D01*
X100891787Y-140412664D01*
X100891783Y-140412671D01*
X100841489Y-140547517D01*
X100835082Y-140607116D01*
X100835082Y-140607123D01*
X100835081Y-140607135D01*
X100835081Y-142402870D01*
X100835082Y-142402876D01*
X100841489Y-142462483D01*
X100891783Y-142597328D01*
X100891787Y-142597335D01*
X100978033Y-142712544D01*
X100978036Y-142712547D01*
X101093245Y-142798793D01*
X101093252Y-142798797D01*
X101224662Y-142847810D01*
X101280596Y-142889681D01*
X101305013Y-142955145D01*
X101290161Y-143023418D01*
X101269011Y-143051673D01*
X101147084Y-143173600D01*
X101011546Y-143367169D01*
X101011545Y-143367171D01*
X100911679Y-143581335D01*
X100911675Y-143581344D01*
X100850519Y-143809586D01*
X100850517Y-143809596D01*
X100829922Y-144044999D01*
X100829922Y-144045000D01*
X100850517Y-144280403D01*
X100850519Y-144280413D01*
X100911675Y-144508655D01*
X100911677Y-144508659D01*
X100911678Y-144508663D01*
X100943644Y-144577214D01*
X101011546Y-144722830D01*
X101011548Y-144722834D01*
X101147082Y-144916395D01*
X101147087Y-144916402D01*
X101314178Y-145083493D01*
X101314184Y-145083498D01*
X101499739Y-145213425D01*
X101543364Y-145268002D01*
X101550558Y-145337500D01*
X101519035Y-145399855D01*
X101499739Y-145416575D01*
X101314178Y-145546505D01*
X101147086Y-145713597D01*
X101011546Y-145907169D01*
X101011545Y-145907171D01*
X100911679Y-146121335D01*
X100911675Y-146121344D01*
X100850519Y-146349586D01*
X100850517Y-146349596D01*
X100829922Y-146584999D01*
X100829922Y-146585000D01*
X98715240Y-146585000D01*
X98694644Y-146349592D01*
X98633484Y-146121337D01*
X98533616Y-145907171D01*
X98459171Y-145800851D01*
X98398075Y-145713597D01*
X98230983Y-145546506D01*
X98230977Y-145546501D01*
X98045423Y-145416575D01*
X98001798Y-145361998D01*
X97994604Y-145292500D01*
X98026127Y-145230145D01*
X98045423Y-145213425D01*
X98151918Y-145138856D01*
X98230982Y-145083495D01*
X98398076Y-144916401D01*
X98533616Y-144722830D01*
X98633484Y-144508663D01*
X98694644Y-144280408D01*
X98715240Y-144045000D01*
X98694644Y-143809592D01*
X98633484Y-143581337D01*
X98533616Y-143367171D01*
X98459170Y-143260851D01*
X98398077Y-143173600D01*
X98368977Y-143144500D01*
X98276148Y-143051671D01*
X98242665Y-142990351D01*
X98247649Y-142920659D01*
X98289520Y-142864725D01*
X98320496Y-142847810D01*
X98451912Y-142798796D01*
X98567127Y-142712546D01*
X98653377Y-142597331D01*
X98703672Y-142462483D01*
X98710081Y-142402873D01*
X98710080Y-140607128D01*
X98703672Y-140547517D01*
X98688150Y-140505901D01*
X98653378Y-140412671D01*
X98653374Y-140412664D01*
X98567128Y-140297455D01*
X98567125Y-140297452D01*
X98451916Y-140211206D01*
X98451911Y-140211203D01*
X98337118Y-140168388D01*
X98281185Y-140126516D01*
X98257132Y-140065170D01*
X98245255Y-139952163D01*
X98186760Y-139772135D01*
X98092114Y-139608203D01*
X97965452Y-139467531D01*
X97965451Y-139467530D01*
X97812315Y-139356270D01*
X97812310Y-139356267D01*
X97639388Y-139279276D01*
X97639383Y-139279274D01*
X97493582Y-139248284D01*
X97454227Y-139239919D01*
X97264935Y-139239919D01*
X97232478Y-139246817D01*
X97079778Y-139279274D01*
X97079773Y-139279276D01*
X96906851Y-139356267D01*
X96906846Y-139356270D01*
X96753710Y-139467530D01*
X96627047Y-139608204D01*
X96532402Y-139772134D01*
X96532399Y-139772141D01*
X96498066Y-139877809D01*
X96473907Y-139952163D01*
X96462109Y-140064419D01*
X96462030Y-140065168D01*
X96435445Y-140129783D01*
X96382043Y-140168388D01*
X96267250Y-140211203D01*
X96267245Y-140211206D01*
X96152036Y-140297452D01*
X96152033Y-140297455D01*
X96065787Y-140412664D01*
X96065783Y-140412671D01*
X96015489Y-140547517D01*
X96009082Y-140607116D01*
X96009082Y-140607123D01*
X96009081Y-140607135D01*
X96009081Y-142402870D01*
X96009082Y-142402876D01*
X96015489Y-142462483D01*
X96065783Y-142597328D01*
X96065787Y-142597335D01*
X96152033Y-142712544D01*
X96152036Y-142712547D01*
X96267245Y-142798793D01*
X96267252Y-142798797D01*
X96398662Y-142847810D01*
X96454596Y-142889681D01*
X96479013Y-142955145D01*
X96464161Y-143023418D01*
X96443011Y-143051673D01*
X96321084Y-143173600D01*
X96185546Y-143367169D01*
X96185545Y-143367171D01*
X96085679Y-143581335D01*
X96085675Y-143581344D01*
X96024519Y-143809586D01*
X96024517Y-143809596D01*
X96003922Y-144044999D01*
X96003922Y-144045000D01*
X96024517Y-144280403D01*
X96024519Y-144280413D01*
X96085675Y-144508655D01*
X96085677Y-144508659D01*
X96085678Y-144508663D01*
X96117644Y-144577214D01*
X96185546Y-144722830D01*
X96185548Y-144722834D01*
X96321082Y-144916395D01*
X96321087Y-144916402D01*
X96488178Y-145083493D01*
X96488184Y-145083498D01*
X96673739Y-145213425D01*
X96717364Y-145268002D01*
X96724558Y-145337500D01*
X96693035Y-145399855D01*
X96673739Y-145416575D01*
X96488178Y-145546505D01*
X96321086Y-145713597D01*
X96185546Y-145907169D01*
X96185545Y-145907171D01*
X96085679Y-146121335D01*
X96085675Y-146121344D01*
X96024519Y-146349586D01*
X96024517Y-146349596D01*
X96003922Y-146584999D01*
X96003922Y-146585000D01*
X95000500Y-146585000D01*
X95000500Y-139000000D01*
X115094540Y-139000000D01*
X115114326Y-139188256D01*
X115114327Y-139188259D01*
X115172818Y-139368277D01*
X115172821Y-139368284D01*
X115267467Y-139532216D01*
X115357063Y-139631722D01*
X115394129Y-139672888D01*
X115547265Y-139784148D01*
X115547270Y-139784151D01*
X115720192Y-139861142D01*
X115720197Y-139861144D01*
X115905354Y-139900500D01*
X115905355Y-139900500D01*
X116094644Y-139900500D01*
X116094646Y-139900500D01*
X116279803Y-139861144D01*
X116452730Y-139784151D01*
X116605871Y-139672888D01*
X116732533Y-139532216D01*
X116827179Y-139368284D01*
X116885674Y-139188256D01*
X116905460Y-139000000D01*
X116903075Y-138977309D01*
X118316121Y-138977309D01*
X118335907Y-139165565D01*
X118335908Y-139165568D01*
X118394399Y-139345586D01*
X118394402Y-139345593D01*
X118489048Y-139509525D01*
X118577899Y-139608204D01*
X118615710Y-139650197D01*
X118768846Y-139761457D01*
X118768851Y-139761460D01*
X118941773Y-139838451D01*
X118941778Y-139838453D01*
X119126935Y-139877809D01*
X119126936Y-139877809D01*
X119316225Y-139877809D01*
X119316227Y-139877809D01*
X119501384Y-139838453D01*
X119674311Y-139761460D01*
X119827452Y-139650197D01*
X119954114Y-139509525D01*
X120048760Y-139345593D01*
X120070308Y-139279275D01*
X120084191Y-139236549D01*
X120123629Y-139178873D01*
X120187987Y-139151675D01*
X120202122Y-139150867D01*
X120278237Y-139150867D01*
X120278239Y-139150867D01*
X120463396Y-139111511D01*
X120636323Y-139034518D01*
X120789464Y-138923255D01*
X120916126Y-138782583D01*
X121010772Y-138618651D01*
X121069267Y-138438623D01*
X121089053Y-138250367D01*
X121069267Y-138062111D01*
X121010772Y-137882083D01*
X120916126Y-137718151D01*
X120789464Y-137577479D01*
X120789463Y-137577478D01*
X120636327Y-137466218D01*
X120636322Y-137466215D01*
X120463400Y-137389224D01*
X120463395Y-137389222D01*
X120309812Y-137356578D01*
X120278239Y-137349867D01*
X120088947Y-137349867D01*
X119973800Y-137374342D01*
X119904133Y-137369025D01*
X119855871Y-137336024D01*
X119827452Y-137304462D01*
X119827445Y-137304456D01*
X119674315Y-137193201D01*
X119674310Y-137193198D01*
X119501388Y-137116207D01*
X119501383Y-137116205D01*
X119355582Y-137085215D01*
X119316227Y-137076850D01*
X119126935Y-137076850D01*
X119094478Y-137083748D01*
X118941778Y-137116205D01*
X118941773Y-137116207D01*
X118768851Y-137193198D01*
X118768846Y-137193201D01*
X118615710Y-137304461D01*
X118489047Y-137445135D01*
X118394402Y-137609065D01*
X118394399Y-137609072D01*
X118358765Y-137718744D01*
X118335907Y-137789094D01*
X118316121Y-137977350D01*
X118335907Y-138165606D01*
X118335908Y-138165609D01*
X118394399Y-138345627D01*
X118394402Y-138345634D01*
X118434640Y-138415328D01*
X118451113Y-138483228D01*
X118434641Y-138539327D01*
X118394401Y-138609025D01*
X118338010Y-138782581D01*
X118335907Y-138789053D01*
X118316121Y-138977309D01*
X116903075Y-138977309D01*
X116885674Y-138811744D01*
X116827179Y-138631716D01*
X116732533Y-138467784D01*
X116605871Y-138327112D01*
X116534536Y-138275284D01*
X116452734Y-138215851D01*
X116452729Y-138215848D01*
X116279807Y-138138857D01*
X116279802Y-138138855D01*
X116134001Y-138107865D01*
X116094646Y-138099500D01*
X115905354Y-138099500D01*
X115872897Y-138106398D01*
X115720197Y-138138855D01*
X115720192Y-138138857D01*
X115547270Y-138215848D01*
X115547265Y-138215851D01*
X115394129Y-138327111D01*
X115267466Y-138467785D01*
X115172821Y-138631715D01*
X115172818Y-138631722D01*
X115115705Y-138807500D01*
X115114326Y-138811744D01*
X115094540Y-139000000D01*
X95000500Y-139000000D01*
X95000500Y-135036870D01*
X96009081Y-135036870D01*
X96009082Y-135036876D01*
X96015489Y-135096483D01*
X96065783Y-135231328D01*
X96065787Y-135231335D01*
X96152033Y-135346544D01*
X96152036Y-135346547D01*
X96267245Y-135432793D01*
X96267252Y-135432797D01*
X96267255Y-135432798D01*
X96399179Y-135482002D01*
X96455112Y-135523873D01*
X96479530Y-135589337D01*
X96464679Y-135657610D01*
X96443528Y-135685865D01*
X96321467Y-135807926D01*
X96185981Y-136001420D01*
X96185980Y-136001422D01*
X96086151Y-136215507D01*
X96086148Y-136215513D01*
X96028945Y-136428999D01*
X96028945Y-136429000D01*
X96925895Y-136429000D01*
X96900088Y-136469156D01*
X96859581Y-136607111D01*
X96859581Y-136750889D01*
X96900088Y-136888844D01*
X96925895Y-136929000D01*
X96028945Y-136929000D01*
X96086148Y-137142486D01*
X96086151Y-137142492D01*
X96185980Y-137356578D01*
X96321475Y-137550082D01*
X96488498Y-137717105D01*
X96682002Y-137852600D01*
X96896088Y-137952429D01*
X96896097Y-137952433D01*
X97109581Y-138009634D01*
X97109581Y-137114501D01*
X97217266Y-137163680D01*
X97323818Y-137179000D01*
X97395344Y-137179000D01*
X97501896Y-137163680D01*
X97609581Y-137114501D01*
X97609581Y-138009633D01*
X97823064Y-137952433D01*
X97823073Y-137952429D01*
X97920497Y-137907000D01*
X111196959Y-137907000D01*
X111216745Y-138095256D01*
X111216746Y-138095259D01*
X111275237Y-138275277D01*
X111275240Y-138275284D01*
X111369886Y-138439216D01*
X111409515Y-138483228D01*
X111496548Y-138579888D01*
X111649684Y-138691148D01*
X111649689Y-138691151D01*
X111822611Y-138768142D01*
X111822616Y-138768144D01*
X112007773Y-138807500D01*
X112007774Y-138807500D01*
X112197063Y-138807500D01*
X112197065Y-138807500D01*
X112382222Y-138768144D01*
X112555149Y-138691151D01*
X112708290Y-138579888D01*
X112834952Y-138439216D01*
X112929598Y-138275284D01*
X112988093Y-138095256D01*
X113007879Y-137907000D01*
X112988093Y-137718744D01*
X112929598Y-137538716D01*
X112834952Y-137374784D01*
X112708290Y-137234112D01*
X112651981Y-137193201D01*
X112555153Y-137122851D01*
X112555148Y-137122848D01*
X112382226Y-137045857D01*
X112382221Y-137045855D01*
X112236420Y-137014865D01*
X112197065Y-137006500D01*
X112007773Y-137006500D01*
X111975316Y-137013398D01*
X111822616Y-137045855D01*
X111822611Y-137045857D01*
X111649689Y-137122848D01*
X111649684Y-137122851D01*
X111496548Y-137234111D01*
X111369885Y-137374785D01*
X111275240Y-137538715D01*
X111275237Y-137538722D01*
X111216937Y-137718152D01*
X111216745Y-137718744D01*
X111196959Y-137907000D01*
X97920497Y-137907000D01*
X98037159Y-137852600D01*
X98230663Y-137717105D01*
X98397686Y-137550082D01*
X98533181Y-137356578D01*
X98633010Y-137142492D01*
X98633013Y-137142486D01*
X98690217Y-136929000D01*
X97793267Y-136929000D01*
X97819074Y-136888844D01*
X97859581Y-136750889D01*
X97859581Y-136607111D01*
X97819074Y-136469156D01*
X97793267Y-136429000D01*
X98690217Y-136429000D01*
X98690216Y-136428999D01*
X98633013Y-136215513D01*
X98633010Y-136215507D01*
X98533181Y-136001422D01*
X98533180Y-136001420D01*
X98397694Y-135807926D01*
X98397689Y-135807920D01*
X98275634Y-135685865D01*
X98242149Y-135624542D01*
X98247133Y-135554850D01*
X98289005Y-135498917D01*
X98319981Y-135482002D01*
X98451912Y-135432796D01*
X98567127Y-135346546D01*
X98653377Y-135231331D01*
X98703672Y-135096483D01*
X98710081Y-135036873D01*
X98710080Y-134063000D01*
X114044540Y-134063000D01*
X114064326Y-134251256D01*
X114064327Y-134251259D01*
X114122818Y-134431277D01*
X114122821Y-134431284D01*
X114217467Y-134595216D01*
X114344129Y-134735888D01*
X114497265Y-134847148D01*
X114497270Y-134847151D01*
X114670192Y-134924142D01*
X114670197Y-134924144D01*
X114855354Y-134963500D01*
X114855355Y-134963500D01*
X115044644Y-134963500D01*
X115044646Y-134963500D01*
X115229803Y-134924144D01*
X115402730Y-134847151D01*
X115555871Y-134735888D01*
X115682533Y-134595216D01*
X115777179Y-134431284D01*
X115835674Y-134251256D01*
X115855460Y-134063000D01*
X115852338Y-134033299D01*
X115864907Y-133964571D01*
X115912639Y-133913547D01*
X115975659Y-133896339D01*
X116098805Y-133896339D01*
X116098807Y-133896339D01*
X116283964Y-133856983D01*
X116456891Y-133779990D01*
X116610032Y-133668727D01*
X116736694Y-133528055D01*
X116831340Y-133364123D01*
X116889835Y-133184095D01*
X116909621Y-132995839D01*
X116889835Y-132807583D01*
X116831340Y-132627555D01*
X116736694Y-132463623D01*
X116610032Y-132322951D01*
X116610031Y-132322950D01*
X116456895Y-132211690D01*
X116456890Y-132211687D01*
X116283968Y-132134696D01*
X116283963Y-132134694D01*
X116138162Y-132103704D01*
X116098807Y-132095339D01*
X115909515Y-132095339D01*
X115877058Y-132102237D01*
X115724358Y-132134694D01*
X115724353Y-132134696D01*
X115551431Y-132211687D01*
X115551426Y-132211690D01*
X115398290Y-132322950D01*
X115271627Y-132463624D01*
X115176982Y-132627554D01*
X115176979Y-132627561D01*
X115124687Y-132788500D01*
X115118487Y-132807583D01*
X115098701Y-132995839D01*
X115101822Y-133025540D01*
X115089254Y-133094268D01*
X115041522Y-133145292D01*
X114978502Y-133162500D01*
X114855354Y-133162500D01*
X114822897Y-133169398D01*
X114670197Y-133201855D01*
X114670192Y-133201857D01*
X114497270Y-133278848D01*
X114497265Y-133278851D01*
X114344129Y-133390111D01*
X114217466Y-133530785D01*
X114122821Y-133694715D01*
X114122818Y-133694722D01*
X114070097Y-133856983D01*
X114064326Y-133874744D01*
X114044540Y-134063000D01*
X98710080Y-134063000D01*
X98710080Y-133241128D01*
X98704880Y-133192757D01*
X98703672Y-133181516D01*
X98653378Y-133046671D01*
X98653374Y-133046664D01*
X98567128Y-132931455D01*
X98567125Y-132931452D01*
X98451916Y-132845206D01*
X98451909Y-132845202D01*
X98317063Y-132794908D01*
X98317064Y-132794908D01*
X98257464Y-132788501D01*
X98257462Y-132788500D01*
X98257454Y-132788500D01*
X98257445Y-132788500D01*
X96461710Y-132788500D01*
X96461704Y-132788501D01*
X96402097Y-132794908D01*
X96267252Y-132845202D01*
X96267245Y-132845206D01*
X96152036Y-132931452D01*
X96152033Y-132931455D01*
X96065787Y-133046664D01*
X96065783Y-133046671D01*
X96015489Y-133181517D01*
X96009082Y-133241116D01*
X96009082Y-133241123D01*
X96009081Y-133241135D01*
X96009081Y-135036870D01*
X95000500Y-135036870D01*
X95000500Y-131906753D01*
X127070423Y-131906753D01*
X127090209Y-132095009D01*
X127090210Y-132095012D01*
X127148701Y-132275030D01*
X127148704Y-132275037D01*
X127243350Y-132438969D01*
X127265549Y-132463623D01*
X127370012Y-132579641D01*
X127523148Y-132690901D01*
X127523153Y-132690904D01*
X127696075Y-132767895D01*
X127696080Y-132767897D01*
X127881237Y-132807253D01*
X127881238Y-132807253D01*
X128070527Y-132807253D01*
X128070529Y-132807253D01*
X128255686Y-132767897D01*
X128428613Y-132690904D01*
X128581754Y-132579641D01*
X128708416Y-132438969D01*
X128803062Y-132275037D01*
X128861557Y-132095009D01*
X128881343Y-131906753D01*
X128861557Y-131718497D01*
X128803062Y-131538469D01*
X128708416Y-131374537D01*
X128581754Y-131233865D01*
X128581753Y-131233864D01*
X128428617Y-131122604D01*
X128428612Y-131122601D01*
X128255690Y-131045610D01*
X128255685Y-131045608D01*
X128109884Y-131014618D01*
X128070529Y-131006253D01*
X127881237Y-131006253D01*
X127848780Y-131013151D01*
X127696080Y-131045608D01*
X127696075Y-131045610D01*
X127523153Y-131122601D01*
X127523148Y-131122604D01*
X127370012Y-131233864D01*
X127243349Y-131374538D01*
X127148704Y-131538468D01*
X127148701Y-131538475D01*
X127090210Y-131718493D01*
X127090209Y-131718497D01*
X127070423Y-131906753D01*
X95000500Y-131906753D01*
X95000500Y-130320000D01*
X95880840Y-130320000D01*
X95921652Y-130454541D01*
X96014503Y-130628253D01*
X96014507Y-130628260D01*
X96139471Y-130780528D01*
X96291739Y-130905491D01*
X96465465Y-130998349D01*
X96600000Y-131039159D01*
X96600000Y-130320000D01*
X95880840Y-130320000D01*
X95000500Y-130320000D01*
X95000500Y-128800000D01*
X95844659Y-128800000D01*
X95863975Y-128996129D01*
X95863976Y-128996132D01*
X95907271Y-129138857D01*
X95921188Y-129184733D01*
X96014086Y-129358532D01*
X96017473Y-129363601D01*
X96015955Y-129364615D01*
X96039918Y-129421042D01*
X96028124Y-129489909D01*
X96017515Y-129506420D01*
X96017893Y-129506673D01*
X96014505Y-129511742D01*
X95921652Y-129685458D01*
X95880839Y-129819999D01*
X95880840Y-129820000D01*
X96635517Y-129820000D01*
X96564199Y-129904993D01*
X96525000Y-130012694D01*
X96525000Y-130127306D01*
X96564199Y-130235007D01*
X96637871Y-130322805D01*
X96737129Y-130380112D01*
X96821564Y-130395000D01*
X96878436Y-130395000D01*
X96962871Y-130380112D01*
X97062129Y-130322805D01*
X97100000Y-130277672D01*
X97100000Y-131039159D01*
X97234534Y-130998349D01*
X97408259Y-130905492D01*
X97413320Y-130902111D01*
X97414444Y-130903793D01*
X97470203Y-130880086D01*
X97539075Y-130891851D01*
X97556186Y-130902843D01*
X97556399Y-130902526D01*
X97561457Y-130905906D01*
X97561462Y-130905910D01*
X97735273Y-130998814D01*
X97923868Y-131056024D01*
X98120000Y-131075341D01*
X98316132Y-131056024D01*
X98504727Y-130998814D01*
X98678538Y-130905910D01*
X98830883Y-130780883D01*
X98955910Y-130628538D01*
X99048814Y-130454727D01*
X99106024Y-130266132D01*
X99125341Y-130070000D01*
X99118447Y-130000000D01*
X117594540Y-130000000D01*
X117614326Y-130188256D01*
X117614327Y-130188259D01*
X117672818Y-130368277D01*
X117672821Y-130368284D01*
X117767467Y-130532216D01*
X117853946Y-130628260D01*
X117894129Y-130672888D01*
X118047265Y-130784148D01*
X118047270Y-130784151D01*
X118220192Y-130861142D01*
X118220197Y-130861144D01*
X118405354Y-130900500D01*
X118405355Y-130900500D01*
X118594644Y-130900500D01*
X118594646Y-130900500D01*
X118779803Y-130861144D01*
X118952730Y-130784151D01*
X119105871Y-130672888D01*
X119232533Y-130532216D01*
X119327179Y-130368284D01*
X119385674Y-130188256D01*
X119405460Y-130000000D01*
X119385674Y-129811744D01*
X119327179Y-129631716D01*
X119232533Y-129467784D01*
X119105871Y-129327112D01*
X119105870Y-129327111D01*
X118952734Y-129215851D01*
X118952729Y-129215848D01*
X118779807Y-129138857D01*
X118779802Y-129138855D01*
X118634001Y-129107865D01*
X118594646Y-129099500D01*
X118405354Y-129099500D01*
X118372897Y-129106398D01*
X118220197Y-129138855D01*
X118220192Y-129138857D01*
X118047270Y-129215848D01*
X118047265Y-129215851D01*
X117894129Y-129327111D01*
X117767466Y-129467785D01*
X117672821Y-129631715D01*
X117672818Y-129631722D01*
X117631175Y-129759888D01*
X117614326Y-129811744D01*
X117594540Y-130000000D01*
X99118447Y-130000000D01*
X99106024Y-129873868D01*
X99048814Y-129685273D01*
X98955910Y-129511462D01*
X98955907Y-129511458D01*
X98952523Y-129506393D01*
X98954164Y-129505296D01*
X98930405Y-129449361D01*
X98942194Y-129380493D01*
X98952888Y-129363851D01*
X98952523Y-129363607D01*
X98955904Y-129358544D01*
X98955910Y-129358538D01*
X99048814Y-129184727D01*
X99106024Y-128996132D01*
X99125341Y-128800000D01*
X99106024Y-128603868D01*
X99048814Y-128415273D01*
X98955910Y-128241462D01*
X98955907Y-128241458D01*
X98952523Y-128236393D01*
X98954164Y-128235296D01*
X98930405Y-128179361D01*
X98942194Y-128110493D01*
X98952888Y-128093851D01*
X98952523Y-128093607D01*
X98955904Y-128088544D01*
X98955910Y-128088538D01*
X99003235Y-128000000D01*
X117094540Y-128000000D01*
X117114326Y-128188256D01*
X117114327Y-128188259D01*
X117172818Y-128368277D01*
X117172821Y-128368284D01*
X117267467Y-128532216D01*
X117394129Y-128672888D01*
X117547265Y-128784148D01*
X117547270Y-128784151D01*
X117720192Y-128861142D01*
X117720197Y-128861144D01*
X117905354Y-128900500D01*
X117905355Y-128900500D01*
X118094644Y-128900500D01*
X118094646Y-128900500D01*
X118279803Y-128861144D01*
X118452730Y-128784151D01*
X118605871Y-128672888D01*
X118732533Y-128532216D01*
X118827179Y-128368284D01*
X118885674Y-128188256D01*
X118905460Y-128000000D01*
X118900597Y-127953729D01*
X121344540Y-127953729D01*
X121364326Y-128141985D01*
X121364327Y-128141988D01*
X121422818Y-128322006D01*
X121422821Y-128322013D01*
X121517467Y-128485945D01*
X121644129Y-128626617D01*
X121797265Y-128737877D01*
X121797270Y-128737880D01*
X121970192Y-128814871D01*
X121970197Y-128814873D01*
X122155354Y-128854229D01*
X122155355Y-128854229D01*
X122344644Y-128854229D01*
X122344646Y-128854229D01*
X122529803Y-128814873D01*
X122656458Y-128758482D01*
X122725708Y-128749197D01*
X122779779Y-128771443D01*
X122797270Y-128784151D01*
X122866272Y-128814873D01*
X122970192Y-128861142D01*
X122970197Y-128861144D01*
X123155354Y-128900500D01*
X123155355Y-128900500D01*
X123344644Y-128900500D01*
X123344646Y-128900500D01*
X123529803Y-128861144D01*
X123702730Y-128784151D01*
X123855871Y-128672888D01*
X123982533Y-128532216D01*
X124077179Y-128368284D01*
X124135674Y-128188256D01*
X124155460Y-128000000D01*
X124135674Y-127811744D01*
X124077179Y-127631716D01*
X123982533Y-127467784D01*
X123855871Y-127327112D01*
X123855870Y-127327111D01*
X123702734Y-127215851D01*
X123702729Y-127215848D01*
X123529807Y-127138857D01*
X123529802Y-127138855D01*
X123384001Y-127107865D01*
X123344646Y-127099500D01*
X123155354Y-127099500D01*
X123105375Y-127110123D01*
X122970199Y-127138855D01*
X122843542Y-127195247D01*
X122774291Y-127204531D01*
X122720222Y-127182286D01*
X122702733Y-127169580D01*
X122702729Y-127169577D01*
X122529807Y-127092586D01*
X122529802Y-127092584D01*
X122384001Y-127061594D01*
X122344646Y-127053229D01*
X122155354Y-127053229D01*
X122122897Y-127060127D01*
X121970197Y-127092584D01*
X121970192Y-127092586D01*
X121797270Y-127169577D01*
X121797265Y-127169580D01*
X121644129Y-127280840D01*
X121517466Y-127421514D01*
X121422821Y-127585444D01*
X121422818Y-127585451D01*
X121364327Y-127765469D01*
X121364326Y-127765473D01*
X121344540Y-127953729D01*
X118900597Y-127953729D01*
X118885674Y-127811744D01*
X118827179Y-127631716D01*
X118732533Y-127467784D01*
X118605871Y-127327112D01*
X118605870Y-127327111D01*
X118452734Y-127215851D01*
X118452729Y-127215848D01*
X118279807Y-127138857D01*
X118279802Y-127138855D01*
X118134001Y-127107865D01*
X118094646Y-127099500D01*
X117905354Y-127099500D01*
X117872897Y-127106398D01*
X117720197Y-127138855D01*
X117720192Y-127138857D01*
X117547270Y-127215848D01*
X117547265Y-127215851D01*
X117394129Y-127327111D01*
X117267466Y-127467785D01*
X117172821Y-127631715D01*
X117172818Y-127631722D01*
X117119877Y-127794659D01*
X117114326Y-127811744D01*
X117094540Y-128000000D01*
X99003235Y-128000000D01*
X99048814Y-127914727D01*
X99106024Y-127726132D01*
X99125341Y-127530000D01*
X99106024Y-127333868D01*
X99048814Y-127145273D01*
X98955910Y-126971462D01*
X98955907Y-126971458D01*
X98952523Y-126966393D01*
X98954164Y-126965296D01*
X98930405Y-126909361D01*
X98942194Y-126840493D01*
X98952888Y-126823851D01*
X98952523Y-126823607D01*
X98955904Y-126818544D01*
X98955910Y-126818538D01*
X99048814Y-126644727D01*
X99106024Y-126456132D01*
X99125341Y-126260000D01*
X99106024Y-126063868D01*
X99048814Y-125875273D01*
X98955910Y-125701462D01*
X98955907Y-125701458D01*
X98952523Y-125696393D01*
X98954164Y-125695296D01*
X98930405Y-125639361D01*
X98942194Y-125570493D01*
X98952888Y-125553851D01*
X98952523Y-125553607D01*
X98955904Y-125548544D01*
X98955910Y-125548538D01*
X99048814Y-125374727D01*
X99106024Y-125186132D01*
X99125341Y-124990000D01*
X99106024Y-124793868D01*
X99048814Y-124605273D01*
X99048811Y-124605269D01*
X99048811Y-124605266D01*
X98992545Y-124500000D01*
X112094540Y-124500000D01*
X112114326Y-124688256D01*
X112114327Y-124688259D01*
X112172818Y-124868277D01*
X112172821Y-124868284D01*
X112267467Y-125032216D01*
X112394129Y-125172888D01*
X112547265Y-125284148D01*
X112547270Y-125284151D01*
X112720192Y-125361142D01*
X112720197Y-125361144D01*
X112905354Y-125400500D01*
X112905355Y-125400500D01*
X113094644Y-125400500D01*
X113094646Y-125400500D01*
X113279803Y-125361144D01*
X113452730Y-125284151D01*
X113605871Y-125172888D01*
X113732533Y-125032216D01*
X113827179Y-124868284D01*
X113885674Y-124688256D01*
X113905460Y-124500000D01*
X120594540Y-124500000D01*
X120614326Y-124688256D01*
X120614327Y-124688259D01*
X120672818Y-124868277D01*
X120672821Y-124868284D01*
X120767467Y-125032216D01*
X120894129Y-125172888D01*
X121047265Y-125284148D01*
X121047270Y-125284151D01*
X121220192Y-125361142D01*
X121220197Y-125361144D01*
X121405354Y-125400500D01*
X121405355Y-125400500D01*
X121594644Y-125400500D01*
X121594646Y-125400500D01*
X121779803Y-125361144D01*
X121952730Y-125284151D01*
X122067281Y-125200924D01*
X122133084Y-125177446D01*
X122201138Y-125193271D01*
X122213049Y-125200925D01*
X122263091Y-125237282D01*
X122327601Y-125284151D01*
X122500523Y-125361142D01*
X122500528Y-125361144D01*
X122685685Y-125400500D01*
X122685686Y-125400500D01*
X122874975Y-125400500D01*
X122874977Y-125400500D01*
X123060134Y-125361144D01*
X123197464Y-125300000D01*
X138844540Y-125300000D01*
X138864326Y-125488256D01*
X138864327Y-125488259D01*
X138922818Y-125668277D01*
X138922821Y-125668284D01*
X139017467Y-125832216D01*
X139123420Y-125949888D01*
X139144129Y-125972888D01*
X139297265Y-126084148D01*
X139297270Y-126084151D01*
X139470192Y-126161142D01*
X139470197Y-126161144D01*
X139655354Y-126200500D01*
X139655355Y-126200500D01*
X139844644Y-126200500D01*
X139844646Y-126200500D01*
X140029803Y-126161144D01*
X140202730Y-126084151D01*
X140355871Y-125972888D01*
X140482533Y-125832216D01*
X140577179Y-125668284D01*
X140635674Y-125488256D01*
X140655460Y-125300000D01*
X140635674Y-125111744D01*
X140577179Y-124931716D01*
X140482533Y-124767784D01*
X140355871Y-124627112D01*
X140355870Y-124627111D01*
X140202734Y-124515851D01*
X140202729Y-124515848D01*
X140029807Y-124438857D01*
X140029802Y-124438855D01*
X139884001Y-124407865D01*
X139844646Y-124399500D01*
X139655354Y-124399500D01*
X139622897Y-124406398D01*
X139470197Y-124438855D01*
X139470192Y-124438857D01*
X139297270Y-124515848D01*
X139297265Y-124515851D01*
X139144129Y-124627111D01*
X139017466Y-124767785D01*
X138922821Y-124931715D01*
X138922818Y-124931722D01*
X138875616Y-125076997D01*
X138864326Y-125111744D01*
X138844540Y-125300000D01*
X123197464Y-125300000D01*
X123233061Y-125284151D01*
X123386202Y-125172888D01*
X123512864Y-125032216D01*
X123607510Y-124868284D01*
X123666005Y-124688256D01*
X123685791Y-124500000D01*
X123666005Y-124311744D01*
X123622060Y-124176497D01*
X144708121Y-124176497D01*
X144727907Y-124364753D01*
X144727908Y-124364756D01*
X144786399Y-124544774D01*
X144786402Y-124544781D01*
X144881048Y-124708713D01*
X144934236Y-124767784D01*
X145007710Y-124849385D01*
X145160846Y-124960645D01*
X145160851Y-124960648D01*
X145333773Y-125037639D01*
X145333778Y-125037641D01*
X145518935Y-125076997D01*
X145518936Y-125076997D01*
X145708225Y-125076997D01*
X145708227Y-125076997D01*
X145893384Y-125037641D01*
X146066311Y-124960648D01*
X146219452Y-124849385D01*
X146346114Y-124708713D01*
X146440760Y-124544781D01*
X146499255Y-124364753D01*
X146519041Y-124176497D01*
X146499255Y-123988241D01*
X146440760Y-123808213D01*
X146346114Y-123644281D01*
X146219452Y-123503609D01*
X146219451Y-123503608D01*
X146066315Y-123392348D01*
X146066310Y-123392345D01*
X145893388Y-123315354D01*
X145893383Y-123315352D01*
X145747582Y-123284362D01*
X145708227Y-123275997D01*
X145518935Y-123275997D01*
X145489686Y-123282214D01*
X145333778Y-123315352D01*
X145333773Y-123315354D01*
X145160851Y-123392345D01*
X145160846Y-123392348D01*
X145007710Y-123503608D01*
X144881047Y-123644282D01*
X144786402Y-123808212D01*
X144786399Y-123808219D01*
X144733709Y-123970383D01*
X144727907Y-123988241D01*
X144708121Y-124176497D01*
X123622060Y-124176497D01*
X123611443Y-124143823D01*
X123607512Y-124131722D01*
X123607511Y-124131721D01*
X123607510Y-124131716D01*
X123512864Y-123967784D01*
X123386202Y-123827112D01*
X123379927Y-123822553D01*
X123233065Y-123715851D01*
X123233060Y-123715848D01*
X123060138Y-123638857D01*
X123060133Y-123638855D01*
X122914332Y-123607865D01*
X122874977Y-123599500D01*
X122685685Y-123599500D01*
X122653228Y-123606398D01*
X122500528Y-123638855D01*
X122500523Y-123638857D01*
X122327601Y-123715848D01*
X122327597Y-123715850D01*
X122213049Y-123799074D01*
X122147243Y-123822553D01*
X122079189Y-123806727D01*
X122067280Y-123799073D01*
X121952734Y-123715851D01*
X121952729Y-123715848D01*
X121779807Y-123638857D01*
X121779802Y-123638855D01*
X121634001Y-123607865D01*
X121594646Y-123599500D01*
X121405354Y-123599500D01*
X121372897Y-123606398D01*
X121220197Y-123638855D01*
X121220192Y-123638857D01*
X121047270Y-123715848D01*
X121047265Y-123715851D01*
X120894129Y-123827111D01*
X120767466Y-123967785D01*
X120672821Y-124131715D01*
X120672818Y-124131722D01*
X120624927Y-124279117D01*
X120614326Y-124311744D01*
X120594540Y-124500000D01*
X113905460Y-124500000D01*
X113885674Y-124311744D01*
X113831112Y-124143823D01*
X113827181Y-124131722D01*
X113827180Y-124131721D01*
X113827179Y-124131716D01*
X113772205Y-124036499D01*
X113755733Y-123968600D01*
X113778586Y-123902573D01*
X113833507Y-123859382D01*
X113879593Y-123850500D01*
X113944644Y-123850500D01*
X113944646Y-123850500D01*
X114129803Y-123811144D01*
X114302730Y-123734151D01*
X114455871Y-123622888D01*
X114582533Y-123482216D01*
X114677179Y-123318284D01*
X114735674Y-123138256D01*
X114735675Y-123138241D01*
X114736306Y-123135278D01*
X114737149Y-123133716D01*
X114737682Y-123132076D01*
X114737981Y-123132173D01*
X114769496Y-123073795D01*
X114830657Y-123040015D01*
X114900372Y-123044664D01*
X114956507Y-123086266D01*
X114975529Y-123122735D01*
X115022818Y-123268278D01*
X115022821Y-123268284D01*
X115117467Y-123432216D01*
X115181749Y-123503608D01*
X115244129Y-123572888D01*
X115397265Y-123684148D01*
X115397270Y-123684151D01*
X115570192Y-123761142D01*
X115570197Y-123761144D01*
X115755354Y-123800500D01*
X115755355Y-123800500D01*
X115944644Y-123800500D01*
X115944646Y-123800500D01*
X116129803Y-123761144D01*
X116302730Y-123684151D01*
X116455871Y-123572888D01*
X116582533Y-123432216D01*
X116677179Y-123268284D01*
X116735674Y-123088256D01*
X116735675Y-123088241D01*
X116736306Y-123085278D01*
X116737149Y-123083716D01*
X116737682Y-123082076D01*
X116737981Y-123082173D01*
X116769496Y-123023795D01*
X116830657Y-122990015D01*
X116900372Y-122994664D01*
X116956507Y-123036266D01*
X116975529Y-123072735D01*
X117022818Y-123218278D01*
X117022821Y-123218284D01*
X117117467Y-123382216D01*
X117226769Y-123503608D01*
X117244129Y-123522888D01*
X117397265Y-123634148D01*
X117397270Y-123634151D01*
X117570192Y-123711142D01*
X117570197Y-123711144D01*
X117755354Y-123750500D01*
X117755355Y-123750500D01*
X117944644Y-123750500D01*
X117944646Y-123750500D01*
X118129803Y-123711144D01*
X118302730Y-123634151D01*
X118455871Y-123522888D01*
X118582533Y-123382216D01*
X118604628Y-123343945D01*
X118655193Y-123295730D01*
X118723800Y-123282506D01*
X118788665Y-123308473D01*
X118804165Y-123322973D01*
X118894129Y-123422888D01*
X119047265Y-123534148D01*
X119047270Y-123534151D01*
X119220192Y-123611142D01*
X119220197Y-123611144D01*
X119405354Y-123650500D01*
X119405355Y-123650500D01*
X119594644Y-123650500D01*
X119594646Y-123650500D01*
X119779803Y-123611144D01*
X119952730Y-123534151D01*
X120105871Y-123422888D01*
X120232533Y-123282216D01*
X120327179Y-123118284D01*
X120385674Y-122938256D01*
X120405460Y-122750000D01*
X120385674Y-122561744D01*
X120327179Y-122381716D01*
X120232533Y-122217784D01*
X120105871Y-122077112D01*
X120090369Y-122065849D01*
X119952734Y-121965851D01*
X119952729Y-121965848D01*
X119779807Y-121888857D01*
X119779802Y-121888855D01*
X119634001Y-121857865D01*
X119594646Y-121849500D01*
X119405354Y-121849500D01*
X119372897Y-121856398D01*
X119220197Y-121888855D01*
X119220192Y-121888857D01*
X119047270Y-121965848D01*
X119047265Y-121965851D01*
X118894129Y-122077111D01*
X118767467Y-122217783D01*
X118745371Y-122256055D01*
X118694803Y-122304270D01*
X118626196Y-122317492D01*
X118561331Y-122291524D01*
X118545834Y-122277026D01*
X118455870Y-122177111D01*
X118302734Y-122065851D01*
X118302729Y-122065848D01*
X118129807Y-121988857D01*
X118129802Y-121988855D01*
X117984001Y-121957865D01*
X117944646Y-121949500D01*
X117755354Y-121949500D01*
X117722897Y-121956398D01*
X117570197Y-121988855D01*
X117570192Y-121988857D01*
X117397270Y-122065848D01*
X117397265Y-122065851D01*
X117244129Y-122177111D01*
X117117466Y-122317785D01*
X117022821Y-122481715D01*
X117022818Y-122481722D01*
X116964323Y-122661751D01*
X116963689Y-122664736D01*
X116962847Y-122666294D01*
X116962318Y-122667924D01*
X116962019Y-122667827D01*
X116930492Y-122726215D01*
X116869327Y-122759987D01*
X116799612Y-122755330D01*
X116743483Y-122713721D01*
X116724471Y-122677267D01*
X116686936Y-122561744D01*
X116677181Y-122531721D01*
X116677178Y-122531715D01*
X116648315Y-122481722D01*
X116582533Y-122367784D01*
X116455871Y-122227112D01*
X116455870Y-122227111D01*
X116302734Y-122115851D01*
X116302729Y-122115848D01*
X116129807Y-122038857D01*
X116129802Y-122038855D01*
X115984001Y-122007865D01*
X115944646Y-121999500D01*
X115755354Y-121999500D01*
X115722897Y-122006398D01*
X115570197Y-122038855D01*
X115570192Y-122038857D01*
X115397270Y-122115848D01*
X115397265Y-122115851D01*
X115244129Y-122227111D01*
X115117466Y-122367785D01*
X115022821Y-122531715D01*
X115022818Y-122531722D01*
X114964323Y-122711751D01*
X114963689Y-122714736D01*
X114962847Y-122716294D01*
X114962318Y-122717924D01*
X114962019Y-122717827D01*
X114930492Y-122776215D01*
X114869327Y-122809987D01*
X114799612Y-122805330D01*
X114743483Y-122763721D01*
X114724471Y-122727267D01*
X114677179Y-122581716D01*
X114582533Y-122417784D01*
X114455871Y-122277112D01*
X114455753Y-122277026D01*
X114302734Y-122165851D01*
X114302729Y-122165848D01*
X114129807Y-122088857D01*
X114129802Y-122088855D01*
X113984001Y-122057865D01*
X113944646Y-122049500D01*
X113755354Y-122049500D01*
X113722897Y-122056398D01*
X113570197Y-122088855D01*
X113570192Y-122088857D01*
X113397270Y-122165848D01*
X113397265Y-122165851D01*
X113244129Y-122277111D01*
X113117466Y-122417785D01*
X113022821Y-122581715D01*
X113022818Y-122581722D01*
X112978564Y-122717924D01*
X112964326Y-122761744D01*
X112944540Y-122950000D01*
X112964326Y-123138256D01*
X112964327Y-123138259D01*
X113022818Y-123318277D01*
X113022821Y-123318284D01*
X113077794Y-123413500D01*
X113094267Y-123481400D01*
X113071414Y-123547427D01*
X113016493Y-123590618D01*
X112970407Y-123599500D01*
X112905354Y-123599500D01*
X112872897Y-123606398D01*
X112720197Y-123638855D01*
X112720192Y-123638857D01*
X112547270Y-123715848D01*
X112547265Y-123715851D01*
X112394129Y-123827111D01*
X112267466Y-123967785D01*
X112172821Y-124131715D01*
X112172818Y-124131722D01*
X112124927Y-124279117D01*
X112114326Y-124311744D01*
X112094540Y-124500000D01*
X98992545Y-124500000D01*
X98955913Y-124431467D01*
X98955909Y-124431460D01*
X98830883Y-124279116D01*
X98678539Y-124154090D01*
X98678532Y-124154086D01*
X98504733Y-124061188D01*
X98504727Y-124061186D01*
X98316132Y-124003976D01*
X98316129Y-124003975D01*
X98120000Y-123984659D01*
X97923868Y-124003975D01*
X97913848Y-124007015D01*
X97843981Y-124007634D01*
X97784870Y-123970383D01*
X97755283Y-123907087D01*
X97754538Y-123875394D01*
X97757041Y-123851581D01*
X97737255Y-123663325D01*
X97678760Y-123483297D01*
X97584114Y-123319365D01*
X97457452Y-123178693D01*
X97401805Y-123138263D01*
X97304315Y-123067432D01*
X97304310Y-123067429D01*
X97131388Y-122990438D01*
X97131383Y-122990436D01*
X96985582Y-122959446D01*
X96946227Y-122951081D01*
X96756935Y-122951081D01*
X96724478Y-122957979D01*
X96571778Y-122990436D01*
X96571773Y-122990438D01*
X96398851Y-123067429D01*
X96398846Y-123067432D01*
X96245710Y-123178692D01*
X96119047Y-123319366D01*
X96024402Y-123483296D01*
X96024399Y-123483303D01*
X95972094Y-123644282D01*
X95965907Y-123663325D01*
X95950371Y-123811142D01*
X95946121Y-123851581D01*
X95965907Y-124039837D01*
X95965907Y-124039838D01*
X95975057Y-124067998D01*
X95977051Y-124137839D01*
X95956392Y-124180624D01*
X95906206Y-124247664D01*
X95906202Y-124247671D01*
X95855908Y-124382517D01*
X95849501Y-124442116D01*
X95849500Y-124442135D01*
X95849500Y-125537870D01*
X95849501Y-125537876D01*
X95855908Y-125597483D01*
X95906202Y-125732328D01*
X95906206Y-125732335D01*
X95912561Y-125740824D01*
X95936979Y-125806288D01*
X95923495Y-125869636D01*
X95923981Y-125869838D01*
X95922894Y-125872461D01*
X95922655Y-125873586D01*
X95921650Y-125875464D01*
X95880839Y-126009999D01*
X95880840Y-126010000D01*
X96635517Y-126010000D01*
X96564199Y-126094993D01*
X96525000Y-126202694D01*
X96525000Y-126317306D01*
X96564199Y-126425007D01*
X96637871Y-126512805D01*
X96737129Y-126570112D01*
X96821564Y-126585000D01*
X96878436Y-126585000D01*
X96962871Y-126570112D01*
X97062129Y-126512805D01*
X97100000Y-126467672D01*
X97100000Y-127322327D01*
X97062129Y-127277195D01*
X96962871Y-127219888D01*
X96878436Y-127205000D01*
X96821564Y-127205000D01*
X96737129Y-127219888D01*
X96637871Y-127277195D01*
X96564199Y-127364993D01*
X96525000Y-127472694D01*
X96525000Y-127587306D01*
X96564199Y-127695007D01*
X96635517Y-127780000D01*
X95880840Y-127780000D01*
X95921652Y-127914541D01*
X96014503Y-128088253D01*
X96017890Y-128093322D01*
X96016215Y-128094440D01*
X96039918Y-128150259D01*
X96028123Y-128219125D01*
X96017158Y-128236188D01*
X96017473Y-128236399D01*
X96014086Y-128241467D01*
X95921188Y-128415266D01*
X95863975Y-128603870D01*
X95844659Y-128800000D01*
X95000500Y-128800000D01*
X95000500Y-127279999D01*
X95880839Y-127279999D01*
X95880840Y-127280000D01*
X96600000Y-127280000D01*
X96600000Y-126510000D01*
X95880840Y-126510000D01*
X95921652Y-126644541D01*
X96014503Y-126818253D01*
X96017890Y-126823322D01*
X96016338Y-126824358D01*
X96040242Y-126880661D01*
X96028442Y-126949527D01*
X96017560Y-126966458D01*
X96017890Y-126966678D01*
X96014503Y-126971746D01*
X95921652Y-127145458D01*
X95880839Y-127279999D01*
X95000500Y-127279999D01*
X95000500Y-119952055D01*
X97539500Y-119952055D01*
X97580210Y-120117226D01*
X97659263Y-120267849D01*
X97659266Y-120267852D01*
X97772071Y-120395183D01*
X97834473Y-120438256D01*
X97912068Y-120491817D01*
X97912069Y-120491817D01*
X97912070Y-120491818D01*
X98071128Y-120552140D01*
X98147028Y-120561356D01*
X98197626Y-120567500D01*
X98197628Y-120567500D01*
X98282374Y-120567500D01*
X98324538Y-120562380D01*
X98408872Y-120552140D01*
X98567930Y-120491818D01*
X98707929Y-120395183D01*
X98820734Y-120267852D01*
X98899790Y-120117225D01*
X98940500Y-119952056D01*
X98940500Y-119781944D01*
X98899790Y-119616775D01*
X98878973Y-119577112D01*
X98820736Y-119466150D01*
X98801560Y-119444505D01*
X98707929Y-119338817D01*
X98613199Y-119273429D01*
X98567931Y-119242182D01*
X98408874Y-119181860D01*
X98408868Y-119181859D01*
X98282374Y-119166500D01*
X98282372Y-119166500D01*
X98197628Y-119166500D01*
X98197626Y-119166500D01*
X98071131Y-119181859D01*
X98071125Y-119181860D01*
X97912068Y-119242182D01*
X97772072Y-119338816D01*
X97659263Y-119466150D01*
X97580210Y-119616773D01*
X97539500Y-119781944D01*
X97539500Y-119952055D01*
X95000500Y-119952055D01*
X95000500Y-119000000D01*
X138668121Y-119000000D01*
X138687907Y-119188256D01*
X138687908Y-119188259D01*
X138746399Y-119368277D01*
X138746402Y-119368284D01*
X138841048Y-119532216D01*
X138943535Y-119646040D01*
X138973764Y-119709028D01*
X138965139Y-119778363D01*
X138958772Y-119791008D01*
X138906401Y-119881718D01*
X138906399Y-119881722D01*
X138847908Y-120061740D01*
X138847907Y-120061744D01*
X138828121Y-120250000D01*
X138847907Y-120438256D01*
X138847908Y-120438259D01*
X138906399Y-120618277D01*
X138906402Y-120618284D01*
X139001048Y-120782216D01*
X139127710Y-120922888D01*
X139280846Y-121034148D01*
X139280851Y-121034151D01*
X139453773Y-121111142D01*
X139453778Y-121111144D01*
X139638935Y-121150500D01*
X139638936Y-121150500D01*
X139828225Y-121150500D01*
X139828227Y-121150500D01*
X140013384Y-121111144D01*
X140186311Y-121034151D01*
X140339452Y-120922888D01*
X140466114Y-120782216D01*
X140560760Y-120618284D01*
X140619255Y-120438256D01*
X140639041Y-120250000D01*
X140619255Y-120061744D01*
X140560760Y-119881716D01*
X140466114Y-119717784D01*
X140363626Y-119603960D01*
X140333397Y-119540970D01*
X140342022Y-119471634D01*
X140348375Y-119459016D01*
X140400760Y-119368284D01*
X140459255Y-119188256D01*
X140479041Y-119000000D01*
X140778121Y-119000000D01*
X140797907Y-119188256D01*
X140797908Y-119188259D01*
X140856399Y-119368277D01*
X140856402Y-119368284D01*
X140951048Y-119532216D01*
X141053532Y-119646036D01*
X141077710Y-119672888D01*
X141139325Y-119717654D01*
X141181991Y-119772984D01*
X141187970Y-119842597D01*
X141175421Y-119875763D01*
X141175463Y-119875782D01*
X141175136Y-119876515D01*
X141173832Y-119879963D01*
X141172823Y-119881709D01*
X141172820Y-119881717D01*
X141114327Y-120061740D01*
X141114326Y-120061744D01*
X141094540Y-120250000D01*
X141114326Y-120438256D01*
X141114327Y-120438259D01*
X141172818Y-120618277D01*
X141172821Y-120618284D01*
X141267467Y-120782216D01*
X141394129Y-120922888D01*
X141547265Y-121034148D01*
X141547270Y-121034151D01*
X141720192Y-121111142D01*
X141720197Y-121111144D01*
X141905354Y-121150500D01*
X141905355Y-121150500D01*
X142094644Y-121150500D01*
X142094646Y-121150500D01*
X142279803Y-121111144D01*
X142452730Y-121034151D01*
X142605871Y-120922888D01*
X142732533Y-120782216D01*
X142827179Y-120618284D01*
X142885674Y-120438256D01*
X142905460Y-120250000D01*
X142885674Y-120061744D01*
X142827179Y-119881716D01*
X142732533Y-119717784D01*
X142605871Y-119577112D01*
X142544253Y-119532344D01*
X142501589Y-119477015D01*
X142495610Y-119407402D01*
X142508161Y-119374233D01*
X142508119Y-119374214D01*
X142508452Y-119373465D01*
X142509753Y-119370027D01*
X142510760Y-119368284D01*
X142569255Y-119188256D01*
X142589041Y-119000000D01*
X142569255Y-118811744D01*
X142510760Y-118631716D01*
X142416114Y-118467784D01*
X142289452Y-118327112D01*
X142289451Y-118327111D01*
X142136315Y-118215851D01*
X142136310Y-118215848D01*
X141963388Y-118138857D01*
X141963383Y-118138855D01*
X141817582Y-118107865D01*
X141778227Y-118099500D01*
X141588935Y-118099500D01*
X141556478Y-118106398D01*
X141403778Y-118138855D01*
X141403773Y-118138857D01*
X141230851Y-118215848D01*
X141230846Y-118215851D01*
X141077710Y-118327111D01*
X140951047Y-118467785D01*
X140856402Y-118631715D01*
X140856399Y-118631722D01*
X140841500Y-118677578D01*
X140797907Y-118811744D01*
X140778121Y-119000000D01*
X140479041Y-119000000D01*
X140459255Y-118811744D01*
X140400760Y-118631716D01*
X140306114Y-118467784D01*
X140179452Y-118327112D01*
X140179451Y-118327111D01*
X140026315Y-118215851D01*
X140026310Y-118215848D01*
X139853388Y-118138857D01*
X139853383Y-118138855D01*
X139707582Y-118107865D01*
X139668227Y-118099500D01*
X139478935Y-118099500D01*
X139446478Y-118106398D01*
X139293778Y-118138855D01*
X139293773Y-118138857D01*
X139120851Y-118215848D01*
X139120846Y-118215851D01*
X138967710Y-118327111D01*
X138841047Y-118467785D01*
X138746402Y-118631715D01*
X138746399Y-118631722D01*
X138731500Y-118677578D01*
X138687907Y-118811744D01*
X138668121Y-119000000D01*
X95000500Y-119000000D01*
X95000500Y-116952055D01*
X97539500Y-116952055D01*
X97580210Y-117117226D01*
X97659263Y-117267849D01*
X97659266Y-117267852D01*
X97772071Y-117395183D01*
X97834473Y-117438256D01*
X97912068Y-117491817D01*
X97912069Y-117491817D01*
X97912070Y-117491818D01*
X98071128Y-117552140D01*
X98147028Y-117561356D01*
X98197626Y-117567500D01*
X98197628Y-117567500D01*
X98282374Y-117567500D01*
X98324538Y-117562380D01*
X98408872Y-117552140D01*
X98567930Y-117491818D01*
X98707929Y-117395183D01*
X98820734Y-117267852D01*
X98830104Y-117250000D01*
X112094540Y-117250000D01*
X112114326Y-117438256D01*
X112114327Y-117438259D01*
X112172818Y-117618277D01*
X112172821Y-117618284D01*
X112267467Y-117782216D01*
X112394129Y-117922888D01*
X112547265Y-118034148D01*
X112547270Y-118034151D01*
X112720192Y-118111142D01*
X112720197Y-118111144D01*
X112905354Y-118150500D01*
X112905355Y-118150500D01*
X113094644Y-118150500D01*
X113094646Y-118150500D01*
X113279803Y-118111144D01*
X113452730Y-118034151D01*
X113605871Y-117922888D01*
X113732533Y-117782216D01*
X113827179Y-117618284D01*
X113885674Y-117438256D01*
X113905460Y-117250000D01*
X113885674Y-117061744D01*
X113827179Y-116881716D01*
X113732533Y-116717784D01*
X113605871Y-116577112D01*
X113605870Y-116577111D01*
X113452734Y-116465851D01*
X113452729Y-116465848D01*
X113279807Y-116388857D01*
X113279802Y-116388855D01*
X113134024Y-116357870D01*
X152263081Y-116357870D01*
X152263082Y-116357876D01*
X152269489Y-116417483D01*
X152319783Y-116552328D01*
X152319787Y-116552335D01*
X152406033Y-116667544D01*
X152406036Y-116667547D01*
X152521245Y-116753793D01*
X152521252Y-116753797D01*
X152521255Y-116753798D01*
X152653179Y-116803002D01*
X152709112Y-116844873D01*
X152733530Y-116910337D01*
X152718679Y-116978610D01*
X152697528Y-117006865D01*
X152575467Y-117128926D01*
X152439981Y-117322420D01*
X152439980Y-117322422D01*
X152340151Y-117536507D01*
X152340148Y-117536513D01*
X152282945Y-117749999D01*
X152282945Y-117750000D01*
X153179895Y-117750000D01*
X153154088Y-117790156D01*
X153113581Y-117928111D01*
X153113581Y-118071889D01*
X153154088Y-118209844D01*
X153179895Y-118250000D01*
X152282945Y-118250000D01*
X152340148Y-118463486D01*
X152340151Y-118463492D01*
X152439980Y-118677578D01*
X152575475Y-118871082D01*
X152742498Y-119038105D01*
X152936002Y-119173600D01*
X153150088Y-119273429D01*
X153150097Y-119273433D01*
X153363581Y-119330634D01*
X153363581Y-118435501D01*
X153471266Y-118484680D01*
X153577818Y-118500000D01*
X153649344Y-118500000D01*
X153755896Y-118484680D01*
X153863581Y-118435501D01*
X153863581Y-119330633D01*
X154077064Y-119273433D01*
X154077073Y-119273429D01*
X154291159Y-119173600D01*
X154484663Y-119038105D01*
X154651686Y-118871082D01*
X154787181Y-118677578D01*
X154887010Y-118463492D01*
X154887013Y-118463486D01*
X154944217Y-118250000D01*
X154047267Y-118250000D01*
X154073074Y-118209844D01*
X154113581Y-118071889D01*
X154113581Y-117928111D01*
X154073074Y-117790156D01*
X154047267Y-117750000D01*
X154944217Y-117750000D01*
X154944216Y-117749999D01*
X154887013Y-117536513D01*
X154887010Y-117536507D01*
X154787181Y-117322422D01*
X154787180Y-117322420D01*
X154651694Y-117128926D01*
X154651689Y-117128920D01*
X154529634Y-117006865D01*
X154496149Y-116945542D01*
X154501133Y-116875850D01*
X154543005Y-116819917D01*
X154573981Y-116803002D01*
X154705912Y-116753796D01*
X154821127Y-116667546D01*
X154907377Y-116552331D01*
X154957672Y-116417483D01*
X154964081Y-116357873D01*
X154964080Y-114562128D01*
X154957672Y-114502517D01*
X154907377Y-114367669D01*
X154907376Y-114367668D01*
X154907374Y-114367664D01*
X154821128Y-114252455D01*
X154821125Y-114252452D01*
X154705916Y-114166206D01*
X154705909Y-114166202D01*
X154571063Y-114115908D01*
X154571064Y-114115908D01*
X154511464Y-114109501D01*
X154511462Y-114109500D01*
X154511454Y-114109500D01*
X154511445Y-114109500D01*
X152715710Y-114109500D01*
X152715704Y-114109501D01*
X152656097Y-114115908D01*
X152521252Y-114166202D01*
X152521245Y-114166206D01*
X152406036Y-114252452D01*
X152406033Y-114252455D01*
X152319787Y-114367664D01*
X152319783Y-114367671D01*
X152269489Y-114502517D01*
X152263082Y-114562116D01*
X152263082Y-114562123D01*
X152263081Y-114562135D01*
X152263081Y-116357870D01*
X113134024Y-116357870D01*
X113133996Y-116357864D01*
X113094646Y-116349500D01*
X112905354Y-116349500D01*
X112872897Y-116356398D01*
X112720197Y-116388855D01*
X112720192Y-116388857D01*
X112547270Y-116465848D01*
X112547265Y-116465851D01*
X112394129Y-116577111D01*
X112267466Y-116717785D01*
X112172821Y-116881715D01*
X112172818Y-116881722D01*
X112114327Y-117061740D01*
X112114326Y-117061744D01*
X112094540Y-117250000D01*
X98830104Y-117250000D01*
X98899790Y-117117225D01*
X98940500Y-116952056D01*
X98940500Y-116781944D01*
X98899790Y-116616775D01*
X98865967Y-116552331D01*
X98820736Y-116466150D01*
X98801560Y-116444505D01*
X98707929Y-116338817D01*
X98658177Y-116304475D01*
X98567931Y-116242182D01*
X98408874Y-116181860D01*
X98408868Y-116181859D01*
X98282374Y-116166500D01*
X98282372Y-116166500D01*
X98197628Y-116166500D01*
X98197626Y-116166500D01*
X98071131Y-116181859D01*
X98071125Y-116181860D01*
X97912068Y-116242182D01*
X97772072Y-116338816D01*
X97659263Y-116466150D01*
X97580210Y-116616773D01*
X97539500Y-116781944D01*
X97539500Y-116952055D01*
X95000500Y-116952055D01*
X95000500Y-116117000D01*
X100701540Y-116117000D01*
X100721326Y-116305256D01*
X100721327Y-116305259D01*
X100779818Y-116485277D01*
X100779821Y-116485284D01*
X100874467Y-116649216D01*
X100993976Y-116781944D01*
X101001129Y-116789888D01*
X101154265Y-116901148D01*
X101154270Y-116901151D01*
X101327192Y-116978142D01*
X101327197Y-116978144D01*
X101512354Y-117017500D01*
X101512355Y-117017500D01*
X101701644Y-117017500D01*
X101701646Y-117017500D01*
X101886803Y-116978144D01*
X102059730Y-116901151D01*
X102212871Y-116789888D01*
X102339533Y-116649216D01*
X102434179Y-116485284D01*
X102492674Y-116305256D01*
X102512460Y-116117000D01*
X102492674Y-115928744D01*
X102434179Y-115748716D01*
X102339533Y-115584784D01*
X102212871Y-115444112D01*
X102212870Y-115444111D01*
X102059734Y-115332851D01*
X102059729Y-115332848D01*
X101886807Y-115255857D01*
X101886802Y-115255855D01*
X101741001Y-115224865D01*
X101701646Y-115216500D01*
X101512354Y-115216500D01*
X101479897Y-115223398D01*
X101327197Y-115255855D01*
X101327192Y-115255857D01*
X101154270Y-115332848D01*
X101154265Y-115332851D01*
X101001129Y-115444111D01*
X100874466Y-115584785D01*
X100779821Y-115748715D01*
X100779818Y-115748722D01*
X100721327Y-115928740D01*
X100721326Y-115928744D01*
X100701540Y-116117000D01*
X95000500Y-116117000D01*
X95000500Y-103690021D01*
X95020185Y-103622982D01*
X95072989Y-103577227D01*
X95142147Y-103567283D01*
X95205703Y-103596308D01*
X95243477Y-103655086D01*
X95247378Y-103673376D01*
X95272378Y-103857938D01*
X95368313Y-104278258D01*
X95501542Y-104688296D01*
X95501545Y-104688304D01*
X95670985Y-105084730D01*
X95670989Y-105084738D01*
X95875294Y-105464399D01*
X96112799Y-105824207D01*
X96112800Y-105824208D01*
X96381608Y-106161282D01*
X96432223Y-106214221D01*
X98313103Y-104333341D01*
X98425031Y-104470918D01*
X98639990Y-104671676D01*
X98664544Y-104689008D01*
X96786877Y-106566675D01*
X97004227Y-106756569D01*
X97004244Y-106756582D01*
X97353024Y-107009986D01*
X97723140Y-107231120D01*
X97723146Y-107231123D01*
X98111569Y-107418178D01*
X98111583Y-107418184D01*
X98515209Y-107569667D01*
X98515234Y-107569675D01*
X98930816Y-107684369D01*
X99355023Y-107761351D01*
X99784435Y-107799999D01*
X99784438Y-107800000D01*
X100215562Y-107800000D01*
X100215564Y-107799999D01*
X100644976Y-107761351D01*
X101069183Y-107684369D01*
X101484765Y-107569675D01*
X101484790Y-107569667D01*
X101888416Y-107418184D01*
X101888430Y-107418178D01*
X102276853Y-107231123D01*
X102276859Y-107231120D01*
X102646975Y-107009986D01*
X102995755Y-106756582D01*
X102995772Y-106756569D01*
X103213121Y-106566675D01*
X101335455Y-104689008D01*
X101360010Y-104671676D01*
X101574969Y-104470918D01*
X101686895Y-104333342D01*
X103567775Y-106214222D01*
X103567776Y-106214222D01*
X103618386Y-106161289D01*
X103618386Y-106161288D01*
X103887199Y-105824208D01*
X103887200Y-105824207D01*
X104124705Y-105464399D01*
X104329010Y-105084738D01*
X104329014Y-105084730D01*
X104498454Y-104688304D01*
X104498457Y-104688296D01*
X104575884Y-104450000D01*
X109255779Y-104450000D01*
X109265430Y-104560316D01*
X109265432Y-104560326D01*
X109326566Y-104788483D01*
X109326570Y-104788492D01*
X109426399Y-105002577D01*
X109426400Y-105002579D01*
X109561886Y-105196073D01*
X109561891Y-105196079D01*
X109728917Y-105363105D01*
X109922421Y-105498600D01*
X110136507Y-105598429D01*
X110136516Y-105598433D01*
X110350000Y-105655634D01*
X110350000Y-104608018D01*
X110464801Y-104660446D01*
X110566025Y-104675000D01*
X110633975Y-104675000D01*
X110735199Y-104660446D01*
X110850000Y-104608018D01*
X110850000Y-105655633D01*
X111063483Y-105598433D01*
X111063492Y-105598429D01*
X111277577Y-105498600D01*
X111277579Y-105498599D01*
X111471073Y-105363113D01*
X111471079Y-105363108D01*
X111638108Y-105196079D01*
X111638113Y-105196073D01*
X111748119Y-105038967D01*
X111802695Y-104995342D01*
X111872194Y-104988148D01*
X111934549Y-105019670D01*
X111951269Y-105038967D01*
X112061505Y-105196402D01*
X112202746Y-105337642D01*
X112228599Y-105363495D01*
X112271675Y-105393657D01*
X112422165Y-105499032D01*
X112422167Y-105499033D01*
X112422170Y-105499035D01*
X112636337Y-105598903D01*
X112864592Y-105660063D01*
X113041034Y-105675500D01*
X113099999Y-105680659D01*
X113100000Y-105680659D01*
X113100001Y-105680659D01*
X113158966Y-105675500D01*
X113335408Y-105660063D01*
X113563663Y-105598903D01*
X113777829Y-105499035D01*
X113971401Y-105363495D01*
X114138495Y-105196401D01*
X114248426Y-105039401D01*
X114303001Y-104995778D01*
X114372500Y-104988584D01*
X114434855Y-105020106D01*
X114451571Y-105039398D01*
X114483318Y-105084738D01*
X114561506Y-105196403D01*
X114702746Y-105337642D01*
X114728599Y-105363495D01*
X114771675Y-105393657D01*
X114922165Y-105499032D01*
X114922167Y-105499033D01*
X114922170Y-105499035D01*
X115136337Y-105598903D01*
X115364592Y-105660063D01*
X115541034Y-105675500D01*
X115599999Y-105680659D01*
X115600000Y-105680659D01*
X115600001Y-105680659D01*
X115658966Y-105675500D01*
X115835408Y-105660063D01*
X116063663Y-105598903D01*
X116277829Y-105499035D01*
X116471401Y-105363495D01*
X116638495Y-105196401D01*
X116748426Y-105039401D01*
X116803001Y-104995778D01*
X116872500Y-104988584D01*
X116934855Y-105020106D01*
X116951571Y-105039398D01*
X116983318Y-105084738D01*
X117061506Y-105196403D01*
X117202746Y-105337642D01*
X117228599Y-105363495D01*
X117271675Y-105393657D01*
X117422165Y-105499032D01*
X117422167Y-105499033D01*
X117422170Y-105499035D01*
X117636337Y-105598903D01*
X117864592Y-105660063D01*
X118041034Y-105675500D01*
X118099999Y-105680659D01*
X118100000Y-105680659D01*
X118100001Y-105680659D01*
X118158966Y-105675500D01*
X118335408Y-105660063D01*
X118563663Y-105598903D01*
X118777829Y-105499035D01*
X118971401Y-105363495D01*
X119118602Y-105216293D01*
X119179924Y-105182810D01*
X119249615Y-105187794D01*
X119305549Y-105229665D01*
X119311821Y-105238879D01*
X119315186Y-105244334D01*
X119407288Y-105393656D01*
X119531344Y-105517712D01*
X119680666Y-105609814D01*
X119847203Y-105664999D01*
X119949991Y-105675500D01*
X121250008Y-105675499D01*
X121352797Y-105664999D01*
X121519334Y-105609814D01*
X121668656Y-105517712D01*
X121792712Y-105393656D01*
X121884814Y-105244334D01*
X121939999Y-105077797D01*
X121950500Y-104975009D01*
X121950499Y-104000000D01*
X129895197Y-104000000D01*
X129914397Y-104366353D01*
X129971784Y-104728684D01*
X129971784Y-104728686D01*
X130066736Y-105083051D01*
X130198204Y-105425535D01*
X130364754Y-105752406D01*
X130564553Y-106060070D01*
X130753297Y-106293148D01*
X131640857Y-105405588D01*
X131677937Y-105455914D01*
X131887356Y-105672452D01*
X131995611Y-105757940D01*
X131106850Y-106646701D01*
X131339929Y-106835446D01*
X131647593Y-107035245D01*
X131974464Y-107201795D01*
X132316948Y-107333263D01*
X132671314Y-107428215D01*
X133033646Y-107485602D01*
X133399999Y-107504803D01*
X133400001Y-107504803D01*
X133766353Y-107485602D01*
X134128684Y-107428215D01*
X134128686Y-107428215D01*
X134483051Y-107333263D01*
X134825535Y-107201795D01*
X135152406Y-107035245D01*
X135460064Y-106835450D01*
X135693148Y-106646701D01*
X134807345Y-105760898D01*
X135020973Y-105567684D01*
X135158531Y-105404978D01*
X136046701Y-106293148D01*
X136235450Y-106060064D01*
X136435245Y-105752406D01*
X136601795Y-105425535D01*
X136733263Y-105083051D01*
X136828215Y-104728686D01*
X136828215Y-104728684D01*
X136853027Y-104572031D01*
X136882956Y-104508897D01*
X136942267Y-104471965D01*
X137012130Y-104472963D01*
X137070363Y-104511573D01*
X137098477Y-104575536D01*
X137099500Y-104591429D01*
X137099500Y-105571450D01*
X137114804Y-105785433D01*
X137175628Y-106065037D01*
X137175630Y-106065043D01*
X137175631Y-106065046D01*
X137260709Y-106293148D01*
X137275635Y-106333166D01*
X137412770Y-106584309D01*
X137412775Y-106584317D01*
X137584254Y-106813387D01*
X137584270Y-106813405D01*
X137786594Y-107015729D01*
X137786612Y-107015745D01*
X138015682Y-107187224D01*
X138015690Y-107187229D01*
X138266833Y-107324364D01*
X138266832Y-107324364D01*
X138266836Y-107324365D01*
X138266839Y-107324367D01*
X138534954Y-107424369D01*
X138534960Y-107424370D01*
X138534962Y-107424371D01*
X138814566Y-107485195D01*
X138814568Y-107485195D01*
X138814572Y-107485196D01*
X139028552Y-107500500D01*
X142171448Y-107500500D01*
X142385428Y-107485196D01*
X142665046Y-107424369D01*
X142933161Y-107324367D01*
X143184315Y-107187226D01*
X143413395Y-107015739D01*
X143615739Y-106813395D01*
X143787226Y-106584315D01*
X143924367Y-106333161D01*
X144024369Y-106065046D01*
X144024371Y-106065037D01*
X144085195Y-105785433D01*
X144085195Y-105785432D01*
X144085196Y-105785428D01*
X144100500Y-105571448D01*
X144100500Y-103000000D01*
X148418525Y-103000000D01*
X148425173Y-103050500D01*
X148425403Y-103052242D01*
X148426464Y-103068428D01*
X148426464Y-103075504D01*
X148426465Y-103075513D01*
X148428296Y-103082348D01*
X148431458Y-103098245D01*
X148438338Y-103150498D01*
X148458505Y-103199186D01*
X148463718Y-103214540D01*
X148465551Y-103221381D01*
X148465551Y-103221382D01*
X148469085Y-103227502D01*
X148476259Y-103242047D01*
X148488382Y-103271313D01*
X148496428Y-103290738D01*
X148528508Y-103332545D01*
X148537514Y-103346023D01*
X148539881Y-103350122D01*
X148541058Y-103352161D01*
X148546052Y-103357154D01*
X148556750Y-103369352D01*
X148588832Y-103411162D01*
X148588833Y-103411163D01*
X148588835Y-103411165D01*
X148630653Y-103443253D01*
X148642839Y-103453941D01*
X148647841Y-103458943D01*
X148647843Y-103458944D01*
X148653964Y-103462478D01*
X148667450Y-103471489D01*
X148696252Y-103493589D01*
X148709262Y-103503572D01*
X148757948Y-103523738D01*
X148772488Y-103530908D01*
X148778623Y-103534450D01*
X148778627Y-103534451D01*
X148785455Y-103536281D01*
X148800812Y-103541494D01*
X148831169Y-103554068D01*
X148849503Y-103561662D01*
X148901755Y-103568541D01*
X148917652Y-103571703D01*
X148924493Y-103573536D01*
X148924495Y-103573536D01*
X148931570Y-103573536D01*
X148947755Y-103574597D01*
X148999999Y-103581475D01*
X149000000Y-103581475D01*
X149000001Y-103581475D01*
X149052245Y-103574597D01*
X149068430Y-103573536D01*
X149075508Y-103573536D01*
X149079751Y-103572398D01*
X149082338Y-103571705D01*
X149098244Y-103568541D01*
X149150497Y-103561662D01*
X149199202Y-103541487D01*
X149214551Y-103536278D01*
X149221377Y-103534450D01*
X149227504Y-103530912D01*
X149242039Y-103523743D01*
X149290738Y-103503572D01*
X149332558Y-103471482D01*
X149346036Y-103462478D01*
X149352159Y-103458943D01*
X149357161Y-103453940D01*
X149369342Y-103443256D01*
X149411165Y-103411165D01*
X149443256Y-103369342D01*
X149453940Y-103357161D01*
X149458943Y-103352159D01*
X149462480Y-103346031D01*
X149471482Y-103332558D01*
X149503572Y-103290738D01*
X149523743Y-103242039D01*
X149530914Y-103227502D01*
X149534450Y-103221377D01*
X149536278Y-103214551D01*
X149541487Y-103199202D01*
X149561662Y-103150497D01*
X149568541Y-103098241D01*
X149571703Y-103082348D01*
X149573536Y-103075507D01*
X149573997Y-103061379D01*
X149574989Y-103049262D01*
X149581475Y-103000000D01*
X149581474Y-102999996D01*
X149578374Y-102976444D01*
X149574990Y-102950742D01*
X149573996Y-102938618D01*
X149573536Y-102924493D01*
X149571701Y-102917645D01*
X149568541Y-102901754D01*
X149561662Y-102849503D01*
X149541491Y-102800807D01*
X149536283Y-102785463D01*
X149534450Y-102778623D01*
X149534445Y-102778615D01*
X149530912Y-102772495D01*
X149523738Y-102757948D01*
X149503571Y-102709261D01*
X149471492Y-102667455D01*
X149462481Y-102653969D01*
X149458943Y-102647841D01*
X149453940Y-102642838D01*
X149443245Y-102630643D01*
X149411164Y-102588834D01*
X149369351Y-102556749D01*
X149357158Y-102546055D01*
X149352162Y-102541059D01*
X149352159Y-102541057D01*
X149346023Y-102537514D01*
X149332551Y-102528512D01*
X149290738Y-102496428D01*
X149273215Y-102489169D01*
X149242047Y-102476259D01*
X149227502Y-102469085D01*
X149221381Y-102465551D01*
X149214540Y-102463718D01*
X149199186Y-102458505D01*
X149150498Y-102438338D01*
X149098245Y-102431458D01*
X149082348Y-102428296D01*
X149075513Y-102426465D01*
X149075509Y-102426464D01*
X149075507Y-102426464D01*
X149075504Y-102426464D01*
X149068430Y-102426464D01*
X149052245Y-102425403D01*
X149000001Y-102418525D01*
X148999999Y-102418525D01*
X148947755Y-102425403D01*
X148931570Y-102426464D01*
X148924493Y-102426464D01*
X148917645Y-102428298D01*
X148901754Y-102431458D01*
X148849501Y-102438338D01*
X148800817Y-102458504D01*
X148785463Y-102463717D01*
X148778622Y-102465550D01*
X148778615Y-102465553D01*
X148772483Y-102469093D01*
X148757948Y-102476261D01*
X148709263Y-102496428D01*
X148709259Y-102496430D01*
X148667452Y-102528509D01*
X148653979Y-102537512D01*
X148647840Y-102541057D01*
X148647838Y-102541058D01*
X148642830Y-102546066D01*
X148630645Y-102556752D01*
X148588834Y-102588834D01*
X148556752Y-102630645D01*
X148546066Y-102642830D01*
X148541058Y-102647838D01*
X148541057Y-102647840D01*
X148537512Y-102653979D01*
X148528509Y-102667452D01*
X148496430Y-102709259D01*
X148496428Y-102709263D01*
X148476261Y-102757948D01*
X148469093Y-102772483D01*
X148465553Y-102778615D01*
X148465550Y-102778622D01*
X148463717Y-102785463D01*
X148458504Y-102800817D01*
X148438338Y-102849501D01*
X148431458Y-102901754D01*
X148428298Y-102917645D01*
X148426464Y-102924492D01*
X148426464Y-102931570D01*
X148425403Y-102947755D01*
X148418526Y-102999996D01*
X148418525Y-103000000D01*
X144100500Y-103000000D01*
X144100500Y-102428552D01*
X144085196Y-102214572D01*
X144077046Y-102177109D01*
X144024371Y-101934962D01*
X144024370Y-101934960D01*
X144024369Y-101934954D01*
X143924367Y-101666839D01*
X143913070Y-101646151D01*
X143787229Y-101415690D01*
X143787224Y-101415682D01*
X143615745Y-101186612D01*
X143615729Y-101186594D01*
X143413405Y-100984270D01*
X143413387Y-100984254D01*
X143184317Y-100812775D01*
X143184309Y-100812770D01*
X142933166Y-100675635D01*
X142933167Y-100675635D01*
X142785347Y-100620501D01*
X142665046Y-100575631D01*
X142665043Y-100575630D01*
X142665037Y-100575628D01*
X142385433Y-100514804D01*
X142171450Y-100499500D01*
X142171448Y-100499500D01*
X139028552Y-100499500D01*
X139028549Y-100499500D01*
X138814566Y-100514804D01*
X138534962Y-100575628D01*
X138266833Y-100675635D01*
X138015690Y-100812770D01*
X138015682Y-100812775D01*
X137786612Y-100984254D01*
X137786594Y-100984270D01*
X137584270Y-101186594D01*
X137584254Y-101186612D01*
X137412775Y-101415682D01*
X137412770Y-101415690D01*
X137275635Y-101666833D01*
X137175628Y-101934962D01*
X137114804Y-102214566D01*
X137099500Y-102428549D01*
X137099500Y-103408570D01*
X137079815Y-103475609D01*
X137027011Y-103521364D01*
X136957853Y-103531308D01*
X136894297Y-103502283D01*
X136856523Y-103443505D01*
X136853027Y-103427968D01*
X136828215Y-103271315D01*
X136828215Y-103271313D01*
X136733263Y-102916948D01*
X136601795Y-102574464D01*
X136435245Y-102247594D01*
X136235446Y-101939929D01*
X136046701Y-101706850D01*
X135159141Y-102594409D01*
X135122063Y-102544086D01*
X134912644Y-102327548D01*
X134804387Y-102242059D01*
X135693149Y-101353297D01*
X135460070Y-101164553D01*
X135152406Y-100964754D01*
X134825535Y-100798204D01*
X134483051Y-100666736D01*
X134128685Y-100571784D01*
X133766353Y-100514397D01*
X133400001Y-100495197D01*
X133399999Y-100495197D01*
X133033646Y-100514397D01*
X132671315Y-100571784D01*
X132671313Y-100571784D01*
X132316948Y-100666736D01*
X131974464Y-100798204D01*
X131647594Y-100964754D01*
X131339924Y-101164557D01*
X131106849Y-101353296D01*
X131106849Y-101353297D01*
X131992654Y-102239101D01*
X131779027Y-102432316D01*
X131641468Y-102595020D01*
X130753297Y-101706849D01*
X130753296Y-101706849D01*
X130564557Y-101939924D01*
X130364754Y-102247594D01*
X130198204Y-102574464D01*
X130066736Y-102916948D01*
X129971784Y-103271313D01*
X129971784Y-103271315D01*
X129914397Y-103633646D01*
X129895197Y-103999999D01*
X129895197Y-104000000D01*
X121950499Y-104000000D01*
X121950499Y-103424992D01*
X121949156Y-103411849D01*
X121939999Y-103322203D01*
X121898287Y-103196327D01*
X121895886Y-103126501D01*
X121931617Y-103066459D01*
X121994138Y-103035266D01*
X122042645Y-103036223D01*
X122107503Y-103050500D01*
X122107505Y-103050500D01*
X122246107Y-103050500D01*
X122246113Y-103050500D01*
X122383910Y-103035514D01*
X122559221Y-102976444D01*
X122717736Y-102881070D01*
X122852041Y-102753849D01*
X122955858Y-102600730D01*
X122960598Y-102588835D01*
X122997415Y-102496430D01*
X123024331Y-102428875D01*
X123054260Y-102246317D01*
X123044245Y-102061593D01*
X123029518Y-102008549D01*
X122994755Y-101883343D01*
X122994752Y-101883337D01*
X122908101Y-101719897D01*
X122788337Y-101578900D01*
X122779202Y-101571956D01*
X122641064Y-101466946D01*
X122473167Y-101389268D01*
X122473163Y-101389266D01*
X122292497Y-101349500D01*
X122153887Y-101349500D01*
X122153883Y-101349500D01*
X122016088Y-101364486D01*
X121840776Y-101423557D01*
X121840774Y-101423558D01*
X121682262Y-101518931D01*
X121682261Y-101518932D01*
X121547959Y-101646149D01*
X121444138Y-101799276D01*
X121375669Y-101971122D01*
X121361137Y-102059763D01*
X121347646Y-102142061D01*
X121345740Y-102153685D01*
X121355755Y-102338406D01*
X121355755Y-102338411D01*
X121405244Y-102516656D01*
X121405247Y-102516662D01*
X121421937Y-102548143D01*
X121435948Y-102616594D01*
X121410727Y-102681753D01*
X121354282Y-102722932D01*
X121299781Y-102729584D01*
X121250012Y-102724500D01*
X119949998Y-102724500D01*
X119949981Y-102724501D01*
X119847203Y-102735000D01*
X119847200Y-102735001D01*
X119680668Y-102790185D01*
X119680663Y-102790187D01*
X119531342Y-102882289D01*
X119407289Y-103006342D01*
X119311821Y-103161121D01*
X119259873Y-103207845D01*
X119190910Y-103219068D01*
X119126828Y-103191224D01*
X119118601Y-103183705D01*
X118971402Y-103036506D01*
X118971395Y-103036501D01*
X118970999Y-103036224D01*
X118885625Y-102976444D01*
X118777834Y-102900967D01*
X118777830Y-102900965D01*
X118735161Y-102881068D01*
X118563663Y-102801097D01*
X118563659Y-102801096D01*
X118563655Y-102801094D01*
X118335413Y-102739938D01*
X118335403Y-102739936D01*
X118100001Y-102719341D01*
X118099999Y-102719341D01*
X117864596Y-102739936D01*
X117864586Y-102739938D01*
X117636344Y-102801094D01*
X117636335Y-102801098D01*
X117422171Y-102900964D01*
X117422169Y-102900965D01*
X117228597Y-103036505D01*
X117061505Y-103203597D01*
X116951575Y-103360595D01*
X116896998Y-103404220D01*
X116827500Y-103411414D01*
X116765145Y-103379891D01*
X116748425Y-103360595D01*
X116638494Y-103203597D01*
X116471402Y-103036506D01*
X116471395Y-103036501D01*
X116470999Y-103036224D01*
X116385625Y-102976444D01*
X116277834Y-102900967D01*
X116277830Y-102900965D01*
X116235161Y-102881068D01*
X116063663Y-102801097D01*
X116063659Y-102801096D01*
X116063655Y-102801094D01*
X115835413Y-102739938D01*
X115835403Y-102739936D01*
X115600001Y-102719341D01*
X115599999Y-102719341D01*
X115364596Y-102739936D01*
X115364586Y-102739938D01*
X115136344Y-102801094D01*
X115136335Y-102801098D01*
X114922171Y-102900964D01*
X114922169Y-102900965D01*
X114728597Y-103036505D01*
X114561505Y-103203597D01*
X114451575Y-103360595D01*
X114396998Y-103404220D01*
X114327500Y-103411414D01*
X114265145Y-103379891D01*
X114248425Y-103360595D01*
X114138494Y-103203597D01*
X113971402Y-103036506D01*
X113971395Y-103036501D01*
X113970999Y-103036224D01*
X113885625Y-102976444D01*
X113777834Y-102900967D01*
X113777830Y-102900965D01*
X113735161Y-102881068D01*
X113563663Y-102801097D01*
X113563659Y-102801096D01*
X113563655Y-102801094D01*
X113335413Y-102739938D01*
X113335403Y-102739936D01*
X113100001Y-102719341D01*
X113099999Y-102719341D01*
X112864596Y-102739936D01*
X112864586Y-102739938D01*
X112636344Y-102801094D01*
X112636335Y-102801098D01*
X112422171Y-102900964D01*
X112422169Y-102900965D01*
X112228597Y-103036505D01*
X112061508Y-103203594D01*
X111951269Y-103361032D01*
X111896692Y-103404656D01*
X111827193Y-103411849D01*
X111764839Y-103380327D01*
X111748119Y-103361031D01*
X111638113Y-103203926D01*
X111638108Y-103203920D01*
X111471082Y-103036894D01*
X111277578Y-102901399D01*
X111063492Y-102801570D01*
X111063486Y-102801567D01*
X110850000Y-102744364D01*
X110850000Y-103791981D01*
X110735199Y-103739554D01*
X110633975Y-103725000D01*
X110566025Y-103725000D01*
X110464801Y-103739554D01*
X110350000Y-103791981D01*
X110350000Y-102744364D01*
X110349999Y-102744364D01*
X110136513Y-102801567D01*
X110136507Y-102801570D01*
X109922422Y-102901399D01*
X109922420Y-102901400D01*
X109728926Y-103036886D01*
X109728920Y-103036891D01*
X109561891Y-103203920D01*
X109561886Y-103203926D01*
X109426400Y-103397420D01*
X109426399Y-103397422D01*
X109326570Y-103611507D01*
X109326566Y-103611516D01*
X109265432Y-103839673D01*
X109265430Y-103839683D01*
X109255779Y-103950000D01*
X110196031Y-103950000D01*
X110163481Y-104000649D01*
X110125000Y-104131705D01*
X110125000Y-104268295D01*
X110163481Y-104399351D01*
X110196031Y-104450000D01*
X109255779Y-104450000D01*
X104575884Y-104450000D01*
X104631686Y-104278258D01*
X104727621Y-103857938D01*
X104785494Y-103430701D01*
X104785495Y-103430692D01*
X104804838Y-103000003D01*
X104804838Y-103000000D01*
X105418525Y-103000000D01*
X105425173Y-103050500D01*
X105425403Y-103052242D01*
X105426464Y-103068428D01*
X105426464Y-103075504D01*
X105426465Y-103075513D01*
X105428296Y-103082348D01*
X105431458Y-103098245D01*
X105438338Y-103150498D01*
X105458505Y-103199186D01*
X105463718Y-103214540D01*
X105465551Y-103221381D01*
X105465551Y-103221382D01*
X105469085Y-103227502D01*
X105476259Y-103242047D01*
X105488382Y-103271313D01*
X105496428Y-103290738D01*
X105528508Y-103332545D01*
X105537514Y-103346023D01*
X105539881Y-103350122D01*
X105541058Y-103352161D01*
X105546052Y-103357154D01*
X105556750Y-103369352D01*
X105588832Y-103411162D01*
X105588833Y-103411163D01*
X105588835Y-103411165D01*
X105630653Y-103443253D01*
X105642839Y-103453941D01*
X105647841Y-103458943D01*
X105647843Y-103458944D01*
X105653964Y-103462478D01*
X105667450Y-103471489D01*
X105696252Y-103493589D01*
X105709262Y-103503572D01*
X105757948Y-103523738D01*
X105772488Y-103530908D01*
X105778623Y-103534450D01*
X105778627Y-103534451D01*
X105785455Y-103536281D01*
X105800812Y-103541494D01*
X105831169Y-103554068D01*
X105849503Y-103561662D01*
X105901755Y-103568541D01*
X105917652Y-103571703D01*
X105924493Y-103573536D01*
X105924495Y-103573536D01*
X105931570Y-103573536D01*
X105947755Y-103574597D01*
X105999999Y-103581475D01*
X106000000Y-103581475D01*
X106000001Y-103581475D01*
X106052245Y-103574597D01*
X106068430Y-103573536D01*
X106075508Y-103573536D01*
X106079751Y-103572398D01*
X106082338Y-103571705D01*
X106098244Y-103568541D01*
X106150497Y-103561662D01*
X106199202Y-103541487D01*
X106214551Y-103536278D01*
X106221377Y-103534450D01*
X106227504Y-103530912D01*
X106242039Y-103523743D01*
X106290738Y-103503572D01*
X106332558Y-103471482D01*
X106346036Y-103462478D01*
X106352159Y-103458943D01*
X106357161Y-103453940D01*
X106369342Y-103443256D01*
X106411165Y-103411165D01*
X106443256Y-103369342D01*
X106453940Y-103357161D01*
X106458943Y-103352159D01*
X106462480Y-103346031D01*
X106471482Y-103332558D01*
X106503572Y-103290738D01*
X106523743Y-103242039D01*
X106530914Y-103227502D01*
X106534450Y-103221377D01*
X106536278Y-103214551D01*
X106541487Y-103199202D01*
X106561662Y-103150497D01*
X106568541Y-103098241D01*
X106571703Y-103082348D01*
X106573536Y-103075507D01*
X106573997Y-103061379D01*
X106574989Y-103049262D01*
X106581475Y-103000000D01*
X106581474Y-102999996D01*
X106578374Y-102976444D01*
X106574990Y-102950742D01*
X106573996Y-102938618D01*
X106573536Y-102924493D01*
X106571701Y-102917645D01*
X106568541Y-102901754D01*
X106561662Y-102849503D01*
X106541491Y-102800807D01*
X106536283Y-102785463D01*
X106534450Y-102778623D01*
X106534445Y-102778615D01*
X106530912Y-102772495D01*
X106523738Y-102757948D01*
X106503571Y-102709261D01*
X106471492Y-102667455D01*
X106462481Y-102653969D01*
X106458943Y-102647841D01*
X106453940Y-102642838D01*
X106443245Y-102630643D01*
X106411164Y-102588834D01*
X106369351Y-102556749D01*
X106357158Y-102546055D01*
X106352162Y-102541059D01*
X106352159Y-102541057D01*
X106346023Y-102537514D01*
X106332551Y-102528512D01*
X106290738Y-102496428D01*
X106273215Y-102489169D01*
X106242047Y-102476259D01*
X106227502Y-102469085D01*
X106221381Y-102465551D01*
X106214540Y-102463718D01*
X106199186Y-102458505D01*
X106150498Y-102438338D01*
X106098245Y-102431458D01*
X106082348Y-102428296D01*
X106075513Y-102426465D01*
X106075509Y-102426464D01*
X106075507Y-102426464D01*
X106075504Y-102426464D01*
X106068430Y-102426464D01*
X106052245Y-102425403D01*
X106000001Y-102418525D01*
X105999999Y-102418525D01*
X105947755Y-102425403D01*
X105931570Y-102426464D01*
X105924493Y-102426464D01*
X105917645Y-102428298D01*
X105901754Y-102431458D01*
X105849501Y-102438338D01*
X105800817Y-102458504D01*
X105785463Y-102463717D01*
X105778622Y-102465550D01*
X105778615Y-102465553D01*
X105772483Y-102469093D01*
X105757948Y-102476261D01*
X105709263Y-102496428D01*
X105709259Y-102496430D01*
X105667452Y-102528509D01*
X105653979Y-102537512D01*
X105647840Y-102541057D01*
X105647838Y-102541058D01*
X105642830Y-102546066D01*
X105630645Y-102556752D01*
X105588834Y-102588834D01*
X105556752Y-102630645D01*
X105546066Y-102642830D01*
X105541058Y-102647838D01*
X105541057Y-102647840D01*
X105537512Y-102653979D01*
X105528509Y-102667452D01*
X105496430Y-102709259D01*
X105496428Y-102709263D01*
X105476261Y-102757948D01*
X105469093Y-102772483D01*
X105465553Y-102778615D01*
X105465550Y-102778622D01*
X105463717Y-102785463D01*
X105458504Y-102800817D01*
X105438338Y-102849501D01*
X105431458Y-102901754D01*
X105428298Y-102917645D01*
X105426464Y-102924492D01*
X105426464Y-102931570D01*
X105425403Y-102947755D01*
X105418526Y-102999996D01*
X105418525Y-103000000D01*
X104804838Y-103000000D01*
X104804838Y-102999996D01*
X104785495Y-102569307D01*
X104785494Y-102569298D01*
X104727621Y-102142061D01*
X104631686Y-101721741D01*
X104498457Y-101311703D01*
X104498454Y-101311695D01*
X104329014Y-100915269D01*
X104329010Y-100915261D01*
X104124705Y-100535600D01*
X103887200Y-100175792D01*
X103887199Y-100175791D01*
X103618391Y-99838717D01*
X103567774Y-99785776D01*
X101686894Y-101666656D01*
X101574969Y-101529082D01*
X101360010Y-101328324D01*
X101335454Y-101310991D01*
X103213121Y-99433323D01*
X103213121Y-99433322D01*
X102995783Y-99243439D01*
X102995755Y-99243417D01*
X102646975Y-98990013D01*
X102276859Y-98768879D01*
X102276853Y-98768876D01*
X101888430Y-98581821D01*
X101888416Y-98581815D01*
X101484790Y-98430332D01*
X101484765Y-98430324D01*
X101069183Y-98315630D01*
X100688282Y-98246507D01*
X100625835Y-98215169D01*
X100590244Y-98155043D01*
X100592809Y-98085221D01*
X100632715Y-98027869D01*
X100697294Y-98001197D01*
X100710423Y-98000500D01*
X154289577Y-98000500D01*
X154356616Y-98020185D01*
G37*
%TD.AperFunction*%
%TD*%
M02*
