%TF.GenerationSoftware,KiCad,Pcbnew,7.0.10*%
%TF.CreationDate,2024-04-17T23:56:12-04:00*%
%TF.ProjectId,BoardDesign,426f6172-6444-4657-9369-676e2e6b6963,rev?*%
%TF.SameCoordinates,Original*%
%TF.FileFunction,Copper,L4,Bot*%
%TF.FilePolarity,Positive*%
%FSLAX46Y46*%
G04 Gerber Fmt 4.6, Leading zero omitted, Abs format (unit mm)*
G04 Created by KiCad (PCBNEW 7.0.10) date 2024-04-17 23:56:12*
%MOMM*%
%LPD*%
G01*
G04 APERTURE LIST*
G04 Aperture macros list*
%AMRoundRect*
0 Rectangle with rounded corners*
0 $1 Rounding radius*
0 $2 $3 $4 $5 $6 $7 $8 $9 X,Y pos of 4 corners*
0 Add a 4 corners polygon primitive as box body*
4,1,4,$2,$3,$4,$5,$6,$7,$8,$9,$2,$3,0*
0 Add four circle primitives for the rounded corners*
1,1,$1+$1,$2,$3*
1,1,$1+$1,$4,$5*
1,1,$1+$1,$6,$7*
1,1,$1+$1,$8,$9*
0 Add four rect primitives between the rounded corners*
20,1,$1+$1,$2,$3,$4,$5,0*
20,1,$1+$1,$4,$5,$6,$7,0*
20,1,$1+$1,$6,$7,$8,$9,0*
20,1,$1+$1,$8,$9,$2,$3,0*%
G04 Aperture macros list end*
%TA.AperFunction,ComponentPad*%
%ADD10R,1.000000X1.000000*%
%TD*%
%TA.AperFunction,ComponentPad*%
%ADD11O,1.000000X1.000000*%
%TD*%
%TA.AperFunction,ComponentPad*%
%ADD12C,0.900000*%
%TD*%
%TA.AperFunction,ComponentPad*%
%ADD13C,8.600000*%
%TD*%
%TA.AperFunction,ComponentPad*%
%ADD14R,1.700000X1.700000*%
%TD*%
%TA.AperFunction,ComponentPad*%
%ADD15O,1.700000X1.700000*%
%TD*%
%TA.AperFunction,ComponentPad*%
%ADD16RoundRect,1.500000X1.500000X1.500000X-1.500000X1.500000X-1.500000X-1.500000X1.500000X-1.500000X0*%
%TD*%
%TA.AperFunction,ComponentPad*%
%ADD17C,6.000000*%
%TD*%
%TA.AperFunction,ComponentPad*%
%ADD18RoundRect,1.500000X-1.500000X1.500000X-1.500000X-1.500000X1.500000X-1.500000X1.500000X1.500000X0*%
%TD*%
%TA.AperFunction,ComponentPad*%
%ADD19RoundRect,0.250000X0.600000X0.725000X-0.600000X0.725000X-0.600000X-0.725000X0.600000X-0.725000X0*%
%TD*%
%TA.AperFunction,ComponentPad*%
%ADD20O,1.700000X1.950000*%
%TD*%
%TA.AperFunction,ComponentPad*%
%ADD21R,1.600000X1.600000*%
%TD*%
%TA.AperFunction,ComponentPad*%
%ADD22O,1.600000X1.600000*%
%TD*%
%TA.AperFunction,ViaPad*%
%ADD23C,0.800000*%
%TD*%
%TA.AperFunction,Conductor*%
%ADD24C,0.300000*%
%TD*%
%TA.AperFunction,Conductor*%
%ADD25C,0.750000*%
%TD*%
G04 APERTURE END LIST*
D10*
%TO.P,J7,1,Pin_1*%
%TO.N,+3.3V*%
X96850000Y-124990000D03*
D11*
%TO.P,J7,2,Pin_2*%
%TO.N,SWDIO*%
X98120000Y-124990000D03*
%TO.P,J7,3,Pin_3*%
%TO.N,GND*%
X96850000Y-126260000D03*
%TO.P,J7,4,Pin_4*%
%TO.N,SWCLK*%
X98120000Y-126260000D03*
%TO.P,J7,5,Pin_5*%
%TO.N,GND*%
X96850000Y-127530000D03*
%TO.P,J7,6,Pin_6*%
%TO.N,SW0*%
X98120000Y-127530000D03*
%TO.P,J7,7,Pin_7*%
%TO.N,unconnected-(J7-Pin_7-Pad7)*%
X96850000Y-128800000D03*
%TO.P,J7,8,Pin_8*%
%TO.N,unconnected-(J7-Pin_8-Pad8)*%
X98120000Y-128800000D03*
%TO.P,J7,9,Pin_9*%
%TO.N,GND*%
X96850000Y-130070000D03*
%TO.P,J7,10,Pin_10*%
%TO.N,NRST*%
X98120000Y-130070000D03*
%TD*%
D12*
%TO.P,H2,1,1*%
%TO.N,GND*%
X151775000Y-103000000D03*
X152719581Y-100719581D03*
X152719581Y-105280419D03*
X155000000Y-99775000D03*
D13*
X155000000Y-103000000D03*
D12*
X155000000Y-106225000D03*
X157280419Y-100719581D03*
X157280419Y-105280419D03*
X158225000Y-103000000D03*
%TD*%
D14*
%TO.P,J6,1,Pin_1*%
%TO.N,Net-(J6-Pin_1)*%
X97359581Y-156491000D03*
D15*
%TO.P,J6,2,Pin_2*%
%TO.N,Net-(J6-Pin_2)*%
X97359581Y-153951000D03*
%TD*%
D16*
%TO.P,J8,1,Pin_1*%
%TO.N,VDC*%
X140600000Y-104000000D03*
D17*
%TO.P,J8,2,Pin_2*%
%TO.N,GND*%
X133400000Y-104000000D03*
%TD*%
D18*
%TO.P,J11,1,Pin_1*%
%TO.N,Net-(J10-Pin_1)*%
X145000000Y-175200000D03*
D17*
%TO.P,J11,2,Pin_2*%
%TO.N,Net-(J10-Pin_2)*%
X145000000Y-182400000D03*
%TD*%
D12*
%TO.P,H3,1,1*%
%TO.N,GND*%
X96775000Y-183000000D03*
X97719581Y-180719581D03*
X97719581Y-185280419D03*
X100000000Y-179775000D03*
D13*
X100000000Y-183000000D03*
D12*
X100000000Y-186225000D03*
X102280419Y-180719581D03*
X102280419Y-185280419D03*
X103225000Y-183000000D03*
%TD*%
D18*
%TO.P,J14,1,Pin_1*%
%TO.N,Net-(J13-Pin_1)*%
X121800000Y-175200000D03*
D17*
%TO.P,J14,2,Pin_2*%
%TO.N,Net-(J13-Pin_2)*%
X121800000Y-182400000D03*
%TD*%
D14*
%TO.P,J1,1,Pin_1*%
%TO.N,+5VD*%
X153613581Y-115460000D03*
D15*
%TO.P,J1,2,Pin_2*%
%TO.N,GND*%
X153613581Y-118000000D03*
%TD*%
D12*
%TO.P,H1,1,1*%
%TO.N,GND*%
X96775000Y-103000000D03*
X97719581Y-100719581D03*
X97719581Y-105280419D03*
X100000000Y-99775000D03*
D13*
X100000000Y-103000000D03*
D12*
X100000000Y-106225000D03*
X102280419Y-100719581D03*
X102280419Y-105280419D03*
X103225000Y-103000000D03*
%TD*%
D14*
%TO.P,J2,1,Pin_1*%
%TO.N,+3.3V*%
X97359581Y-141505000D03*
D15*
%TO.P,J2,2,Pin_2*%
%TO.N,UART3_TX*%
X97359581Y-144045000D03*
%TO.P,J2,3,Pin_3*%
%TO.N,UART3_RX*%
X97359581Y-146585000D03*
%TO.P,J2,4,Pin_4*%
%TO.N,GND*%
X97359581Y-149125000D03*
%TD*%
D14*
%TO.P,J5,1,Pin_1*%
%TO.N,Net-(J5-Pin_1)*%
X97359581Y-134139000D03*
D15*
%TO.P,J5,2,Pin_2*%
%TO.N,GND*%
X97359581Y-136679000D03*
%TD*%
D19*
%TO.P,J9,1,Pin_1*%
%TO.N,Net-(J9-Pin_1)*%
X120600000Y-104200000D03*
D20*
%TO.P,J9,2,Pin_2*%
%TO.N,Net-(J9-Pin_2)*%
X118100000Y-104200000D03*
%TO.P,J9,3,Pin_3*%
%TO.N,Net-(J9-Pin_3)*%
X115600000Y-104200000D03*
%TO.P,J9,4,Pin_4*%
%TO.N,/ADC0*%
X113100000Y-104200000D03*
%TO.P,J9,5,Pin_5*%
%TO.N,GND*%
X110600000Y-104200000D03*
%TD*%
D14*
%TO.P,J4,1,Pin_1*%
%TO.N,+3.3V*%
X102185581Y-141505000D03*
D15*
%TO.P,J4,2,Pin_2*%
%TO.N,I2C3_SCL*%
X102185581Y-144045000D03*
%TO.P,J4,3,Pin_3*%
%TO.N,I2C3_SDA*%
X102185581Y-146585000D03*
%TO.P,J4,4,Pin_4*%
%TO.N,GND*%
X102185581Y-149125000D03*
%TD*%
D18*
%TO.P,J13,1,Pin_1*%
%TO.N,Net-(J13-Pin_1)*%
X110800000Y-175200000D03*
D17*
%TO.P,J13,2,Pin_2*%
%TO.N,Net-(J13-Pin_2)*%
X110800000Y-182400000D03*
%TD*%
D18*
%TO.P,J10,1,Pin_1*%
%TO.N,Net-(J10-Pin_1)*%
X133800000Y-175000000D03*
D17*
%TO.P,J10,2,Pin_2*%
%TO.N,Net-(J10-Pin_2)*%
X133800000Y-182200000D03*
%TD*%
D12*
%TO.P,H4,1,1*%
%TO.N,GND*%
X151775000Y-183000000D03*
X152719581Y-180719581D03*
X152719581Y-185280419D03*
X155000000Y-179775000D03*
D13*
X155000000Y-183000000D03*
D12*
X155000000Y-186225000D03*
X157280419Y-180719581D03*
X157280419Y-185280419D03*
X158225000Y-183000000D03*
%TD*%
D21*
%TO.P,D2,1,K*%
%TO.N,Net-(D2-K)*%
X148690000Y-141500000D03*
D22*
%TO.P,D2,2,A*%
%TO.N,+3.3V*%
X156310000Y-141500000D03*
%TD*%
D23*
%TO.N,GND*%
X110600000Y-107500000D03*
%TO.N,+3.3V*%
X158000000Y-139800000D03*
X156300000Y-139800000D03*
X158000000Y-141500000D03*
X154500000Y-155000000D03*
X155500000Y-153000000D03*
X154500000Y-157000000D03*
X154500000Y-156000003D03*
X154500000Y-153000000D03*
X154500000Y-154000000D03*
%TO.N,GND*%
X151500000Y-119000000D03*
X151500000Y-118000000D03*
X151500000Y-117000000D03*
X143780081Y-167030792D03*
X150520000Y-151667000D03*
X139500000Y-168750000D03*
X115346581Y-140013000D03*
X98929000Y-136679000D03*
X120400000Y-117800000D03*
X96851581Y-131398419D03*
X121000000Y-164000000D03*
X150520000Y-150167000D03*
X147520000Y-151270000D03*
X145750000Y-127125000D03*
X129903419Y-143250000D03*
X142500000Y-168750000D03*
X115250000Y-129250000D03*
X119300000Y-114350000D03*
X135000000Y-166750000D03*
X116050000Y-114400000D03*
X149363581Y-133886419D03*
X149363581Y-130500000D03*
X149363581Y-132160000D03*
X143950000Y-142400000D03*
X112750000Y-114400000D03*
X122650000Y-114350000D03*
X129500000Y-128750000D03*
X113950000Y-136700000D03*
X138600000Y-116350000D03*
X116498907Y-168790470D03*
X120000000Y-144000000D03*
X147520000Y-152770000D03*
X130000000Y-141750000D03*
X119737478Y-131363000D03*
X149363581Y-128750000D03*
X142500000Y-116350000D03*
X95853269Y-127476918D03*
X143780081Y-163969208D03*
X97500000Y-150500000D03*
X119500000Y-120250000D03*
X112000000Y-166750000D03*
X113000000Y-168000000D03*
X139250000Y-143100000D03*
X101607000Y-120617000D03*
X110863000Y-134363000D03*
X140600000Y-143100000D03*
X119500001Y-168750000D03*
X121000000Y-167000000D03*
X102250000Y-150500000D03*
X136250000Y-168000000D03*
%TO.N,+3.3V*%
X97359581Y-140140419D03*
X127271581Y-140078419D03*
X121750000Y-143000000D03*
X118500000Y-130000000D03*
X96851581Y-123851581D03*
X112102419Y-137907000D03*
X101607000Y-116117000D03*
X146000000Y-142000000D03*
X102185581Y-140064419D03*
X108415000Y-146585000D03*
X108455000Y-144045000D03*
X127975883Y-131906753D03*
%TO.N,Net-(C12-Pad1)*%
X114950000Y-134063000D03*
X116004161Y-132995839D03*
%TO.N,+5VD*%
X113850000Y-122950000D03*
X119500000Y-122750000D03*
X113000000Y-117250000D03*
X117850000Y-122850000D03*
X115850000Y-122900000D03*
%TO.N,VDC*%
X139733581Y-120250000D03*
X142000000Y-120250000D03*
X115000000Y-168000000D03*
X137999999Y-167976500D03*
X118000001Y-167976500D03*
X112000000Y-165000000D03*
X135000000Y-164912401D03*
X141000001Y-167976500D03*
%TO.N,Net-(U2-BS)*%
X139750000Y-125300000D03*
X145613581Y-124176497D03*
%TO.N,I2C3_SCL*%
X113750000Y-141000000D03*
X120183593Y-138250367D03*
%TO.N,I2C3_SDA*%
X119221581Y-137977350D03*
X113750000Y-140000000D03*
X104500000Y-146585000D03*
X104500000Y-143250000D03*
%TO.N,Net-(J6-Pin_1)*%
X117758469Y-161629887D03*
X110500000Y-156500000D03*
%TO.N,Fet*%
X113000000Y-153000000D03*
X118743476Y-161457353D03*
X129000000Y-146000000D03*
X141750000Y-161750000D03*
%TO.N,BOOT0*%
X118000000Y-128000000D03*
X113000000Y-124500000D03*
%TO.N,I2C1_SCL*%
X123250000Y-128000000D03*
X122780331Y-124500000D03*
%TO.N,I2C1_SDA*%
X122250000Y-127953729D03*
X121500000Y-124500000D03*
%TO.N,Net-(U2-FB)*%
X139573581Y-119000000D03*
X141683581Y-119000000D03*
%TO.N,LowBat*%
X116000000Y-139000000D03*
X119221581Y-138977309D03*
%TO.N,Net-(J6-Pin_2)*%
X114375000Y-154375000D03*
X140750000Y-161750000D03*
%TD*%
D24*
%TO.N,Net-(C12-Pad1)*%
X116004161Y-132995839D02*
X116004161Y-133008839D01*
X116004161Y-133008839D02*
X114950000Y-134063000D01*
%TO.N,VDC*%
X138976499Y-167000000D02*
X137999999Y-167976500D01*
X135000000Y-164912401D02*
X136888900Y-164912401D01*
X115000000Y-168000000D02*
X116011750Y-166988250D01*
X117011751Y-166988250D02*
X118000001Y-167976500D01*
X114000000Y-165000000D02*
X115988250Y-166988250D01*
X112000000Y-165000000D02*
X114000000Y-165000000D01*
X140023501Y-167000000D02*
X138976499Y-167000000D01*
X115988250Y-166988250D02*
X116011750Y-166988250D01*
X140023501Y-167000000D02*
X141000001Y-167976500D01*
X136888900Y-164912401D02*
X138976499Y-167000000D01*
X116011750Y-166988250D02*
X117011751Y-166988250D01*
D25*
X142000000Y-120250000D02*
X139733581Y-120250000D01*
%TO.N,Net-(U2-BS)*%
X139750000Y-124750000D02*
X140323503Y-124176497D01*
X140323503Y-124176497D02*
X145613581Y-124176497D01*
X139750000Y-125300000D02*
X139750000Y-124750000D01*
D24*
%TO.N,I2C3_SCL*%
X118500000Y-141000000D02*
X113750000Y-141000000D01*
X120183593Y-139316407D02*
X118500000Y-141000000D01*
X120183593Y-138250367D02*
X120183593Y-139316407D01*
%TO.N,I2C3_SDA*%
X104500000Y-143250000D02*
X104500000Y-146585000D01*
X119023931Y-138175000D02*
X115575000Y-138175000D01*
X115575000Y-138175000D02*
X113750000Y-140000000D01*
X119221581Y-137977350D02*
X119023931Y-138175000D01*
%TO.N,Net-(J6-Pin_1)*%
X110500000Y-156500000D02*
X112689338Y-156500000D01*
X117758469Y-161569131D02*
X117758469Y-161629887D01*
X112689338Y-156500000D02*
X117758469Y-161569131D01*
%TO.N,Fet*%
X129000000Y-146000000D02*
X141750000Y-158750000D01*
X113000000Y-155750000D02*
X118707353Y-161457353D01*
X141750000Y-158750000D02*
X141750000Y-161750000D01*
X118707353Y-161457353D02*
X118743476Y-161457353D01*
X113000000Y-153000000D02*
X113000000Y-155750000D01*
%TO.N,BOOT0*%
X116500000Y-128000000D02*
X118000000Y-128000000D01*
X113000000Y-124500000D02*
X116500000Y-128000000D01*
%TO.N,I2C1_SCL*%
X123250000Y-128000000D02*
X123250000Y-124969669D01*
X123250000Y-124969669D02*
X122780331Y-124500000D01*
%TO.N,I2C1_SDA*%
X121500000Y-124500000D02*
X122250000Y-125250000D01*
X122250000Y-125250000D02*
X122250000Y-127953729D01*
D25*
%TO.N,Net-(U2-FB)*%
X141683581Y-119000000D02*
X139573581Y-119000000D01*
D24*
%TO.N,LowBat*%
X119221581Y-138977309D02*
X116022691Y-138977309D01*
X116022691Y-138977309D02*
X116000000Y-139000000D01*
%TO.N,Net-(J6-Pin_2)*%
X119000000Y-159000000D02*
X139250000Y-159000000D01*
X139250000Y-159000000D02*
X140750000Y-160500000D01*
X114375000Y-154375000D02*
X119000000Y-159000000D01*
X140750000Y-160500000D02*
X140750000Y-161750000D01*
%TD*%
M02*
